<?xml version="1.0" encoding="utf-8"?>
<!-- Generator: Adobe Illustrator 22.1.0, SVG Export Plug-In . SVG Version: 6.00 Build 0)  -->
<svg version="1.1" id="Layer_1" xmlns="http://www.w3.org/2000/svg" xmlns:xlink="http://www.w3.org/1999/xlink" x="0px" y="0px"
	 viewBox="0 0 226.8 226.8" style="enable-background:new 0 0 226.8 226.8;" xml:space="preserve">
<style type="text/css">
	.st0{fill:#6E6EFF;}
</style>
<g id="BTC_2_">
	<path class="st0" d="M135.7,122.2c-2.6-1.3-8.4-3.1-15.4-3.5c-6.9-0.5-15.8,0-15.8,0v30c0,0,9.3,0.2,15.5-0.3s12.6-2,15.8-3.8
		s7.1-4.5,7.1-11.4C142.9,126.4,138.3,123.6,135.7,122.2z"/>
	<path class="st0" d="M116.2,104.8c5.1-0.2,10.5-1.4,14.5-3.5c3.9-2.2,6.1-5.6,6-10.7s-3.5-9.4-9.3-11.2c-5.8-1.8-9.6-1.9-14-2
		s-8.8,0.3-8.8,0.3v27C104.5,104.8,111.1,105,116.2,104.8z"/>
	<path class="st0" d="M113.4,0C50.8,0,0,50.8,0,113.4s50.8,113.4,113.4,113.4S226.8,176,226.8,113.4S176,0,113.4,0z M159.6,156.8
		c-8.4,5.9-17.5,6.9-21.5,7.5c-2,0.3-5.3,0.5-9,0.7v22.7h-14v-22.4c-2.6,0-6.4,0-10.7,0v22.4h-14v-22.4c-13.9,0-27.5,0-27.5,0
		l2.9-16.8c0,0,5.6,0,8.4,0s4-0.3,5.2-1.4c1.2-1.1,1.4-2.8,1.4-4.2s0-54.3,0-57.9s-0.3-4.6-2-6.5s-5.6-2.1-7.8-2.1
		c-2.2,0-8.1,0-8.1,0V61.9c0,0,13.2,0,27.5,0V39.5h14v22.4c3.9,0,7.5,0,10.7,0V39.5h14v22.7c10.4,0.6,18.2,2.6,25,7.6
		c8.8,6.5,8.3,17.7,8.1,20.4c-0.2,2.7-1.4,7.8-3.7,11.2c-2.4,3.3-8.1,6.7-8.1,6.7s6.8,1.4,11.6,5s8.3,9.9,8.1,19.2
		C169.9,141.7,168,150.9,159.6,156.8z"/>
</g>
</svg>
