<svg xmlns="http://www.w3.org/2000/svg" xmlns:xlink="http://www.w3.org/1999/xlink" x="0px" y="0px" viewBox="0 0 32 32" style="enable-background:new 0 0 32 32;" xml:space="preserve"><path d="M30.4,17.6H1.6C0.7,17.6,0,16.9,0,16c0-0.9,0.7-1.6,1.6-1.6h28.8c0.9,0,1.6,0.7,1.6,1.6C32,16.9,31.3,17.6,30.4,17.6z"/><path d="M30.4,32H1.6C0.7,32,0,31.3,0,30.4s0.7-1.6,1.6-1.6h28.8c0.9,0,1.6,0.7,1.6,1.6S31.3,32,30.4,32z"/><path d="M30.4,3.2H1.6C0.7,3.2,0,2.5,0,1.6S0.7,0,1.6,0h28.8C31.3,0,32,0.7,32,1.6S31.3,3.2,30.4,3.2z"/></svg>
