<?xml version="1.0" encoding="utf-8"?>
<!-- Generator: Adobe Illustrator 22.1.0, SVG Export Plug-In . SVG Version: 6.00 Build 0)  -->
<svg version="1.1" id="Layer_1" xmlns="http://www.w3.org/2000/svg" xmlns:xlink="http://www.w3.org/1999/xlink" x="0px" y="0px"
	 viewBox="0 0 1834.4 1716.9" style="enable-background:new 0 0 1834.4 1716.9;" xml:space="preserve">
<style type="text/css">
	.st0{fill-rule:evenodd;clip-rule:evenodd;}
</style>
<path class="st0" d="M917.2,0L917.2,0C410.6,0,0,328.8,0,734.4c0,361.6,326.3,662.1,755.9,723.1v0l0.2,0c10.1,1.4,20.3,2.7,30.5,3.9
	c146.3,30.5,19.5,213.6,67.4,251c55.1,43.1,472.6-236.1,726.2-470.5c36.7-30.7,70.1-64,99.7-99.5l0.5-0.6c7.1-7.8,12.7-14.8,17-21.2
	c86.8-112.2,136.9-244.5,136.9-386.2C1834.4,328.8,1423.7,0,917.2,0 M617.8,920.9c0,26.3-21.5,47.8-47.8,47.8H385
	c-26.3,0-47.8-21.5-47.8-47.8V566.1c0-26.3,21.5-47.8,47.8-47.8h4c26.3,0,47.8,21.5,47.8,47.8v303H570c26.3,0,47.8,21.5,47.8,47.8
	V920.9z M756.1,920.9c0,26.3-21.5,47.8-47.8,47.8h-4c-26.3,0-47.8-21.5-47.8-47.8V566.1c0-26.3,21.5-47.8,47.8-47.8h4
	c26.3,0,47.8,21.5,47.8,47.8V920.9z M1189.4,920.9c0,12.6-5,24.6-13.8,33.6l0,0c-2.8,3.5-6.9,6.4-11.7,8.7
	c-6.9,3.7-14.6,5.6-22.3,5.6h-4c-6.4,0-12.5-1.3-18.1-3.6c-7.3-2.7-13.8-7.2-18.6-13.7l0,0c-1.3-1.5-2.4-3.1-3.5-4.8L923.1,708.7
	v212.2c0,26.3-21.5,47.8-47.8,47.8h-4c-26.3,0-47.8-21.5-47.8-47.8V566.1c0-26.3,21.5-47.8,47.8-47.8h4c17.7,0,33.3,9.8,41.5,24.2
	l172.9,231.9V566.1c0-26.3,21.5-47.8,47.8-47.8h4c26.3,0,47.8,21.5,47.8,47.8V920.9z M1531.3,570.9c0,26.3-21.5,47.8-47.8,47.8
	h-133.2v75.7h133.2c26.3,0,47.8,21.5,47.8,47.8v4v0c0,26.3-21.5,47.8-47.8,47.8h-133.2v75.7h133.2c26.3,0,47.8,21.5,47.8,47.8v4
	c0,26.3-21.5,47.8-47.8,47.8h-185c-26.3,0-47.8-21.5-47.8-47.8V566.9c0-26.3,21.5-47.8,47.8-47.8h185c26.3,0,47.8,21.5,47.8,47.8
	V570.9z"/>
</svg>
