<?xml version="1.0" encoding="utf-8"?>
<!-- Generator: Adobe Illustrator 22.1.0, SVG Export Plug-In . SVG Version: 6.00 Build 0)  -->
<svg version="1.1" id="Layer_1" xmlns="http://www.w3.org/2000/svg" xmlns:xlink="http://www.w3.org/1999/xlink" x="0px" y="0px"
	 viewBox="0 0 1920 493" style="enable-background:new 0 0 1920 493;" xml:space="preserve">
<style type="text/css">
	.st0{fill:#FFFFFF;}
	.st1{fill:#6E6EFF;}
</style>
<g>
	<path class="st0" d="M796.9,168c-23.4,0-43.3,8.8-55,25.1C732.4,177,714.6,168,691,168c-22.7,0-40.2,8.8-50.4,23.9v-20.9h-38.2
		v170.5h39.5V240.3c0-27,15.6-38.7,36.5-38.7c19.5,0,32.6,11.4,32.6,36.3v103.5h39.5V240.3c0-27,15.3-38.7,36.8-38.7
		c19.5,0,34.1,11.4,34.1,36.3v103.5h39.5V236.7C860.7,191.6,836.6,168,796.9,168z M1259.2,341.4h38v-131h-38V341.4z M1461.8,238.1
		h-77.4v-67.2h-39.5v170.5h39.5v-69.9h77.4v69.9h39.5V170.9h-39.5V238.1z M1910,308.3c-4.4,3.2-10,4.9-15.6,4.9
		c-10.2,0-16.1-6.1-16.1-17.3v-53.3h32.4v-29.2h-32.4v-31.9h-38v115c0,31.2,17.8,47,49,47c11.4,0,22.9-2.7,30.7-8.3L1910,308.3z
		 M1735.3,249.3c0-6.8,7.3-12.2,24.4-12.2c11.2,0,23.2,2.1,35.2,8.4l14.9-25.8c-12.4-7.2-32.3-11.3-50.2-11.3
		c-38.2,0-60.6,17.5-60.6,42.4c0,52.4,79.2,30.4,79.2,51.9c0,7.3-6.6,11.9-24.1,11.9c-15,0-31.6-4.5-43.2-11.3l-14.9,25.9
		c12.2,8,34.6,14.1,56.7,14.1c39.2,0,61.9-17.3,61.9-41.6C1814.5,250,1735.3,271.7,1735.3,249.3z M1603.9,208.4
		c-41.6,0-72.1,28-72.1,67.5c0,39.5,30.4,67.5,72.1,67.5c41.6,0,71.8-28,71.8-67.5C1675.7,236.4,1645.5,208.4,1603.9,208.4z
		 M1603.9,314c-20,0-35.3-14.3-35.3-38.1c0-23.8,15.3-38.1,35.3-38.1c20,0,35.1,14.3,35.1,38.1S1623.9,314,1603.9,314z
		 M1169.1,224.2c-9.5-10.7-23.1-15.8-39.2-15.8c-37,0-65.5,26.3-65.5,67.5s28.5,67.5,65.5,67.5c17.5,0,31.4-5.6,40.9-17.1v15.1h36.3
		V160.7h-38L1169.1,224.2L1169.1,224.2z M1136.4,314c-20,0-35.3-14.3-35.3-38.1c0-23.8,15.3-38.1,35.3-38.1
		c19.7,0,35.1,14.3,35.1,38.1S1156.1,314,1136.4,314z M967,208.4c-41.6,0-72.1,28-72.1,67.5c0,39.5,30.4,67.5,72.1,67.5
		c41.6,0,71.8-28,71.8-67.5S1008.7,208.4,967,208.4z M967,314c-20,0-35.3-14.3-35.3-38.1c0-23.8,15.3-38.1,35.3-38.1
		c20,0,35.1,14.3,35.1,38.1S987,314,967,314z M1278.1,149.7c-12.7,0-21.2,9.3-21.2,21.2c0,11.9,8.5,21.2,21.2,21.2
		c12.7,0,21.2-9.3,21.2-21.9C1299.3,158.5,1290.8,149.7,1278.1,149.7z"/>
	<path class="st1" d="M386.3,95.9H212.4l-24.8,43h173.9l24.8,43H24.8L0,225h411.2l12.4,21.5l-62.1,107.6H187.6l24.8,43h173.9
		l86.9-150.6L386.3,95.9z M361.5,268H86l24.8,43h225.8L361.5,268z"/>
</g>
</svg>
