<svg xmlns="http://www.w3.org/2000/svg" xmlns:xlink="http://www.w3.org/1999/xlink" width="15.469" height="16.1" viewBox="0 0 15.469 16.1">
  <metadata><?xpacket begin="﻿" id="W5M0MpCehiHzreSzNTczkc9d"?>
<x:xmpmeta xmlns:x="adobe:ns:meta/" x:xmptk="Adobe XMP Core 5.6-c142 79.160924, 2017/07/13-01:06:39        ">
   <rdf:RDF xmlns:rdf="http://www.w3.org/1999/02/22-rdf-syntax-ns#">
      <rdf:Description rdf:about=""/>
   </rdf:RDF>
</x:xmpmeta>
                                                                                                    
                                                                                                    
                                                                                                    
                                                                                                    
                                                                                                    
                                                                                                    
                                                                                                    
                                                                                                    
                                                                                                    
                                                                                                    
                                                                                                    
                                                                                                    
                                                                                                    
                                                                                                    
                                                                                                    
                                                                                                    
                                                                                                    
                                                                                                    
                                                                                                    
                                                                                                    
                           
<?xpacket end="w"?></metadata>
<defs>
    <style>
      .cls-1 {
        fill-rule: evenodd;
        filter: url(#filter);
      }
    </style>
    <filter id="filter" x="783.531" y="3912.28" width="15.469" height="16.1" filterUnits="userSpaceOnUse">
      <feFlood result="flood" flood-color="#f4f5f6"/>
      <feComposite result="composite" operator="in" in2="SourceGraphic"/>
      <feBlend result="blend" in2="SourceGraphic"/>
    </filter>
  </defs>
  <path id="Linkedin" class="cls-1" d="M791.84,3919.54v-0.03c0,0.01-.01.02-0.016,0.03h0.016Zm6.011-7.27H784.66a1.144,1.144,0,0,0-1.143,1.15v13.81a1.152,1.152,0,0,0,1.143,1.16h13.191a1.153,1.153,0,0,0,1.145-1.16v-13.81A1.145,1.145,0,0,0,797.851,3912.27Zm-9.642,13.49h-2.338v-7.28h2.338v7.28Zm-1.169-8.27h-0.016A1.333,1.333,0,1,1,787.04,3917.49Zm9.6,8.27H794.3v-3.9c0-.97-0.338-1.64-1.184-1.64a1.289,1.289,0,0,0-1.2.88,1.745,1.745,0,0,0-.077.59v4.07H789.5s0.03-6.6,0-7.28h2.337v1.03a2.322,2.322,0,0,1,2.108-1.2c1.538,0,2.691,1.04,2.691,3.28v4.17h0Z" transform="translate(-783.531 -3912.28)"/>
</svg>
