<?xml version="1.0" encoding="utf-8"?>
<!-- Generator: Adobe Illustrator 22.1.0, SVG Export Plug-In . SVG Version: 6.00 Build 0)  -->
<svg version="1.1" id="Layer_1" opacity="0.4" xmlns="http://www.w3.org/2000/svg" xmlns:xlink="http://www.w3.org/1999/xlink"
	 x="0px" y="0px" viewBox="0 0 54.6 47.5" style="enable-background:new 0 0 54.6 47.5;" xml:space="preserve">
<style type="text/css">
	.st0{fill:none;stroke:#171E2F;stroke-width:1.5;}
</style>
<g id="Icon">
	<g transform="translate(-914.781 -485.219)">
		<path id="Polygon_1_" class="st0" d="M968.7,509l-13.3-23h-26.6l-13.3,23l13.3,23h26.6L968.7,509z"/>
	</g>
	<g id="Rocket">
		<path class="st0" d="M21.4,24.4L17.1,20l9.2-0.7l6.4,6.4L32,34.9l-4.4-4.4L21.4,24.4z"/>
		<path class="st0" d="M28.6,15.8c1.7-1.7,9.1-4.2,10.2-3.1c1.4,1.4-1.3,8.4-3.1,10.2s-10.2,8.7-10.2,8.7L20,26.1
			C20,26.1,27,17.5,28.6,15.8z"/>
		<path class="st0" d="M21.9,26.8c0,0-8-0.3-5.4,8.7c6.6,2.2,9-3.4,8.7-5.4C23.7,28.7,21.9,26.8,21.9,26.8z"/>
		<path class="st0" d="M22.6,27.5c0,0-4.6-0.2-3.1,5c3.8,1.3,5.2-1.9,5-3.1C23.6,28.6,22.6,27.5,22.6,27.5z"/>
	</g>
</g>
</svg>
