<?xml version="1.0" encoding="utf-8"?>
<!-- Generator: Adobe Illustrator 22.1.0, SVG Export Plug-In . SVG Version: 6.00 Build 0)  -->
<svg version="1.1" id="Layer_1" xmlns="http://www.w3.org/2000/svg" xmlns:xlink="http://www.w3.org/1999/xlink" x="0px" y="0px"
	 viewBox="0 0 54.6 47.5" style="enable-background:new 0 0 54.6 47.5;" xml:space="preserve">
<style type="text/css">
	.st0{opacity:0.4;}
	.st1{fill:none;stroke:#171E2F;stroke-width:1.5;}
</style>
<g id="Icon" class="st0">
	<g transform="translate(-232.781 -669.219)">
		<path id="Polygon_1_" class="st1" d="M286.5,693l-13.3-23h-26.6l-13.3,23l13.3,23h26.6L286.5,693z"/>
	</g>
	<g id="Connect">
		<circle class="st1" cx="28.1" cy="22.9" r="5.5"/>
		<path class="st1" d="M31.5,18.9l2.9-2.7"/>
		<path class="st1" d="M29.2,27.1l1.7,4.7"/>
		<path class="st1" d="M23.2,23.1L18.4,23"/>
		<circle class="st1" cx="16.1" cy="22" r="3.3"/>
		<path class="st1" d="M35,12c1.7-0.6,3.5,0.4,4.1,2.1s-0.4,3.5-2.1,4.1c-1.7,0.5-3.5-0.3-4-2C32.4,14.4,33.3,12.5,35,12L35,12z"/>
		<circle class="st1" cx="30.3" cy="34.8" r="3.2"/>
	</g>
</g>
</svg>
