<?xml version="1.0" encoding="utf-8"?>
<!-- Generator: Adobe Illustrator 22.1.0, SVG Export Plug-In . SVG Version: 6.00 Build 0)  -->
<svg version="1.1" id="Layer_1" xmlns="http://www.w3.org/2000/svg" xmlns:xlink="http://www.w3.org/1999/xlink" x="0px" y="0px"
	 viewBox="0 0 991.4 802" style="enable-background:new 0 0 991.4 802;" xml:space="preserve">
<style type="text/css">
	.st0{clip-path:url(#SVGID_2_);fill:#FFFFFF;}
</style>
<g>
	<defs>
		<rect id="SVGID_1_" width="991.4" height="802"/>
	</defs>
	<clipPath id="SVGID_2_">
		<use xlink:href="#SVGID_1_"  style="overflow:visible;"/>
	</clipPath>
	<path class="st0" d="M991.4,370.2c0-68-55.3-123.4-123.4-123.4c-27.2,0-53.1,8.9-74.2,25c-68.8-47.8-159-76.3-255-83.5l51.8-121.4
		L741.2,102c4.8,46.6,43.8,83.1,91.6,83.1c51,0,92.5-41.5,92.5-92.5c0-51-41.5-92.5-92.5-92.5c-32.3,0-60.8,16.7-77.3,42l-176-41.1
		c-14.9-3.4-29.6,4.2-35.5,18l-71.6,167.8c-103.6,3.6-202.3,32.8-276.8,83.6c-20.3-15.1-45.5-23.4-72.3-23.4
		C55.3,246.8,0,302.1,0,370.2c0,45.1,24.6,85.9,62.4,106.8c-0.5,5.4-0.7,11-0.7,16.6C61.7,663.6,255.4,802,493.5,802
		c238.1,0,431.8-138.4,431.8-308.5c0-4.8-0.2-9.6-0.5-14.3C965.1,458.7,991.4,417,991.4,370.2 M832.8,61.7c17,0,30.8,13.8,30.8,30.8
		c0,17-13.8,30.8-30.8,30.8c-17,0-30.8-13.8-30.8-30.8C802,75.5,815.8,61.7,832.8,61.7 M277.6,462.7c0-34.1,27.6-61.7,61.7-61.7
		c34.1,0,61.7,27.6,61.7,61.7s-27.6,61.7-61.7,61.7C305.2,524.4,277.6,496.8,277.6,462.7 M636,667.3
		c-42.6,30.8-92.5,46.2-142.4,46.2s-99.9-15.4-142.4-46.2c-13.8-10-16.9-29.3-6.9-43.1c10-13.8,29.3-16.8,43.1-6.9
		c63.6,46,149,46.1,212.6,0c13.8-9.9,33-7,43.1,6.9C652.9,638.1,649.7,657.3,636,667.3 M647.8,524.4c-34.1,0-61.7-27.6-61.7-61.7
		s27.6-61.7,61.7-61.7c34.1,0,61.7,27.6,61.7,61.7S681.8,524.4,647.8,524.4"/>
</g>
</svg>
