<svg xmlns="http://www.w3.org/2000/svg" xmlns:xlink="http://www.w3.org/1999/xlink" x="0px" y="0px"
	 viewBox="0 0 1270 600" style="enable-background:new 0 0 1270 600;" xml:space="preserve">
<g>
	<defs>
		<rect id="SVGID_3_" width="1270" height="600"/>
	</defs>
	<clipPath id="SVGID_4_">
		<use xlink:href="#SVGID_3_"  style="overflow:visible;"/>
	</clipPath>
	<g style="clip-path:url(#SVGID_4_);">
		<g>
			<path style="fill:none;stroke:#313A54;stroke-width:0.5;" d="M49.7,6.3l0.1,587.3"/>
			<g>
				<path style="fill:none;stroke:#313A54;stroke-width:0.25;" d="M1121.9,42.4v551.1"/>
				<g>
					<path style="fill:none;stroke:#313A54;stroke-width:0.25;stroke-miterlimit:10;" d="M1024.4,42.4v551.1 M926.9,42.4v551.1"/>
				</g>
				<path style="fill:none;stroke:#313A54;stroke-width:0.25;" d="M732,42.4v551.1 M634.5,42.4v551.1"/>
				<path style="fill:none;stroke:#313A54;stroke-width:0.25;stroke-miterlimit:10;" d="M537.1,42.4v551.1"/>
				<path style="fill:none;stroke:#313A54;stroke-width:0.25;" d="M342.1,42.4v551.1 M244.7,42.4v551.1 M147.2,42.4v551.1"/>
			</g>
			<g>
				<path style="fill:none;stroke:#313A54;stroke-width:0.5;" d="M1219.7,6.3v587.3 M829.7,6.3v3"/>
				<path style="fill:none;stroke:#313A54;stroke-width:0.5;stroke-dasharray:5.9927,5.9927;" d="M829.7,15.3v572.3"/>
				<path style="fill:none;stroke:#313A54;stroke-width:0.5;" d="M829.7,590.6v3 M439.7,6.2v3"/>
				<path style="fill:none;stroke:#313A54;stroke-width:0.5;stroke-dasharray:5.9927,5.9927;" d="M439.7,15.2v572.3"/>
				<path style="fill:none;stroke:#313A54;stroke-width:0.5;" d="M439.7,590.5v3"/>
			</g>
		</g>
		<path style="fill:#181E30;" d="M1120.3,386H-533.8c-0.9,0-1.6-0.7-1.6-1.6c0,0,0,0,0,0v-28.8c0-0.9,0.7-1.6,1.6-1.6c0,0,0,0,0,0
			h1654.1c0.9,0,1.6,0.7,1.6,1.6c0,0,0,0,0,0v28.8C1121.9,385.3,1121.2,386,1120.3,386C1120.3,386,1120.3,386,1120.3,386z"/>
		<text transform="matrix(1 0 0 1 71.815 19.049)" style="fill:#62697D; font-family:'BebasNeuePro'; font-size:18px;">Month 4</text>
		<text transform="matrix(1 0 0 1 460.512 19.049)" style="fill:#62697D; font-family:'BebasNeuePro'; font-size:18px;">Month 5</text>
		<text transform="matrix(1 0 0 1 849.3521 19.049)" style="fill:#62697D; font-family:'BebasNeuePro'; font-size:18px;">Month 6</text>
		<path style="fill:#181E30;" d="M1120.3,450.1H-533.8c-0.9,0-1.6-0.7-1.6-1.6c0,0,0,0,0,0v-28.8c0-0.9,0.7-1.6,1.6-1.6c0,0,0,0,0,0
			h1654.1c0.9,0,1.6,0.7,1.6,1.6c0,0,0,0,0,0v28.8C1121.9,449.3,1121.2,450.1,1120.3,450.1z"/>
		<path style="fill:#FF5A3C;" d="M1900.3,282H-436.2c-0.9,0-1.7-0.8-1.7-1.7v-28.6c0-0.9,0.8-1.7,1.7-1.7h2336.6
			c0.9,0,1.7,0.8,1.7,1.7v28.6C1902,281.2,1901.3,282,1900.3,282z"/>
		<g>
			<path style="fill:#98B0CD;" d="M633.3,494.1H-729c-0.7,0-1.3-0.6-1.3-1.3v-29.4c0-0.7,0.6-1.3,1.3-1.3H633.3
				c0.7,0,1.3,0.6,1.3,1.3v29.4C634.5,493.5,634,494.1,633.3,494.1z M2290.5,494.1H733.4c-0.8,0-1.4-0.6-1.4-1.4v-29.2
				c0-0.8,0.6-1.4,1.4-1.4h1557.1c0.8,0,1.4,0.6,1.4,1.4v29.2C2291.9,493.4,2291.3,494.1,2290.5,494.1z"/>
		</g>
		<text transform="matrix(1 0 0 1 751.031 482.693)" style="fill:#FFFFFF; font-family:'Gotham'; font-size:14px;">Upload brand data, E2E Test</text>
		<path style="fill:#6E6EFF;" d="M1510.6,150H51.3c-0.8,0-1.5-0.7-1.5-1.5v-29c0-0.8,0.7-1.5,1.5-1.5h1459.4c0.8,0,1.5,0.7,1.5,1.5
			v29C1512.1,149.3,1511.5,150,1510.6,150L1510.6,150z"/>
		<text transform="matrix(1 0 0 1 71.815 138.303)" style="fill:#FFFFFF; font-family:'Gotham'; font-size:14px;">Integrate PMS / HMS IoT</text>
		<path style="fill:#6E6EFF;" d="M1900.7,194H831c-0.7,0-1.3-0.6-1.3-1.3v-29.4c0-0.7,0.6-1.3,1.3-1.3h1069.7c0.7,0,1.3,0.6,1.3,1.3
			v29.4C1902,193.4,1901.4,194,1900.7,194z"/>
		<text transform="matrix(1 0 0 1 848.436 182.302)" style="fill:#FFFFFF; font-family:'Gotham'; font-size:14px;">Enhance Concierge</text>
		<path style="fill:#FF5A3C;" d="M2679.8,342H1026.4c-1.1,0-2-0.9-2-2v-44c0-1.1,0.9-2,2-2h1653.4c1.1,0,2,0.9,2,2v44
			C2681.7,341.1,2680.9,342,2679.8,342z"/>
		<text transform="matrix(1 0 0 1 1043.104 315.312)" style="fill:#FFFFFF; font-family:'Gotham'; font-size:14px;">AI Chatbot NLP </text>
		<text transform="matrix(1 0 0 1 1043.104 331.312)" style="fill:#FFFFFF; font-family:'Gotham'; font-size:14px;">integration</text>
		<text transform="matrix(1 0 0 1 71.814 270.237)" style="fill:#FFFFFF; font-family:'Gotham'; font-size:14px;">IoT integration</text>
		<text transform="matrix(1 0 0 1 71.814 374.581)" style="fill:#FFFFFF; font-family:'Gotham'; font-size:14px;">Booking engine development</text>
		<text transform="matrix(1 0 0 1 71.814 439.066)" style="fill:#FFFFFF; font-family:'Gotham'; font-size:14px;">Pricing Engine development</text>
		<text transform="matrix(1 0 0 1 71.815 482.693)" style="fill:#FFFFFF; font-family:'Gotham'; font-size:14px;">Analytics engine development</text>
	</g>
</g>
</svg>
