<svg xmlns="http://www.w3.org/2000/svg" xmlns:xlink="http://www.w3.org/1999/xlink" x="0px" y="0px"
	 viewBox="0 0 1270 600" style="enable-background:new 0 0 1270 600;" xml:space="preserve">
<g>
	<defs>
		<rect id="SVGID_7_" width="1270" height="600"/>
	</defs>
	<clipPath id="SVGID_8_">
		<use xlink:href="#SVGID_7_"  style="overflow:visible;"/>
	</clipPath>
	<g style="clip-path:url(#SVGID_8_);">
		<g>
			<path style="fill:none;stroke:#313A54;stroke-width:0.5;" d="M49.7,6.3v587.3"/>
			<g>
				<path style="fill:none;stroke:#313A54;stroke-width:0.25;" d="M1121.9,42.4v551.1"/>
				<g>
					<path style="fill:none;stroke:#313A54;stroke-width:0.25;stroke-miterlimit:10;" d="M1024.4,42.4v551.1 M926.9,42.4v551.1"/>
				</g>
				<path style="fill:none;stroke:#313A54;stroke-width:0.25;" d="M732,42.4v551.1 M634.5,42.4v551.1"/>
				<path style="fill:none;stroke:#313A54;stroke-width:0.25;stroke-miterlimit:10;" d="M537.1,42.4v551.1"/>
				<path style="fill:none;stroke:#313A54;stroke-width:0.25;" d="M342.1,42.4v551.1 M244.7,42.4v551.1 M147.2,42.4v551.1"/>
			</g>
			<g>
				<path style="fill:none;stroke:#313A54;stroke-width:0.5;" d="M1219.7,6.3v587.3 M829.7,6.3v3"/>
				<path style="fill:none;stroke:#313A54;stroke-width:0.5;stroke-dasharray:5.9927,5.9927;" d="M829.7,15.3v572.3"/>
				<path style="fill:none;stroke:#313A54;stroke-width:0.5;" d="M829.7,590.6v3 M439.7,6.2v3"/>
				<path style="fill:none;stroke:#313A54;stroke-width:0.5;stroke-dasharray:5.9927,5.9927;" d="M439.7,15.2v572.3"/>
				<path style="fill:none;stroke:#313A54;stroke-width:0.5;" d="M439.7,590.5v3"/>
			</g>
		</g>
		<text transform="matrix(1 0 0 1 66.187 19.049)" style="fill:#62697D; font-family:'BebasNeuePro'; font-size:18px;">Month 10</text>
		<text transform="matrix(1 0 0 1 454.885 19.049)" style="fill:#62697D; font-family:'BebasNeuePro'; font-size:18px;">Month 11</text>
		<text transform="matrix(1 0 0 1 843.724 19.049)" style="fill:#62697D; font-family:'BebasNeuePro'; font-size:18px;">Month 12</text>
		<path style="fill:#181E30;" d="M145.8,386h-1264.7c-0.8,0-1.4-0.6-1.4-1.4v-29.2c0-0.8,0.6-1.4,1.4-1.4H145.8
			c0.8,0,1.4,0.6,1.4,1.4v29.2C147.2,385.4,146.6,386,145.8,386z"/>
		<text transform="matrix(1 0 0 1 166.011 374.581)" style="fill:#181E30; font-family:'Gotham'; font-size:14px;">Integrate with AI chatbot and end to end testing</text>
		<path style="fill:#181E30;" d="M1120.7,450.1H245.8c-0.6,0-1.2-0.5-1.2-1.2v-29.7c0-0.6,0.5-1.2,1.2-1.2h874.8
			c0.6,0,1.2,0.5,1.2,1.2v29.7C1121.9,449.5,1121.3,450.1,1120.7,450.1z"/>
		<text transform="matrix(1 0 0 1 271.694 438.59)" style="fill:#FFFFFF; font-family:'Gotham'; font-size:14px;">Stabilize platform – Steady State Phase 1</text>
		<path style="fill:#FF5A3C;" d="M536.1,282H148.2c-0.5,0-1-0.4-1-1v-30c0-0.5,0.4-1,1-1h387.9c0.5,0,1,0.4,1,1v30
			C537.1,281.5,536.6,282,536.1,282z"/>
		<text transform="matrix(1 0 0 1 166.57 270.237)" style="fill:#FFFFFF; font-family:'Gotham'; font-size:14px;">Enhanced capabilities</text>
		<path style="fill:#FF5A3C;" d="M1120.8,282H635.6c-0.6,0-1.1-0.5-1.1-1.1v-29.8c0-0.6,0.5-1.1,1.1-1.1h485.1
			c0.6,0,1.1,0.5,1.1,1.1v29.8C1121.9,281.5,1121.4,282,1120.8,282L1120.8,282z"/>
		<text transform="matrix(1 0 0 1 653.897 270.237)" style="fill:#FFFFFF; font-family:'Gotham'; font-size:14px;">Stabilize platform – Steady State Phase 1</text>
		<path style="fill:#98B0CD;" d="M536.4,494.1H147.7c-0.4,0-0.7-0.3-0.7-0.7c0,0,0,0,0,0v-30.6c0-0.4,0.3-0.7,0.7-0.7c0,0,0,0,0,0
			h388.7c0.4,0,0.7,0.3,0.7,0.7c0,0,0,0,0,0v30.6C537.1,493.7,536.8,494.1,536.4,494.1z"/>
		<text transform="matrix(1 0 0 1 166.011 482.693)" style="fill:#FFFFFF; font-family:'Gotham'; font-size:14px;">Enhanced capabilities</text>
		<path style="fill:#98B0CD;" d="M1121.1,494.1H635.3c-0.4,0-0.8-0.3-0.8-0.8v-30.5c0-0.4,0.3-0.8,0.8-0.8h485.8
			c0.4,0,0.8,0.3,0.8,0.8v30.5C1121.9,493.7,1121.5,494.1,1121.1,494.1z"/>
		<text transform="matrix(1 0 0 1 653.527 482.693)" style="fill:#FFFFFF; font-family:'Gotham'; font-size:14px;">Stabilize platform – Steady State Phase 1</text>
		<path style="fill:#98B0CD;" d="M438.3,538.1h-1557.1c-0.8,0-1.4-0.6-1.4-1.4v-29.2c0-0.8,0.6-1.4,1.4-1.4H438.3
			c0.8,0,1.4,0.6,1.4,1.4v29.2C439.6,537.4,439,538.1,438.3,538.1z"/>
		<path style="fill:#6E6EFF;" d="M1120.8,150h-680c-0.6,0-1-0.5-1-1v-30c0-0.6,0.5-1,1-1h680c0.6,0,1,0.5,1,1v29.9
			C1121.9,149.5,1121.4,150,1120.8,150z"/>
		<text transform="matrix(1 0 0 1 458.5 138.303)" style="fill:#FFFFFF; font-family:'Gotham'; font-size:14px;">Stabilize platform – Steady State Phase 1</text>
		<path style="fill:#6E6EFF;" d="M535.5,238h-1654.1c-0.9,0-1.6-0.7-1.6-1.6c0,0,0,0,0,0v-28.8c0-0.9,0.7-1.6,1.6-1.6c0,0,0,0,0,0
			H535.5c0.9,0,1.6,0.7,1.6,1.6c0,0,0,0,0,0v28.8C537.1,237.3,536.3,238,535.5,238z"/>
		<path style="fill:#FF5A3C;" d="M339.8,342h-1653.4c-1.1,0-2-0.9-2-2v-44c0-1.1,0.9-2,2-2H339.8c1.1,0,2,0.9,2,2v44
			C341.7,341.1,340.9,342,339.8,342z"/>
		<g>
			<path id="B" style="fill:#6E6EFF;" d="M1121.7,150h-3.9v-32h4.4l97.2,15.4c0.3,0,0.5,0.2,0.5,0.5s-0.2,0.5-0.5,0.5l-97.2,15.4
				C1122,150,1121.8,150,1121.7,150L1121.7,150z"/>
		</g>
		<path style="fill:#FF5A3C;" d="M1121.7,282h-3.9v-32h4.4l97.2,15.4c0.3,0,0.5,0.2,0.5,0.5s-0.2,0.5-0.5,0.5l-97.2,15.4
			C1122,282,1121.8,282,1121.7,282z"/>
		<g>
			<path id="C" style="fill:#181E30;" d="M1121.7,450.1h-3.9v-32h4.4l97.2,15.4c0.3,0,0.5,0.2,0.5,0.5s-0.2,0.5-0.5,0.5l-97.2,15.4
				C1122,450,1121.8,450.1,1121.7,450.1z"/>
		</g>
		<path style="fill:#98B0CD;" d="M1121.7,494.1h-3.9v-32h4.4l97.2,15.4c0.3,0,0.5,0.2,0.5,0.5s-0.2,0.5-0.5,0.5l-97.2,15.4
			C1122,494,1121.8,494.1,1121.7,494.1z"/>
		<g>
			<path style="fill:none;stroke:#181E30;stroke-miterlimit:10;" d="M160.1,370h-12.9"/>
			<path style="fill:none;stroke:#FFFFFF;stroke-miterlimit:10;" d="M147.2,370h-12.8"/>
		</g>
		<text transform="matrix(1 0 0 1 66.187 323.38)" style="fill:#FFFFFF; font-family:'Gotham'; font-size:14px;">AI Chatbot NLP integration</text>
		<text transform="matrix(1 0 0 1 66.187 226.302)" style="fill:#FFFFFF; font-family:'Gotham'; font-size:14px;">Enhance HMS functionality</text>
		<text transform="matrix(1 0 0 1 66.187 526.693)" style="fill:#FFFFFF; font-family:'Gotham'; font-size:14px;">Data Analytics, Insights</text>
	</g>
</g>
</svg>
