<svg xmlns="http://www.w3.org/2000/svg" xmlns:xlink="http://www.w3.org/1999/xlink" x="0px" y="0px"
	 viewBox="0 0 1270 600" style="enable-background:new 0 0 1270 600;" xml:space="preserve">
<g>
	<defs>
		<rect id="SVGID_9_" width="1270" height="600"/>
	</defs>
	<clipPath id="SVGID_10_">
		<use xlink:href="#SVGID_9_"  style="overflow:visible;"/>
	</clipPath>
	<g style="clip-path:url(#SVGID_10_);">
		<g>
			<g>
				<path style="fill:none;stroke:#313A54;stroke-width:0.25;" d="M1121.9,42.4v551.1"/>
				<g>
					<path style="fill:none;stroke:#313A54;stroke-width:0.25;stroke-miterlimit:10;" d="M1024.4,42.4v551.1 M927,42.4v551.1"/>
				</g>
				<path style="fill:none;stroke:#313A54;stroke-width:0.25;" d="M732,42.4v551.1 M634.6,42.4v551.1"/>
				<path style="fill:none;stroke:#313A54;stroke-width:0.25;stroke-miterlimit:10;" d="M537.1,42.4v551.1"/>
				<path style="fill:none;stroke:#313A54;stroke-width:0.25;" d="M342.2,42.4v551.1 M244.7,42.4v551.1 M147.2,42.4v551.1"/>
			</g>
			<g>
				<path style="fill:none;stroke:#313A54;stroke-width:0.5;" d="M1219.8,6.3v587.3 M829.8,6.3v3"/>
				<path style="fill:none;stroke:#313A54;stroke-width:0.5;stroke-dasharray:5.9927,5.9927;" d="M829.8,15.3v572.3"/>
				<path style="fill:none;stroke:#313A54;stroke-width:0.5;" d="M829.8,590.6v3 M439.8,6.2v3"/>
				<path style="fill:none;stroke:#313A54;stroke-width:0.5;stroke-dasharray:5.9927,5.9927;" d="M439.8,15.2v572.3"/>
				<path style="fill:none;stroke:#313A54;stroke-width:0.5;" d="M439.8,590.5v3 M49.8,6.2v587.3"/>
			</g>
		</g>
		<text transform="matrix(1 0 0 1 69.126 19.049)" style="fill:#62697D; font-family:'BebasNeuePro'; font-size:18px;">Month 13</text>
		<text transform="matrix(1 0 0 1 458.607 19.049)" style="fill:#62697D; font-family:'BebasNeuePro'; font-size:18px;">Month 14</text>
		<text transform="matrix(1 0 0 1 847.447 19.049)" style="fill:#62697D; font-family:'BebasNeuePro'; font-size:18px;">Month 15</text>
		<path style="fill:#6E6EFF;" d="M730.4,106H51.3c-0.9,0-1.6-0.7-1.6-1.6c0,0,0,0,0,0V75.5c0-0.9,0.7-1.6,1.6-1.6c0,0,0,0,0,0h679.1
			c0.9,0,1.6,0.7,1.6,1.6c0,0,0,0,0,0v28.8C732,105.2,731.3,106,730.4,106L730.4,106z"/>
		<text transform="matrix(1 0 0 1 69.126 94.087)" style="fill:#FFFFFF; font-family:'Gotham'; font-size:14px;">Text and Voice driven booking</text>
		<path style="fill:#6E6EFF;" d="M1510.4,106H831.3c-0.9,0-1.6-0.7-1.6-1.6c0,0,0,0,0,0V75.5c0-0.9,0.7-1.6,1.6-1.6c0,0,0,0,0,0
			h679.1c0.9,0,1.6,0.7,1.6,1.6c0,0,0,0,0,0v28.8C1512,105.2,1511.3,106,1510.4,106L1510.4,106z"/>
		<text transform="matrix(1 0 0 1 847.447 94.087)" style="fill:#FFFFFF; font-family:'Gotham'; font-size:14px;">Text and Voice driven ordering</text>
		<path style="fill:#FF5A3C;" d="M3069.3,238H52.5c-1.5,0-2.7-1.2-2.7-2.7c0,0,0,0,0,0v-26.6c0-1.5,1.2-2.7,2.7-2.7c0,0,0,0,0,0
			h3016.8c1.5,0,2.7,1.2,2.7,2.7c0,0,0,0,0,0v26.6C3072,236.7,3070.8,238,3069.3,238z"/>
		<text transform="matrix(1 0 0 1 69.126 226.219)" style="fill:#FFFFFF; font-family:'Gotham'; font-size:14px;">IoT enhancement</text>
		<path style="fill:#FF5A3C;" d="M341.3,281.9H50.6c-0.5,0-0.8-0.4-0.8-0.8v-30.3c0-0.5,0.4-0.8,0.8-0.8h290.7
			c0.5,0,0.8,0.4,0.8,0.8V281C342.2,281.5,341.8,281.9,341.3,281.9L341.3,281.9z"/>
		<text transform="matrix(1 0 0 1 69.126 270.149)" style="fill:#FFFFFF; font-family:'Gotham'; font-size:14px;">Architect for futuristic IoT</text>
		<path style="fill:#FF5A3C;" d="M2289.8,281.9h-1848c-1.2,0-2.1-1-2.1-2.1V252c0-1.2,1-2.1,2.1-2.1h1848c1.2,0,2.1,1,2.1,2.1v27.8
			C2291.9,280.9,2290.9,281.9,2289.8,281.9z"/>
		<text transform="matrix(1 0 0 1 458.607 270.149)" style="fill:#FFFFFF; font-family:'Gotham'; font-size:14px;">Futuristic IoT development</text>
		<path style="fill:#181E30;" d="M4238.8,369.9H53c-1.8,0-3.2-1.4-3.2-3.2v-25.6c0-1.8,1.4-3.2,3.2-3.2h4185.9
			c1.8,0,3.2,1.4,3.2,3.2v25.6C4242,368.5,4240.6,369.9,4238.8,369.9L4238.8,369.9z"/>
		<text transform="matrix(1 0 0 1 69.126 358.149)" style="fill:#FFFFFF; font-family:'Gotham'; font-size:14px;">Omni-channel booking and pricing</text>
		<path style="fill:#181E30;" d="M3459,413.9H52.7c-1.6,0-2.9-1.3-2.9-2.9v-26.2c0-1.6,1.3-2.9,2.9-2.9H3459c1.6,0,2.9,1.3,2.9,2.9
			V411C3461.9,412.6,3460.6,413.9,3459,413.9z"/>
		<text transform="matrix(1 0 0 1 69.126 402.149)" style="fill:#FFFFFF; font-family:'Gotham'; font-size:14px;">Core HMS / PMS functionality enhancements</text>
		<path style="fill:#181E30;" d="M1899.9,457.9H51.9c-1.2,0-2.1-1-2.1-2.1V428c0-1.2,1-2.1,2.1-2.1h1848c1.2,0,2.1,1,2.1,2.1v27.8
			C1902,456.9,1901.1,457.9,1899.9,457.9z"/>
		<text transform="matrix(1 0 0 1 69.126 446.149)" style="fill:#FFFFFF; font-family:'Gotham'; font-size:14px;">Airlines booking integration</text>
		<path style="fill:#181E30;" d="M1899.9,501.9H51.9c-1.2,0-2.1-1-2.1-2.1V472c0-1.2,1-2.1,2.1-2.1h1848c1.2,0,2.1,1,2.1,2.1v27.8
			C1902,500.9,1901.1,501.9,1899.9,501.9z"/>
		<text transform="matrix(1 0 0 1 69.126 490.149)" style="fill:#FFFFFF; font-family:'Gotham'; font-size:14px;">Rental Car / Vac integration</text>
		<path style="fill:#98B0CD;" d="M341.1,561.9H50.8c-0.6,0-1-0.5-1-1V515c0-0.6,0.5-1,1-1h290.3c0.6,0,1,0.5,1,1v45.9
			C342.2,561.4,341.7,561.9,341.1,561.9L341.1,561.9z"/>
		<text transform="matrix(1 0 0 1 69.126 534.149)" style="fill:#FFFFFF; font-family:'Gotham'; font-size:14px;">Additional analytics use cases </text>
		<text transform="matrix(1 0 0 1 69.126 550.149)" style="fill:#FFFFFF; font-family:'Gotham'; font-size:14px;">definition</text>
		<path style="fill:#98B0CD;" d="M2094.5,561.9H442.1c-1.4,0-2.5-1.1-2.5-2.5v-43.1c0-1.4,1.1-2.5,2.5-2.5h1652.4
			c1.4,0,2.5,1.1,2.5,2.5v43.1C2096.9,560.8,2095.8,561.9,2094.5,561.9z"/>
		<text transform="matrix(1 0 0 1 458.607 541.94)" style="fill:#FFFFFF; font-family:'Gotham'; font-size:14px;">Analytics development</text>
	</g>
</g>
</svg>
