<svg xmlns="http://www.w3.org/2000/svg" xmlns:xlink="http://www.w3.org/1999/xlink" x="0px" y="0px"
	 viewBox="0 0 1270 600" style="enable-background:new 0 0 1270 600;" xml:space="preserve">
<g>
	<defs>
		<rect id="SVGID_1_" width="1270" height="600"/>
	</defs>
	<clipPath id="SVGID_2_">
		<use xlink:href="#SVGID_1_"  style="overflow:visible;"/>
	</clipPath>
	<g style="clip-path:url(#SVGID_2_);">
		<g>
			<g>
				<path style="fill:none;stroke:#313A54;stroke-width:0.25;" d="M1121.9,42.4v551.1"/>
				<g>
					<path style="fill:none;stroke:#313A54;stroke-width:0.25;stroke-miterlimit:10;" d="M1024.4,42.4v551.1 M927,42.4v551.1"/>
				</g>
				<path style="fill:none;stroke:#313A54;stroke-width:0.25;" d="M732,42.4v551.1 M634.6,42.4v551.1"/>
				<path style="fill:none;stroke:#313A54;stroke-width:0.25;stroke-miterlimit:10;" d="M537.1,42.4v551.1"/>
				<path style="fill:none;stroke:#313A54;stroke-width:0.25;" d="M342.2,42.4v551.1 M244.7,42.4v551.1 M147.2,42.4v551.1"/>
			</g>
			<g>
				<path style="fill:none;stroke:#313A54;stroke-width:0.5;" d="M1219.8,6.3v587.3 M829.8,6.3v3"/>
				<path style="fill:none;stroke:#313A54;stroke-width:0.5;stroke-dasharray:5.9927,5.9927;" d="M829.8,15.3v572.3"/>
				<path style="fill:none;stroke:#313A54;stroke-width:0.5;" d="M829.8,590.6v3 M439.8,6.2v3"/>
				<path style="fill:none;stroke:#313A54;stroke-width:0.5;stroke-dasharray:5.9927,5.9927;" d="M439.8,15.2v572.3"/>
				<path style="fill:none;stroke:#313A54;stroke-width:0.5;" d="M439.8,590.5v3 M49.8,6.2v587.3"/>
			</g>
		</g>
		<g>
			<path style="fill:#181E30;" d="M2290.3,386H636.2c-0.9,0-1.6-0.7-1.6-1.6c0,0,0,0,0,0v-28.8c0-0.9,0.7-1.6,1.6-1.6c0,0,0,0,0,0
				h1654.1c0.9,0,1.6,0.7,1.6,1.6c0,0,0,0,0,0v28.8C2291.9,385.3,2291.2,386,2290.3,386C2290.3,386,2290.3,386,2290.3,386z
				 M633.6,354H50.8c-0.6,0-1-0.5-1-1v-29.9c0-0.6,0.5-1,1-1h582.8c0.6,0,1,0.5,1,1V353C634.6,353.6,634.1,354,633.6,354z"/>
		</g>
		<g>
			<path style="fill:#6E6EFF;" d="M341.1,150H50.8c-0.6,0-1-0.5-1-1v-30c0-0.6,0.5-1,1-1h290.3c0.6,0,1,0.5,1,1v29.9
				C342.2,149.5,341.7,150,341.1,150L341.1,150z M1120.9,150h-680c-0.6,0-1-0.5-1-1v-30c0-0.6,0.5-1,1-1h679.9c0.6,0,1,0.5,1,1v29.9
				C1121.9,149.5,1121.4,150,1120.9,150z"/>
		</g>
		<text transform="matrix(1 0 0 1 69.91 19.049)" style="fill:#62697D; font-family:'BebasNeuePro'; font-size:18px;">Month 1</text>
		<text transform="matrix(1 0 0 1 458.607 19.049)" style="fill:#62697D; font-family:'BebasNeuePro'; font-size:18px;">Month 2</text>
		<text transform="matrix(1 0 0 1 847.447 19.049)" style="fill:#62697D; font-family:'BebasNeuePro'; font-size:18px;">Month 3</text>
		<text transform="matrix(1 0 0 1 69.912 138.105)" style="fill:#FFFFFF; font-family:'Gotham'; font-size:14px;">Chatbot with NLP integration</text>
		<text transform="matrix(1 0 0 1 69.126 342.678)" style="fill:#FFFFFF; font-family:'Gotham'; font-size:14px;">Omni-channel booking engine design</text>
		<text transform="matrix(1 0 0 1 655.121 374.581)" style="fill:#FFFFFF; font-family:'Gotham'; font-size:14px;">Booking engine development</text>
		<g>
			<path style="fill:#181E30;" d="M2290.3,450.1H636.2c-0.9,0-1.6-0.7-1.6-1.6c0,0,0,0,0,0v-28.8c0-0.9,0.7-1.6,1.6-1.6c0,0,0,0,0,0
				h1654.1c0.9,0,1.6,0.7,1.6,1.6c0,0,0,0,0,0v28.8C2291.9,449.3,2291.2,450.1,2290.3,450.1z M633.6,418.1H50.8c-0.6,0-1-0.5-1-1
				v-29.9c0-0.6,0.5-1,1-1h582.8c0.6,0,1,0.5,1,1V417C634.6,417.6,634.2,418.1,633.6,418.1L633.6,418.1z"/>
		</g>
		<text transform="matrix(1 0 0 1 69.156 406.806)" style="fill:#FFFFFF; font-family:'Gotham'; font-size:14px;">Dynamic Pricing Engine</text>
		<text transform="matrix(1 0 0 1 654.929 439.066)" style="fill:#FFFFFF; font-family:'Gotham'; font-size:14px;">Pricing Engine development</text>
		<text transform="matrix(1 0 0 1 458.61 138.303)" style="fill:#FFFFFF; font-family:'Gotham'; font-size:14px;">Chatbot Development</text>
		<g>
			<path style="fill:#FF5A3C;" d="M341.4,282H50.6c-0.5,0-0.8-0.4-0.8-0.8v-30.3c0-0.5,0.4-0.8,0.8-0.8h290.8c0.5,0,0.8,0.4,0.8,0.8
				v30.3C342.2,281.6,341.8,282,341.4,282z M633.6,282H440.7c-0.6,0-1-0.5-1-1v-46c0-0.6,0.5-1,1-1h192.9c0.6,0,1,0.5,1,1v45.9
				C634.6,281.5,634.1,282,633.6,282z M3070.3,282H733.8c-0.9,0-1.7-0.8-1.7-1.7v-28.6c0-0.9,0.8-1.7,1.7-1.7h2336.6
				c0.9,0,1.7,0.8,1.7,1.7v28.6C3072,281.2,3071.3,282,3070.3,282L3070.3,282z"/>
		</g>
		<text transform="matrix(1 0 0 1 69.126 270.237)" style="fill:#FFFFFF; font-family:'Gotham'; font-size:14px;">IoT design</text>
		<text transform="matrix(1 0 0 1 754.13 270.237)" style="fill:#FFFFFF; font-family:'Gotham'; font-size:14px;">IoT integration</text>
		<text transform="matrix(1 0 0 1 458.61 255.444)" style="fill:#FFFFFF; font-family:'Gotham'; font-size:14px;">Define process and </text>
		<text transform="matrix(1 0 0 1 458.61 271.444)" style="fill:#FFFFFF; font-family:'Gotham'; font-size:14px;">workflows</text>
		<g>
			<path style="fill:#98B0CD;" d="M341.4,494.1H51.1c-0.7,0-1.3-0.6-1.3-1.3v-45.3c0-0.7,0.6-1.3,1.3-1.3h290.3
				c0.7,0,1.3,0.6,1.3,1.3v45.3C342.7,493.5,342.1,494.1,341.4,494.1z M1803.3,494.1H441c-0.7,0-1.3-0.6-1.3-1.3v-29.4
				c0-0.7,0.6-1.3,1.3-1.3h1362.2c0.7,0,1.3,0.6,1.3,1.3v29.4C1804.6,493.5,1804,494.1,1803.3,494.1z"/>
		</g>
		<text transform="matrix(1 0 0 1 69.227 467.609)" style="fill:#FFFFFF; font-family:'Gotham'; font-size:14px;">Analytics design and use case </text>
		<text transform="matrix(1 0 0 1 69.227 483.609)" style="fill:#FFFFFF; font-family:'Gotham'; font-size:14px;">definition</text>
		<text transform="matrix(1 0 0 1 458.712 482.693)" style="fill:#FFFFFF; font-family:'Gotham'; font-size:14px;">Analytics engine development</text>
	</g>
</g>
</svg>
