<svg xmlns="http://www.w3.org/2000/svg" xmlns:xlink="http://www.w3.org/1999/xlink" x="0px" y="0px"
	 viewBox="0 0 1270 600" style="enable-background:new 0 0 1270 600;" xml:space="preserve">
<g>
	<defs>
		<rect id="SVGID_13_" width="1270" height="600"/>
	</defs>
	<clipPath id="SVGID_14_">
		<use xlink:href="#SVGID_13_"  style="overflow:visible;"/>
	</clipPath>
	<g style="clip-path:url(#SVGID_14_);">
		<g>
			<path style="fill:none;stroke:#313A54;stroke-width:0.5;" d="M49.7,6.3l0.1,587.3"/>
			<g>
				<path style="fill:none;stroke:#313A54;stroke-width:0.25;" d="M1121.9,42.4v551.1"/>
				<g>
					<path style="fill:none;stroke:#313A54;stroke-width:0.25;stroke-miterlimit:10;" d="M1024.4,42.4v551.1 M926.9,42.4v551.1"/>
				</g>
				<path style="fill:none;stroke:#313A54;stroke-width:0.25;" d="M732,42.4v551.1 M634.5,42.4v551.1"/>
				<path style="fill:none;stroke:#313A54;stroke-width:0.25;stroke-miterlimit:10;" d="M537.1,42.4v551.1"/>
				<path style="fill:none;stroke:#313A54;stroke-width:0.25;" d="M342.1,42.4v551.1 M244.7,42.4v551.1 M147.2,42.4v551.1"/>
			</g>
			<g>
				<path style="fill:none;stroke:#313A54;stroke-width:0.5;" d="M1219.7,6.3v587.3 M829.7,6.3v3"/>
				<path style="fill:none;stroke:#313A54;stroke-width:0.5;stroke-dasharray:5.9927,5.9927;" d="M829.7,15.3v572.3"/>
				<path style="fill:none;stroke:#313A54;stroke-width:0.5;" d="M829.7,590.6v3 M439.7,6.2v3"/>
				<path style="fill:none;stroke:#313A54;stroke-width:0.5;stroke-dasharray:5.9927,5.9927;" d="M439.7,15.2v572.3"/>
				<path style="fill:none;stroke:#313A54;stroke-width:0.5;" d="M439.7,590.5v3"/>
			</g>
		</g>
		<text transform="matrix(1 0 0 1 68.209 19.049)" style="fill:#62697D; font-family:'BebasNeuePro'; font-size:18px;">Month 19</text>
		<text transform="matrix(1 0 0 1 456.907 19.049)" style="fill:#62697D; font-family:'BebasNeuePro'; font-size:18px;">Month 20</text>
		<text transform="matrix(1 0 0 1 845.7471 19.049)" style="fill:#62697D; font-family:'BebasNeuePro'; font-size:18px;">Month 21</text>
		<g>
			<g>
				<path id="B" style="fill:#6E6EFF;" d="M1509.6,150H-337.6c-1.4,0-2.6-1.2-2.6-2.6v-26.8c0-1.4,1.2-2.6,2.6-2.6h1847.2
					c1.4,0,2.6,1.2,2.6,2.6v26.8C1512.2,148.8,1511,150,1509.6,150z"/>
			</g>
			<path style="fill:#6E6EFF;" d="M1509.6,194H-337.6c-1.4,0-2.6-1.2-2.6-2.6v-26.8c0-1.4,1.2-2.6,2.6-2.6h1847.2
				c1.4,0,2.6,1.2,2.6,2.6v26.8C1512.2,192.8,1511,194,1509.6,194z M2288.6,106H-726.9c-1.8,0-3.3-1.5-3.3-3.3V77.3
				c0-1.8,1.5-3.3,3.3-3.3h3015.5c1.8,0,3.3,1.5,3.3,3.3v25.4C2291.9,104.5,2290.4,106,2288.6,106z"/>
		</g>
		<g>
			<path style="fill:#FF5A3C;" d="M729.3,238h-3016.8c-1.5,0-2.7-1.2-2.7-2.7c0,0,0,0,0,0v-26.6c0-1.5,1.2-2.7,2.7-2.7c0,0,0,0,0,0
				H729.3c1.5,0,2.7,1.2,2.7,2.7c0,0,0,0,0,0v26.6C732,236.7,730.8,238,729.3,238z M1510.3,281.9H51.6c-1,0-1.9-0.8-1.9-1.9v-28.2
				c0-1,0.8-1.9,1.9-1.9h1458.6c1,0,1.9,0.8,1.9,1.9V280C1512.2,281,1511.3,281.9,1510.3,281.9L1510.3,281.9z"/>
		</g>
		<text transform="matrix(1 0 0 1 68.209 270.149)" style="fill:#FFFFFF; font-family:'Gotham'; font-size:14px;">AI Chatbot NLP integration</text>
		<path style="fill:#FF5A3C;" d="M2289.7,325.9H441.9c-1.2,0-2.1-1-2.1-2.1V296c0-1.2,1-2.1,2.1-2.1h1847.9c1.2,0,2.1,1,2.1,2.1
			v27.8C2291.9,324.9,2290.9,325.9,2289.7,325.9L2289.7,325.9z"/>
		<text transform="matrix(1 0 0 1 459.109 314.149)" style="fill:#FFFFFF; font-family:'Gotham'; font-size:14px;">Stabilize platform – Steady State Phase 2</text>
		<path style="fill:#98B0CD;" d="M1510.5,501.9H441.4c-0.9,0-1.6-0.7-1.6-1.6c0,0,0,0,0,0v-28.8c0-0.9,0.7-1.6,1.6-1.6c0,0,0,0,0,0
			h1069.2c0.9,0,1.6,0.7,1.6,1.6c0,0,0,0,0,0v28.8C1512.2,501.2,1511.4,501.9,1510.5,501.9z"/>
		<text transform="matrix(1 0 0 1 459.109 490.149)" style="fill:#FFFFFF; font-family:'Gotham'; font-size:14px;">Enhanced capabilities</text>
		<g>
			<path style="fill:#181E30;" d="M1898.8,369.9H-2287c-1.8,0-3.2-1.4-3.2-3.2v-25.6c0-1.8,1.4-3.2,3.2-3.2h4185.9
				c1.8,0,3.2,1.4,3.2,3.2v25.6C1902,368.5,1900.6,369.9,1898.8,369.9L1898.8,369.9z M1119,413.9h-3406.4c-1.6,0-2.9-1.3-2.9-2.9
				v-26.2c0-1.6,1.3-2.9,2.9-2.9H1119c1.6,0,2.9,1.3,2.9,2.9V411C1121.9,412.6,1120.6,413.9,1119,413.9z M1899.7,457.9H-337.8
				c-1.2,0-2.3-1-2.3-2.2c0,0,0-0.1,0-0.1v-27.3c0-1.2,1-2.3,2.2-2.3c0,0,0.1,0,0.1,0h2237.5c1.2,0,2.3,1,2.3,2.2c0,0,0,0.1,0,0.1
				v27.3C1902,456.8,1901,457.9,1899.7,457.9z"/>
		</g>
		<path style="fill:#98B0CD;" d="M1899.4,561.9H52.3c-1.4,0-2.6-1.2-2.6-2.6v-42.8c0-1.4,1.2-2.6,2.6-2.6h1847.1
			c1.4,0,2.6,1.2,2.6,2.6v42.8C1902,560.7,1900.9,561.9,1899.4,561.9z"/>
		<text transform="matrix(1 0 0 1 -126.994 483.038)" style="fill:#62697D; font-family:'Gotham'; font-size:14px;">Upload brand data; </text>
		<text transform="matrix(1 0 0 1 -126.994 499.038)" style="fill:#62697D; font-family:'Gotham'; font-size:14px;">E2E test</text>
		<text transform="matrix(1 0 0 1 68.209 541.94)" style="fill:#FFFFFF; font-family:'Gotham'; font-size:14px;">Additional Data Analytics, Insights</text>
		<text transform="matrix(1 0 0 1 68.209 226.219)" style="fill:#FFFFFF; font-family:'Gotham'; font-size:14px;">IoT enhancement</text>
		<text transform="matrix(1 0 0 1 68.209 358.149)" style="fill:#FFFFFF; font-family:'Gotham'; font-size:14px;">Omni-channel booking and pricing</text>
		<text transform="matrix(1 0 0 1 68.209 402.149)" style="fill:#FFFFFF; font-family:'Gotham'; font-size:14px;">Core HMS / PMS functionality enhancements</text>
		<text transform="matrix(1 0 0 1 68.209 94.087)" style="fill:#FFFFFF; font-family:'Gotham'; font-size:14px;">Additional value-added services</text>
		<text transform="matrix(1 0 0 1 68.209 138.087)" style="fill:#FFFFFF; font-family:'Gotham'; font-size:14px;">Airline services</text>
		<text transform="matrix(1 0 0 1 68.209 182.087)" style="fill:#FFFFFF; font-family:'Gotham'; font-size:14px;">Car / Other Services</text>
		<text transform="matrix(1 0 0 1 68.209 446.149)" style="fill:#FFFFFF; font-family:'Gotham'; font-size:14px;">Integrate with AI chatbot and end to end testing</text>
	</g>
</g>
</svg>
