<svg xmlns="http://www.w3.org/2000/svg" xmlns:xlink="http://www.w3.org/1999/xlink" x="0px" y="0px"
	 viewBox="0 0 1270 600" style="enable-background:new 0 0 1270 600;" xml:space="preserve">
<g>
	<defs>
		<rect id="SVGID_5_" width="1270" height="600"/>
	</defs>
	<clipPath id="SVGID_6_">
		<use xlink:href="#SVGID_5_"  style="overflow:visible;"/>
	</clipPath>
	<g style="clip-path:url(#SVGID_6_);">
		<g>
			<path style="fill:none;stroke:#313A54;stroke-width:0.5;" d="M49.7,6.3l0.1,587.3"/>
			<g>
				<path style="fill:none;stroke:#313A54;stroke-width:0.25;" d="M1121.9,42.4v551.1"/>
				<g>
					<path style="fill:none;stroke:#313A54;stroke-width:0.25;stroke-miterlimit:10;" d="M1024.4,42.4v551.1 M926.9,42.4v551.1"/>
				</g>
				<path style="fill:none;stroke:#313A54;stroke-width:0.25;" d="M732,42.4v551.1 M634.5,42.4v551.1"/>
				<path style="fill:none;stroke:#313A54;stroke-width:0.25;stroke-miterlimit:10;" d="M537.1,42.4v551.1"/>
				<path style="fill:none;stroke:#313A54;stroke-width:0.25;" d="M342.1,42.4v551.1 M244.7,42.4v551.1 M147.2,42.4v551.1"/>
			</g>
			<g>
				<path style="fill:none;stroke:#313A54;stroke-width:0.5;" d="M1219.7,6.3v587.3 M829.7,6.3v3"/>
				<path style="fill:none;stroke:#313A54;stroke-width:0.5;stroke-dasharray:5.9927,5.9927;" d="M829.7,15.3v572.3"/>
				<path style="fill:none;stroke:#313A54;stroke-width:0.5;" d="M829.7,590.6v3 M439.7,6.2v3"/>
				<path style="fill:none;stroke:#313A54;stroke-width:0.5;stroke-dasharray:5.9927,5.9927;" d="M439.7,15.2v572.3"/>
				<path style="fill:none;stroke:#313A54;stroke-width:0.5;" d="M439.7,590.5v3"/>
			</g>
		</g>
		<text transform="matrix(1 0 0 1 68.209 19.049)" style="fill:#62697D; font-family:'BebasNeuePro'; font-size:18px;">Month 7</text>
		<text transform="matrix(1 0 0 1 456.907 19.049)" style="fill:#62697D; font-family:'BebasNeuePro'; font-size:18px;">Month 8</text>
		<text transform="matrix(1 0 0 1 845.7471 19.049)" style="fill:#62697D; font-family:'BebasNeuePro'; font-size:18px;">Month 9</text>
		<path style="fill:#181E30;" d="M1315.8,386H51.2c-0.8,0-1.4-0.6-1.4-1.4v-29.2c0-0.8,0.6-1.4,1.4-1.4h1264.7
			c0.8,0,1.4,0.6,1.4,1.4v29.2C1317.2,385.4,1316.6,386,1315.8,386L1315.8,386z"/>
		<text transform="matrix(1 0 0 1 68.209 374.581)" style="fill:#FFFFFF; font-family:'Gotham'; font-size:14px;">Integrate with AI chatbot and end to end testing</text>
		<path style="fill:#FF5A3C;" d="M730.3,282h-2336.6c-0.9,0-1.7-0.8-1.7-1.7v-28.6c0-0.9,0.8-1.7,1.7-1.7H730.3
			c0.9,0,1.7,0.8,1.7,1.7v28.6C732,281.2,731.3,282,730.3,282z"/>
		<g>
			<path style="fill:#98B0CD;" d="M1120.5,494.1H-436.6c-0.8,0-1.4-0.6-1.4-1.4v-29.2c0-0.8,0.6-1.4,1.4-1.4h1557.1
				c0.8,0,1.4,0.6,1.4,1.4v29.2C1121.9,493.4,1121.3,494.1,1120.5,494.1z M1608.3,538.1H51.2c-0.8,0-1.4-0.6-1.4-1.4v-29.2
				c0-0.8,0.6-1.4,1.4-1.4h1557.1c0.8,0,1.4,0.6,1.4,1.4v29.2C1609.7,537.4,1609,538.1,1608.3,538.1L1608.3,538.1z"/>
		</g>
		<text transform="matrix(1 0 0 1 68.209 526.693)" style="fill:#FFFFFF; font-family:'Gotham'; font-size:14px;">Data Analytics, Insights</text>
		<g>
			<path style="fill:#6E6EFF;" d="M340.6,150h-1459.4c-0.8,0-1.5-0.7-1.5-1.5v-29c0-0.8,0.7-1.5,1.5-1.5H340.6
				c0.8,0,1.5,0.7,1.5,1.5v29C342.1,149.3,341.5,150,340.6,150C340.6,150,340.6,150,340.6,150z M730.7,194H-339
				c-0.7,0-1.3-0.6-1.3-1.3v-29.4c0-0.7,0.6-1.3,1.3-1.3H730.7c0.7,0,1.3,0.6,1.3,1.3v29.4C732,193.4,731.4,194,730.7,194z
				 M1705.5,238H51.4c-0.9,0-1.6-0.7-1.6-1.6c0,0,0,0,0,0v-28.8c0-0.9,0.7-1.6,1.6-1.6c0,0,0,0,0,0h1654.1c0.9,0,1.6,0.7,1.6,1.6
				c0,0,0,0,0,0v28.8C1707.1,237.3,1706.4,238,1705.5,238C1705.5,238,1705.5,238,1705.5,238z"/>
		</g>
		<text transform="matrix(1 0 0 1 68.209 226.302)" style="fill:#FFFFFF; font-family:'Gotham'; font-size:14px;">Enhance HMS functionality</text>
		<path style="fill:#FF5A3C;" d="M1509.8,342H-143.6c-1.1,0-2-0.9-2-2v-44c0-1.1,0.9-2,2-2h1653.4c1.1,0,2,0.9,2,2v44
			C1511.8,341.1,1510.9,342,1509.8,342z"/>
		<text transform="matrix(1 0 0 1 68.209 138.303)" style="fill:#FFFFFF; font-family:'Gotham'; font-size:14px;">Integrate PMS / HMS IoT</text>
		<text transform="matrix(1 0 0 1 68.209 182.302)" style="fill:#FFFFFF; font-family:'Gotham'; font-size:14px;">Enhance Concierge</text>
		<text transform="matrix(1 0 0 1 68.209 270.237)" style="fill:#FFFFFF; font-family:'Gotham'; font-size:14px;">IoT integration</text>
		<text transform="matrix(1 0 0 1 68.209 315.312)" style="fill:#FFFFFF; font-family:'Gotham'; font-size:14px;">AI Chatbot NLP </text>
		<text transform="matrix(1 0 0 1 68.209 331.312)" style="fill:#FFFFFF; font-family:'Gotham'; font-size:14px;">integration</text>
		<text transform="matrix(1 0 0 1 68.209 482.693)" style="fill:#FFFFFF; font-family:'Gotham'; font-size:14px;">Upload brand data, E2E Test</text>
	</g>
</g>
</svg>
