<svg xmlns="http://www.w3.org/2000/svg" xmlns:xlink="http://www.w3.org/1999/xlink" x="0px" y="0px"
	 viewBox="0 0 1270 600" style="enable-background:new 0 0 1270 600;" xml:space="preserve">
<g>
	<defs>
		<rect id="SVGID_11_" width="1270" height="600"/>
	</defs>
	<clipPath id="SVGID_12_">
		<use xlink:href="#SVGID_11_"  style="overflow:visible;"/>
	</clipPath>
	<g style="clip-path:url(#SVGID_12_);">
		<g>
			<path style="fill:none;stroke:#313A54;stroke-width:0.5;" d="M49.8,6.3v587.3"/>
			<g>
				<path style="fill:none;stroke:#313A54;stroke-width:0.25;" d="M1121.9,42.4v551.1"/>
				<g>
					<path style="fill:none;stroke:#313A54;stroke-width:0.25;stroke-miterlimit:10;" d="M1024.4,42.4v551.1 M927,42.4v551.1"/>
				</g>
				<path style="fill:none;stroke:#313A54;stroke-width:0.25;" d="M732,42.4v551.1 M634.6,42.4v551.1"/>
				<path style="fill:none;stroke:#313A54;stroke-width:0.25;stroke-miterlimit:10;" d="M537.1,42.4v551.1"/>
				<path style="fill:none;stroke:#313A54;stroke-width:0.25;" d="M342.2,42.4v551.1 M244.7,42.4v551.1 M147.2,42.4v551.1"/>
			</g>
			<g>
				<path style="fill:none;stroke:#313A54;stroke-width:0.5;" d="M1219.8,6.3v587.3 M829.8,6.3v3"/>
				<path style="fill:none;stroke:#313A54;stroke-width:0.5;stroke-dasharray:5.9927,5.9927;" d="M829.8,15.3v572.3"/>
				<path style="fill:none;stroke:#313A54;stroke-width:0.5;" d="M829.8,590.6v3 M439.8,6.2v3"/>
				<path style="fill:none;stroke:#313A54;stroke-width:0.5;stroke-dasharray:5.9927,5.9927;" d="M439.8,15.2v572.3"/>
				<path style="fill:none;stroke:#313A54;stroke-width:0.5;" d="M439.8,590.5v3"/>
			</g>
		</g>
		<text transform="matrix(1 0 0 1 71.83 19.049)" style="fill:#62697D; font-family:'BebasNeuePro'; font-size:18px;">Month 16</text>
		<text transform="matrix(1 0 0 1 459.905 19.049)" style="fill:#62697D; font-family:'BebasNeuePro'; font-size:18px;">Month 17</text>
		<text transform="matrix(1 0 0 1 849.3669 19.049)" style="fill:#62697D; font-family:'BebasNeuePro'; font-size:18px;">Month 18</text>
		<g>
			<path style="fill:#6E6EFF;" d="M340.4,106h-679.1c-0.9,0-1.6-0.7-1.6-1.6c0,0,0,0,0,0V75.5c0-0.9,0.7-1.6,1.6-1.6c0,0,0,0,0,0
				h679.1c0.9,0,1.6,0.7,1.6,1.6c0,0,0,0,0,0v28.8C342,105.2,341.3,106,340.4,106z"/>
			<g>
				<path id="B" style="fill:#6E6EFF;" d="M2679.6,150H832.4c-1.4,0-2.6-1.2-2.6-2.6v-26.8c0-1.4,1.2-2.6,2.6-2.6h1847.2
					c1.4,0,2.6,1.2,2.6,2.6v26.8C2682.2,148.8,2681,150,2679.6,150z"/>
			</g>
		</g>
		<text transform="matrix(1 0 0 1 849.905 138.087)" style="fill:#FFFFFF; font-family:'Gotham'; font-size:14px;">Airline services</text>
		<path style="fill:#6E6EFF;" d="M2679.6,194H832.4c-1.4,0-2.6-1.2-2.6-2.6v-26.8c0-1.4,1.2-2.6,2.6-2.6h1847.2
			c1.4,0,2.6,1.2,2.6,2.6v26.8C2682.2,192.8,2681,194,2679.6,194z"/>
		<text transform="matrix(1 0 0 1 849.905 182.087)" style="fill:#FFFFFF; font-family:'Gotham'; font-size:14px;">Car / Other Services</text>
		<path style="fill:#6E6EFF;" d="M3458.6,106H443.1c-1.8,0-3.3-1.5-3.3-3.3V77.3c0-1.8,1.5-3.3,3.3-3.3h3015.5
			c1.8,0,3.3,1.5,3.3,3.3v25.4C3461.9,104.5,3460.4,106,3458.6,106z"/>
		<text transform="matrix(1 0 0 1 459.905 94.087)" style="fill:#FFFFFF; font-family:'Gotham'; font-size:14px;">Additional value-added services</text>
		<g>
			<path style="fill:#FF5A3C;" d="M1899.3,238h-3016.8c-1.5,0-2.7-1.2-2.7-2.7c0,0,0,0,0,0v-26.6c0-1.5,1.2-2.7,2.7-2.7c0,0,0,0,0,0
				h3016.8c1.5,0,2.7,1.2,2.7,2.7c0,0,0,0,0,0v26.6C1902,236.7,1900.8,238,1899.3,238z M1119.8,281.9h-1848c-1.2,0-2.1-1-2.1-2.1
				V252c0-1.2,1-2.1,2.1-2.1h1848c1.2,0,2.1,1,2.1,2.1v27.8C1121.9,280.9,1120.9,281.9,1119.8,281.9z"/>
		</g>
		<g>
			<path style="fill:#181E30;" d="M3068.8,369.9H-1117c-1.8,0-3.2-1.4-3.2-3.2v-25.6c0-1.8,1.4-3.2,3.2-3.2h4185.9
				c1.8,0,3.2,1.4,3.2,3.2v25.6C3072,368.5,3070.6,369.9,3068.8,369.9L3068.8,369.9z M2289,413.9h-3406.4c-1.6,0-2.9-1.3-2.9-2.9
				v-26.2c0-1.6,1.3-2.9,2.9-2.9H2289c1.6,0,2.9,1.3,2.9,2.9V411C2291.9,412.6,2290.6,413.9,2289,413.9z M729.9,457.9h-1848
				c-1.2,0-2.1-1-2.1-2.1V428c0-1.2,1-2.1,2.1-2.1h1848c1.2,0,2.1,1,2.1,2.1v27.8C732,456.9,731.1,457.9,729.9,457.9z M3069.7,457.9
				H832.2c-1.2,0-2.3-1-2.3-2.2c0,0,0-0.1,0-0.1v-27.3c0-1.2,1-2.3,2.2-2.3c0,0,0.1,0,0.1,0h2237.5c1.2,0,2.3,1,2.3,2.2
				c0,0,0,0.1,0,0.1v27.3C3072,456.8,3071,457.9,3069.7,457.9L3069.7,457.9z"/>
		</g>
		<text transform="matrix(1 0 0 1 849.1909 446.149)" style="fill:#FFFFFF; font-family:'Gotham'; font-size:14px;">Integrate with AI chatbot and end to end testing</text>
		<path style="fill:#181E30;" d="M729.9,501.9h-1848c-1.2,0-2.1-1-2.1-2.1V472c0-1.2,1-2.1,2.1-2.1h1848c1.2,0,2.1,1,2.1,2.1v27.8
			C732,500.9,731.1,501.9,729.9,501.9z"/>
		<g>
			<path style="fill:#98B0CD;" d="M924.5,561.9H-727.9c-1.4,0-2.5-1.1-2.5-2.5v-43.1c0-1.4,1.1-2.5,2.5-2.5H924.5
				c1.4,0,2.5,1.1,2.5,2.5v43.1C927,560.8,925.9,561.9,924.5,561.9z M1121.3,561.9H1025c-0.3,0-0.6-0.3-0.6-0.6v-46.8
				c0-0.3,0.3-0.6,0.6-0.6h96.3c0.3,0,0.6,0.3,0.6,0.6v46.8C1121.9,561.6,1121.6,561.9,1121.3,561.9z"/>
		</g>
		<text transform="matrix(1 0 0 1 1043.016 483.038)" style="fill:#62697D; font-family:'Gotham'; font-size:14px;">Upload brand data; </text>
		<text transform="matrix(1 0 0 1 1043.016 499.038)" style="fill:#62697D; font-family:'Gotham'; font-size:14px;">E2E test</text>
		<g>
			<path style="fill:none;stroke:#62697D;stroke-miterlimit:10;" d="M1048.1,506v7.9 M1048.1,513.9v7.8"/>
		</g>
		<text transform="matrix(1 0 0 1 71.83 541.94)" style="fill:#FFFFFF; font-family:'Gotham'; font-size:14px;">Analytics development</text>
		<text transform="matrix(1 0 0 1 71.83 226.219)" style="fill:#FFFFFF; font-family:'Gotham'; font-size:14px;">IoT enhancement</text>
		<text transform="matrix(1 0 0 1 71.83 358.149)" style="fill:#FFFFFF; font-family:'Gotham'; font-size:14px;">Omni-channel booking and pricing</text>
		<text transform="matrix(1 0 0 1 71.83 402.149)" style="fill:#FFFFFF; font-family:'Gotham'; font-size:14px;">Core HMS / PMS functionality enhancements</text>
		<text transform="matrix(1 0 0 1 71.83 446.149)" style="fill:#FFFFFF; font-family:'Gotham'; font-size:14px;">Airlines booking integration</text>
		<text transform="matrix(1 0 0 1 71.83 490.149)" style="fill:#FFFFFF; font-family:'Gotham'; font-size:14px;">Rental Car / Vac integration</text>
		<text transform="matrix(1 0 0 1 71.83 270.149)" style="fill:#FFFFFF; font-family:'Gotham'; font-size:14px;">Futuristic IoT development</text>
		<text transform="matrix(1 0 0 1 71.83 94.087)" style="fill:#FFFFFF; font-family:'Gotham'; font-size:14px;">Text and Voice driven ordering</text>
	</g>
</g>
</svg>
