<?xml version="1.0" encoding="utf-8"?>
<!-- Generator: Adobe Illustrator 23.1.0, SVG Export Plug-In . SVG Version: 6.00 Build 0)  -->
<svg version="1.1" xmlns="http://www.w3.org/2000/svg" xmlns:xlink="http://www.w3.org/1999/xlink" x="0px" y="0px"
	 viewBox="0 0 488 400" style="enable-background:new 0 0 488 400;" xml:space="preserve">
<style type="text/css">
	.st0{fill:#D6DFEB;}
	.st1{fill:#FFFFFF;}
	.st2{fill:#171F2E;}
	.st3{fill:#8B90FC;}
	.st4{fill:#4649A6;}
	.st5{fill:#6B70FC;}
	.st6{opacity:0.5;fill:#6B70FC;}
	.st7{opacity:0.2;fill:#6B70FC;}
	.st8{fill:#FF5A3C;}
	.st9{fill:#B5402B;}
	.st10{opacity:0.4;}
	.st11{fill:none;stroke:#171F2E;stroke-width:1.0432;stroke-linecap:round;stroke-linejoin:round;stroke-miterlimit:10;}
	.st12{fill:none;stroke:#6B70FC;stroke-width:2.4074;stroke-linecap:round;stroke-linejoin:bevel;stroke-miterlimit:10;}
	.st13{opacity:0.1;fill:#6B70FC;}
	.st14{opacity:0.4;fill:#6B70FC;}
	.st15{opacity:0.6;fill:#6B70FC;}
	.st16{opacity:0.8;fill:#6B70FC;}
	.st17{fill:#B42E6A;}
	.st18{fill:#D6DFEB;stroke:#181E30;stroke-width:1.4745;stroke-miterlimit:10;}
	.st19{fill:#FFFFFF;stroke:#181E30;stroke-width:1.4745;stroke-miterlimit:10;}
	.st20{fill:none;stroke:#181E30;stroke-width:1.1059;stroke-linecap:round;stroke-linejoin:round;stroke-miterlimit:10;}
	.st21{fill:#D6DFEB;stroke:#181E30;stroke-width:1.4819;stroke-miterlimit:10;}
	.st22{fill:#FFFFFF;stroke:#181E30;stroke-width:1.4819;stroke-miterlimit:10;}
	.st23{fill:none;stroke:#181E30;stroke-width:1.1114;stroke-linecap:round;stroke-linejoin:round;stroke-miterlimit:10;}
	.st24{fill:none;stroke:#181E30;stroke-width:1.4819;stroke-miterlimit:10;}
	.st25{opacity:0.6;fill:#FFFFFF;}
	.st26{opacity:0.7;fill:#CBD5DF;}
	.st27{fill:#CF4931;}
	.st28{opacity:0.8;}
	.st29{fill:#4E52B8;}
	.st30{fill:#D64C32;}
</style>
<g id="Layer_2">
</g>
<g id="Layer_1">
	<g>
		<g>
			<g>
				<polygon class="st1" points="58.8,139.4 185,66.6 187.9,68.2 61.7,141.1 				"/>
				<path class="st2" d="M61.5,141.4l-2.9-1.7c-0.1-0.1-0.2-0.2-0.2-0.3s0.1-0.3,0.2-0.3l126.2-72.9c0.1-0.1,0.3-0.1,0.4,0l2.9,1.7
					c0.1,0.1,0.2,0.2,0.2,0.3s-0.1,0.3-0.2,0.3L61.9,141.4c-0.1,0-0.1,0.1-0.2,0.1C61.6,141.5,61.5,141.5,61.5,141.4z M185,67
					L59.5,139.4l2.1,1.2l125.4-72.4L185,67z"/>
			</g>
			<g>
				<polygon class="st1" points="58.8,182.1 58.8,139.4 61.7,141.1 61.7,183.7 				"/>
				<path class="st2" d="M61.5,184.1l-2.9-1.7c-0.1-0.1-0.2-0.2-0.2-0.3v-42.6c0-0.1,0.1-0.3,0.2-0.3c0.1-0.1,0.3-0.1,0.4,0l2.9,1.7
					c0.1,0.1,0.2,0.2,0.2,0.3v42.6c0,0.1-0.1,0.3-0.2,0.3c-0.1,0-0.1,0.1-0.2,0.1C61.6,184.1,61.5,184.1,61.5,184.1z M59.1,140.1
					v41.7l2.1,1.2v-41.7L59.1,140.1z"/>
			</g>
			<g>
				<polygon class="st1" points="61.7,141.1 187.9,68.2 187.9,110.9 61.7,183.7 				"/>
				<path class="st2" d="M61.5,184.1c-0.1-0.1-0.2-0.2-0.2-0.3v-42.6c0-0.1,0.1-0.3,0.2-0.3l126.2-72.9c0.1-0.1,0.3-0.1,0.4,0
					c0.1,0.1,0.2,0.2,0.2,0.3v42.6c0,0.1-0.1,0.3-0.2,0.3L61.9,184.1c-0.1,0-0.1,0.1-0.2,0.1C61.6,184.1,61.5,184.1,61.5,184.1z
					 M187.5,68.9L62,141.3v41.7l125.4-72.4V68.9z"/>
			</g>
			<polygon class="st0" points="103.9,128.9 103.9,132 182.4,86.8 182.4,83.6 			"/>
			<polygon class="st0" points="103.9,138.1 103.9,141.2 182.4,95.9 182.4,92.8 			"/>
			<g>
				<path class="st5" d="M94.8,152.4c0,2.9-2.1,6.5-4.6,8l-16.5,9.5c-2.5,1.5-4.6,0.3-4.6-2.7v-19.1c0-2.9,2.1-6.5,4.6-8l16.5-9.5
					c2.5-1.5,4.6-0.3,4.6,2.7V152.4z"/>
				<polygon class="st1" points="81.5,144 81.5,158.3 87.7,146.9 				"/>
			</g>
		</g>
		<g>
			<g>
				<polygon class="st1" points="58.8,78.6 185,5.7 187.9,7.4 61.7,80.3 				"/>
				<path class="st2" d="M61.5,80.6l-2.9-1.7c-0.1-0.1-0.2-0.2-0.2-0.3s0.1-0.3,0.2-0.3L184.8,5.4c0.1-0.1,0.3-0.1,0.4,0l2.9,1.7
					c0.1,0.1,0.2,0.2,0.2,0.3s-0.1,0.3-0.2,0.3L61.9,80.6c-0.1,0-0.1,0.1-0.2,0.1C61.6,80.6,61.5,80.6,61.5,80.6z M185,6.2
					L59.5,78.6l2.1,1.2L187.1,7.4L185,6.2z"/>
			</g>
			<g>
				<polygon class="st1" points="58.8,121.2 58.8,78.6 61.7,80.3 61.7,122.9 				"/>
				<path class="st2" d="M61.5,123.2l-2.9-1.7c-0.1-0.1-0.2-0.2-0.2-0.3V78.6c0-0.1,0.1-0.3,0.2-0.3c0.1-0.1,0.3-0.1,0.4,0l2.9,1.7
					C62,80,62,80.1,62,80.3v42.6c0,0.1-0.1,0.3-0.2,0.3c-0.1,0-0.1,0.1-0.2,0.1C61.6,123.3,61.5,123.3,61.5,123.2z M59.1,79.3V121
					l2.1,1.2V80.5L59.1,79.3z"/>
			</g>
			<g>
				<polygon class="st1" points="61.7,80.3 187.9,7.4 187.9,50 61.7,122.9 				"/>
				<path class="st2" d="M61.5,123.2c-0.1-0.1-0.2-0.2-0.2-0.3V80.3c0-0.1,0.1-0.3,0.2-0.3L187.7,7c0.1-0.1,0.3-0.1,0.4,0
					c0.1,0.1,0.2,0.2,0.2,0.3V50c0,0.1-0.1,0.3-0.2,0.3L61.9,123.2c-0.1,0-0.1,0.1-0.2,0.1C61.6,123.3,61.5,123.3,61.5,123.2z
					 M187.5,8.1L62,80.5v41.7l125.4-72.4V8.1z"/>
			</g>
			<polygon class="st0" points="102.5,68 102.5,71.1 181,25.8 181,22.7 			"/>
			<polygon class="st0" points="102.5,77.1 102.5,80.3 181,35 181,31.9 			"/>
			<g>
				<path class="st5" d="M94.8,91.8c0,2.9-2.1,6.5-4.6,8l-16.5,9.5c-2.5,1.5-4.6,0.3-4.6-2.7V87.6c0-2.9,2.1-6.5,4.6-8l16.5-9.5
					c2.5-1.5,4.6-0.3,4.6,2.7V91.8z"/>
				<g>
					<path class="st1" d="M75.9,97.3l1.3-1.6c0.2-0.2,0.4-0.3,0.5-0.3l1.2,0.1c0.2,0,0.5-0.1,0.7-0.4l1.1-1.3
						c0.2-0.3,0.5-0.5,0.8-0.4l1,0.1c0.2,0,0.5-0.1,0.7-0.4l1.2-1.5c0.2-0.2,0.4-0.3,0.5-0.3l1.2,0.1c0.2,0,0.4-0.3,0.4-0.6V86
						l-11,6.3v4.9C75.5,97.5,75.7,97.5,75.9,97.3z"/>
					<path class="st1" d="M85.4,88.4c0.1-0.1,0.3-0.2,0.4-0.4l2.6-5c0.1-0.2,0.3-0.4,0.4-0.5l1.8-1.1c0.3-0.2,0.5-0.6,0.5-0.9
						c0-0.3-0.2-0.5-0.5-0.3l-1.8,1.1c-0.5,0.3-0.9,0.7-1.2,1.3l-2.6,5c-0.2,0.4-0.2,0.7,0,0.8C85.1,88.5,85.3,88.5,85.4,88.4z"/>
					<ellipse transform="matrix(0.5 -0.866 0.866 0.5 -46.2136 116.1645)" class="st1" cx="77.5" cy="98.1" rx="1.6" ry="0.9"/>
					<path class="st1" d="M77.8,90.1c0-2,1.4-4.4,3.1-5.4s3.1-0.2,3.1,1.8L77.8,90.1z"/>
					<ellipse transform="matrix(0.5 -0.866 0.866 0.5 -39.1867 120.2215)" class="st1" cx="84.5" cy="94" rx="1.6" ry="0.9"/>
					<ellipse transform="matrix(0.5 -0.866 0.866 0.5 -32.2653 111.9716)" class="st1" cx="80.8" cy="83.9" rx="0.5" ry="0.3"/>
				</g>
			</g>
		</g>
		<g>
			<g>
				<polygon class="st1" points="58.8,200.3 185,127.4 187.9,129.1 61.7,201.9 				"/>
				<path class="st2" d="M61.5,202.3l-2.9-1.7c-0.1-0.1-0.2-0.2-0.2-0.3s0.1-0.3,0.2-0.3l126.2-72.9c0.1-0.1,0.3-0.1,0.4,0l2.9,1.7
					c0.1,0.1,0.2,0.2,0.2,0.3s-0.1,0.3-0.2,0.3L61.9,202.3c-0.1,0-0.1,0.1-0.2,0.1C61.6,202.3,61.5,202.3,61.5,202.3z M185,127.8
					L59.5,200.3l2.1,1.2l125.4-72.4L185,127.8z"/>
			</g>
			<g>
				<polygon class="st1" points="58.8,242.9 58.8,200.3 61.7,201.9 61.7,244.6 				"/>
				<path class="st2" d="M61.5,244.9l-2.9-1.7c-0.1-0.1-0.2-0.2-0.2-0.3v-42.6c0-0.1,0.1-0.3,0.2-0.3c0.1-0.1,0.3-0.1,0.4,0l2.9,1.7
					c0.1,0.1,0.2,0.2,0.2,0.3v42.6c0,0.1-0.1,0.3-0.2,0.3c-0.1,0-0.1,0.1-0.2,0.1C61.6,245,61.5,245,61.5,244.9z M59.1,200.9v41.7
					l2.1,1.2v-41.7L59.1,200.9z"/>
			</g>
			<g>
				<polygon class="st1" points="61.7,201.9 187.9,129.1 187.9,171.7 61.7,244.6 				"/>
				<path class="st2" d="M61.5,244.9c-0.1-0.1-0.2-0.2-0.2-0.3v-42.6c0-0.1,0.1-0.3,0.2-0.3l126.2-72.9c0.1-0.1,0.3-0.1,0.4,0
					c0.1,0.1,0.2,0.2,0.2,0.3v42.6c0,0.1-0.1,0.3-0.2,0.3L61.9,244.9c-0.1,0-0.1,0.1-0.2,0.1C61.6,245,61.5,245,61.5,244.9z
					 M187.5,129.7L62,202.2v41.7l125.4-72.4V129.7z"/>
			</g>
			<polygon class="st0" points="102.5,190.7 102.5,193.8 181,148.5 181,145.4 			"/>
			<polygon class="st0" points="102.5,199.8 102.5,202.9 181,157.7 181,154.5 			"/>
			<g>
				<path class="st8" d="M94.4,214.1c0,2.9-2.1,6.5-4.6,8l-16.5,9.5c-2.5,1.5-4.6,0.3-4.6-2.7v-19.1c0-2.9,2.1-6.5,4.6-8l16.5-9.5
					c2.5-1.5,4.6-0.3,4.6,2.7V214.1z"/>
				<g>
					<g>
						<path class="st1" d="M86.9,201.7l-10.1,5.8c-0.4,0.2-0.7,0.8-0.7,1.3V223c0,0.5,0.3,0.7,0.7,0.5l10.1-5.8
							c0.4-0.2,0.7-0.8,0.7-1.3v-14.2C87.6,201.7,87.3,201.5,86.9,201.7z M81.8,218.4c-1.8,1-3.2,0.2-3.2-1.9s1.4-4.5,3.2-5.6
							s3.2-0.2,3.2,1.9C85.1,214.9,83.6,217.4,81.8,218.4z M85.1,207c0,0.2-0.1,0.4-0.2,0.5l-5.9,3.4c-0.1,0.1-0.2,0-0.2-0.2v-1.2
							c0-0.2,0.1-0.4,0.2-0.5l5.9-3.4c0.1-0.1,0.2,0,0.2,0.2V207z"/>
					</g>
				</g>
			</g>
		</g>
		<g>
			<g>
				<path class="st0" d="M444.4,160.4v-46.3c0-6.2-4.4-13.8-9.8-16.9l-94.9-54.8c-2.6-1.5-5-1.7-6.7-0.8l0,0l6.5-3.9
					c1.8-1,4.2-0.9,6.9,0.7l94.9,54.8c5.4,3.1,9.8,10.7,9.8,16.9v46.3c0,3.2-1.2,5.4-3.1,6.4l-6.4,3.9v0
					C443.3,165.6,444.4,163.5,444.4,160.4z"/>
				<polygon class="st0" points="417.6,156.2 424.3,160.1 424.3,177.3 417.6,181.1 				"/>
				<g>
					<path class="st1" d="M339.7,42.4l94.9,54.8c5.4,3.1,9.8,10.7,9.8,16.9v46.3c0,6.2-4.4,8.7-9.8,5.6l-17-9.8v25.1L396.5,144
						l-56.7-32.8c-5.4-3.1-9.8-10.7-9.8-16.9V48C330,41.8,334.4,39.3,339.7,42.4z"/>
					<path class="st2" d="M417.6,181.9c-0.2,0-0.4-0.1-0.5-0.3l-21.1-37.2l-56.6-32.7c-5.5-3.2-10-11-10-17.3V48
						c0-4.5,2.3-7.5,5.9-7.5c1.4,0,3,0.5,4.6,1.4l94.9,54.8c5.5,3.2,10,11,10,17.3v46.3c0,4.5-2.3,7.5-5.9,7.5c-1.4,0-3-0.5-4.6-1.4
						l-16.3-9.4v24.2c0,0.2-0.2,0.4-0.4,0.5C417.7,181.9,417.7,181.9,417.6,181.9z M335.4,41.6c-3,0-4.9,2.5-4.9,6.4v46.3
						c0,6,4.3,13.4,9.5,16.4l56.7,32.8c0.1,0,0.1,0.1,0.2,0.2l20.2,35.6v-23.2c0-0.2,0.1-0.4,0.3-0.4c0.2-0.1,0.4-0.1,0.5,0l17,9.8
						c1.4,0.8,2.8,1.3,4.1,1.3c3,0,4.9-2.5,4.9-6.4v-46.3c0-6-4.3-13.4-9.5-16.4l-94.9-54.8C338,42,336.6,41.6,335.4,41.6z"/>
				</g>
				<path class="st2" d="M417.6,181.9c-0.2,0-0.4-0.1-0.5-0.3l-21.1-37.2l-56.6-32.7c-5.5-3.2-10-11-10-17.3V48
					c0-3.2,1.2-5.7,3.2-6.8c0,0,0,0,0,0l6.5-3.9c2-1.2,4.7-0.9,7.4,0.7l94.9,54.8c5.5,3.2,10,11,10,17.3v46.3c0,3.3-1.2,5.8-3.4,6.9
					l-6.4,3.8c0,0,0,0-0.1,0c-2,1.2-4.7,0.9-7.4-0.7l-9.6-5.5v16.3c0,0.2-0.1,0.4-0.3,0.5l-6.5,3.6c0,0.2-0.2,0.4-0.4,0.5
					C417.7,181.9,417.7,181.9,417.6,181.9z M333.2,42.1c-1.7,0.9-2.7,3-2.7,5.9v46.3c0,6,4.3,13.4,9.5,16.4l56.7,32.8
					c0.1,0,0.1,0.1,0.2,0.2l20.8,36.7l6.1-3.4v-16.9c0-0.2,0.1-0.4,0.3-0.4c0.2-0.1,0.4-0.1,0.5,0l10.3,6c2.5,1.4,4.8,1.6,6.5,0.6
					c0,0,0,0,0.1,0l6.3-3.8c1.8-0.9,2.8-3,2.8-6v-46.3c0-6-4.3-13.4-9.5-16.4l-94.9-54.8c-2.4-1.4-4.7-1.6-6.4-0.7l-6.4,3.9
					C333.3,42,333.3,42,333.2,42.1C333.3,42.1,333.2,42.1,333.2,42.1C333.2,42.1,333.2,42.1,333.2,42.1z"/>
				<g>
					<path class="st8" d="M398.4,110.9c0,3.4,2.4,7.5,5.3,9.2c2.9,1.7,5.3,0.3,5.3-3c0-3.4-2.4-7.5-5.3-9.2
						C400.8,106.1,398.4,107.5,398.4,110.9z"/>
					<path class="st8" d="M378.6,99.4c0,3.4,2.4,7.5,5.3,9.2c2.9,1.7,5.3,0.3,5.3-3.1c0-3.4-2.4-7.5-5.3-9.1
						C381,94.7,378.6,96.1,378.6,99.4z"/>
					<path class="st8" d="M358.8,88c0,3.4,2.4,7.5,5.3,9.2c2.9,1.7,5.3,0.3,5.3-3.1c0-3.4-2.4-7.5-5.3-9.2
						C361.1,83.2,358.8,84.6,358.8,88z"/>
				</g>
			</g>
		</g>
		<path class="st0" d="M465.6,268.3c0,3.5-2.5,7.9-5.6,9.7l-23.6,13.6c-3.1,1.8-5.6,0.3-5.6-3.2l0-27.2c0-3.5,2.5-7.9,5.6-9.7
			l23.6-13.6c3.1-1.8,5.6-0.3,5.6,3.2L465.6,268.3z"/>
		<path class="st0" d="M270.7,29.8c0,2.1-1.5,4.7-3.3,5.7l-13.9,8c-1.8,1-3.3,0.2-3.3-1.9l0-16.1c0-2.1,1.5-4.7,3.3-5.7l13.9-8
			c1.8-1,3.3-0.2,3.3,1.9L270.7,29.8z"/>
		<path class="st0" d="M330.4,328.7c0,2.1-1.5,4.7-3.3,5.7l-13.9,8c-1.8,1-3.3,0.2-3.3-1.9l0-16.1c0-2.1,1.5-4.7,3.3-5.7l13.9-8
			c1.8-1,3.3-0.2,3.3,1.9L330.4,328.7z"/>
		<path class="st0" d="M291,43.2c0,1.5-1.1,3.4-2.4,4.1l-10.1,5.8c-1.3,0.8-2.4,0.1-2.4-1.4l0-11.7c0-1.5,1.1-3.4,2.4-4.1l10.1-5.8
			c1.3-0.8,2.4-0.1,2.4,1.4L291,43.2z"/>
		<g>
			<path class="st26" d="M387.5,365.1l-23.9-13.8c-1-0.6-2.4-0.9-3.7-0.8l-11.8,0c-1.2,0-2.5,0.3-3.4,0.8l-23.7,13.8
				c-1.9,1.1-1.9,2.9,0,4l23.9,13.8c1,0.6,2.2,0.8,3.5,0.8h12c1.2,0,2.5-0.3,3.4-0.8l23.7-13.8C389.4,368,389.4,366.2,387.5,365.1z"
				/>
			<g>
				<path class="st1" d="M387.6,362.1l-23.7,13.8c-1.9,1.1-5,1.1-6.9,0l-23.9-13.8c-1-0.6-1.4-1.3-1.4-2c0,2.3,0,4.7,0,7
					c0,0.7,0.5,1.5,1.4,2l23.9,13.8c1.9,1.1,5,1.1,6.9,0l23.7-13.8c0.9-0.5,1.4-1.3,1.4-2c0-2.3,0-4.7,0-7
					C389,360.8,388.5,361.5,387.6,362.1z"/>
				<path class="st2" d="M360.4,384.2c-1.4,0-2.7-0.3-3.7-0.9l-23.9-13.8c-1.1-0.6-1.7-1.5-1.7-2.5l0-7l1.1,0l0,0l0,0
					c0,0.6,0.4,1.1,1.1,1.5l23.9,13.8c0.8,0.5,2,0.7,3.2,0.7c1.2,0,2.3-0.3,3.2-0.7l23.7-13.8c0.7-0.4,1.1-1,1.1-1.5v0l1.1,0l0,0v0
					l0,0l0,7c0,1-0.6,1.8-1.7,2.5l-23.7,13.8C363.1,383.9,361.8,384.2,360.4,384.2z M332.2,362.1l0,4.9c0,0.6,0.4,1.1,1.1,1.5
					l23.9,13.8c0.8,0.5,2,0.7,3.2,0.7c1.2,0,2.3-0.3,3.2-0.7l23.7-13.8c0.7-0.4,1.1-1,1.1-1.5l0-4.9c-0.2,0.1-0.4,0.3-0.6,0.4
					l-23.7,13.8c-2,1.2-5.4,1.2-7.5,0l-23.9-13.8C332.6,362.4,332.4,362.3,332.2,362.1z"/>
			</g>
			<g>
				<g>
					<path class="st1" d="M387.5,358.1c1.9,1.1,1.9,2.9,0,4l-23.7,13.8c-1.9,1.1-5,1.1-6.9,0l-23.9-13.8c-1.9-1.1-1.9-2.9,0-4
						l23.7-13.8c1.9-1.1,5-1.1,6.9,0L387.5,358.1z"/>
					<path class="st2" d="M360.4,377.2c-1.4,0-2.7-0.3-3.7-0.9l-23.9-13.8c-1.1-0.6-1.7-1.5-1.7-2.5c0-1,0.6-1.8,1.7-2.5l23.7-13.8
						c2-1.2,5.4-1.2,7.5,0l23.8,13.8c1.1,0.6,1.7,1.5,1.7,2.5c0,1-0.6,1.8-1.7,2.5l-23.7,13.8C363.1,376.9,361.8,377.2,360.4,377.2z
						 M360.2,344c-1.2,0-2.3,0.3-3.2,0.7l-23.7,13.8c-0.7,0.4-1.1,1-1.1,1.5c0,0.5,0.4,1.1,1.1,1.5l23.9,13.8c0.8,0.5,2,0.7,3.2,0.7
						c1.2,0,2.3-0.3,3.2-0.7l23.7-13.8c0.7-0.4,1.1-1,1.1-1.5c0-0.5-0.4-1.1-1.2-1.5l-23.9-13.8C362.6,344.3,361.4,344,360.2,344z"
						/>
				</g>
			</g>
		</g>
		<g>
			<polygon class="st5" points="29.1,172.2 22.4,174 22.4,178.6 29.1,176.8 35.8,186.3 35.8,181.7 			"/>
			<polygon class="st16" points="29.1,191.7 22.4,193.5 22.4,198.1 29.1,196.3 35.8,205.8 35.8,201.2 			"/>
			<polygon class="st15" points="29.1,211.2 22.4,213 22.4,217.6 29.1,215.8 35.8,225.3 35.8,220.7 			"/>
			<polygon class="st14" points="29.1,230.6 22.4,232.4 22.4,237 29.1,235.2 35.8,244.8 35.8,240.2 			"/>
			<polygon class="st7" points="29.1,250.1 22.4,251.9 22.4,256.5 29.1,254.7 35.8,264.2 35.8,259.6 			"/>
			<polygon class="st13" points="29.1,268 22.4,269.8 22.4,274.4 29.1,272.6 35.8,282.1 35.8,277.5 			"/>
		</g>
		<g>
			<path class="st3" d="M210.1,33.1C210.1,33.1,210.1,33.1,210.1,33.1L210.1,33.1l-3.7-2.3c-1.1-0.7-2.7-0.6-4.5,0.4L179.9,44
				c-3.4,2-6.2,6.8-6.2,10.7l0,25.5c0,2,0.7,3.4,1.9,4l4.1,2.4v0c1.1,0.7,2.7,0.6,4.4-0.4l22.1-12.7c3.4-2,6.2-6.8,6.2-10.7V37.3
				C212.3,35.1,211.5,33.7,210.1,33.1z"/>
			<path class="st4" d="M178,82.6l0-25.5c0-3.9,2.8-8.7,6.2-10.7l22.1-12.7c1.5-0.9,2.9-1,3.9-0.6v0l-3.7-2.3
				c-1.1-0.7-2.7-0.6-4.5,0.4L179.9,44c-3.4,2-6.2,6.8-6.2,10.7l0,25.5c0,2,0.7,3.4,1.9,4l4.1,2.4v0C178.6,85.9,178,84.6,178,82.6z"
				/>
			<g>
				<path class="st2" d="M181.4,87.6c-0.7,0-1.4-0.2-2-0.6l-4.1-2.4c-1.4-0.7-2.2-2.4-2.2-4.6l0-25.5c0-4.1,2.9-9.1,6.5-11.2
					l22.1-12.7c1.9-1.1,3.7-1.2,5.1-0.3l3.8,2.1c1.5,0.8,2.5,2.5,2.5,4.9v25.5c0,4.1-2.9,9.1-6.5,11.2l-22.1,12.7
					C183.4,87.3,182.3,87.6,181.4,87.6z M204.4,30.7c-0.7,0-1.4,0.2-2.2,0.7l-22.2,13c-3.2,1.8-5.9,6.5-5.9,10.1L174,79.9
					c0,1.7,0.4,3.1,1.5,3.7l4.4,2.7c1,0.6,2.5,0.5,3.9-0.4l22.1-12.8c3.2-1.8,5.9-6.6,5.9-10.3V37.3c0-1.8-0.3-3.1-1.4-3.6l0-0.1
					l-4.5-2.6C205.4,30.8,204.9,30.7,204.4,30.7z"/>
			</g>
			<g>
				<path class="st2" d="M181.4,87.5c-2.4,0-3.9-1.9-3.9-4.9l0-25.5c0-4.1,2.9-9,6.4-11.1l22.1-12.7c1-0.6,2-0.9,3-0.9
					c2.4,0,3.9,1.9,3.9,4.9v25.5c0,4.1-2.9,9-6.4,11.1l-22.1,12.7C183.3,87.2,182.3,87.5,181.4,87.5z M208.9,33.4
					c-0.8,0-1.6,0.3-2.5,0.8l-22.1,12.7c-3.3,1.9-5.9,6.5-5.9,10.3l0,25.5c0,2.4,1.1,3.9,3,3.9c0.8,0,1.6-0.3,2.5-0.8l22.1-12.7
					c3.3-1.9,5.9-6.5,5.9-10.3V37.3C211.9,34.9,210.7,33.4,208.9,33.4z"/>
			</g>
		</g>
		<g>
			<g>
				<path class="st1" d="M81,280.3c0-2.7,1.1-4.4,2.7-5c0,0,0,0,0,0h0l4.6-2.9c1.3-0.7,3.1-0.6,5.1,0.6l72.2,41.7
					c4.1,2.4,7.4,8.1,7.4,12.8v35.2c0,2.4-0.8,4-2.2,4.8l-5,3c-1.3,0.8-3.2,0.7-5.3-0.5l-43.1-24.9l-16.1,9.8v-19.1l-13-7.5
					c-4.1-2.4-7.4-8.1-7.4-12.8L81,280.3z"/>
				<path class="st0" d="M170.7,367.2c1.3-0.7,2.1-2.4,2.1-4.5v-35.2c0-4.6-3.3-10.3-7.3-12.6l-72.2-41.7c-1.1-0.6-2.2-1-3.1-1
					c-0.6,0-1.2,0.1-1.7,0.4l-3.3,2c1.1,0,2.2,0.4,3.4,1l72.2,41.7c4.2,2.4,7.6,8.3,7.6,13.1v35.2c0,1.3-0.3,2.5-0.7,3.4
					L170.7,367.2z"/>
				<g>
					<path class="st2" d="M160.3,370.3l-42.9-24.8l-16.5,10.1V336l-12.8-7.4c-4.2-2.4-7.6-8.3-7.6-13.2l0-35.2
						c0-3.5,1.8-5.7,4.5-5.7c1.1,0,2.3,0.4,3.5,1.1l72.2,41.7c4.2,2.4,7.6,8.3,7.6,13.2v35.2c0,3.5-1.8,5.7-4.5,5.7
						C162.7,371.4,161.6,371,160.3,370.3z M81.3,280.3l0,35.2c0,4.6,3.2,10.2,7.2,12.5l13.2,7.6v18.6l15.7-9.6l43.3,25
						c1.1,0.6,2.2,1,3.1,1c2.3,0,3.7-1.9,3.7-4.9v-35.2c0-4.6-3.2-10.2-7.2-12.5l-72.2-41.7c-1.1-0.6-2.1-1-3.1-1
						C82.8,275.4,81.3,277.2,81.3,280.3z"/>
				</g>
				<g>
					<path class="st2" d="M160.3,370.4l-42.9-24.8l-16.6,10.1v-19.7l-12.7-7.3c-4.2-2.4-7.6-8.4-7.6-13.3l0-35.2
						c0-1.7,0.4-3.1,1.2-4.2c0.1-0.2,0.3-0.4,0.5-0.5c0.4-0.3,0.8-0.5,0.8-0.6l5.1-3.1c0.6-0.3,1.3-0.5,2.1-0.5
						c1.1,0,2.3,0.4,3.5,1.1l72.2,41.7c4.2,2.4,7.6,8.4,7.6,13.3v35.2c0,2.5-0.9,4.3-2.4,5.2l-5,3c-0.7,0.4-1.4,0.6-2.2,0.6
						C162.7,371.5,161.5,371.1,160.3,370.4z M88.6,272.8l-2.7,1.5l-2.6,1.4c-1.6,0.9-1.9,2.2-1.9,4.6l0,35.2
						c0,4.5,3.3,10.2,7.2,12.4l13.2,7.6v18.5l15.6-9.5l43.4,25c1.1,0.6,2.1,0.9,3.1,0.9c0.7,0,1.2-0.2,1.7-0.5l5-3
						c1.3-0.7,2-2.3,2-4.4v-35.2c0-4.5-3.3-10.2-7.2-12.4l-72.2-41.7c-1.1-0.6-2.1-0.9-3.1-0.9C89.6,272.4,89,272.5,88.6,272.8z"/>
				</g>
			</g>
			<g>
				<polygon class="st5" points="152.9,329.2 95.4,295.9 95.4,300 152.9,333.3 				"/>
				<polygon class="st5" points="152.9,338.9 95.4,305.6 95.4,309.7 152.9,343 				"/>
				<polygon class="st5" points="152.9,348.5 114.1,326 114.1,330 152.9,352.6 				"/>
			</g>
		</g>
		<g>
			<g>
				<path class="st4" d="M361,170c-1.3-0.8-3.1-0.7-5.1,0.5L296.3,205c-3.9,2.3-7.1,7.8-7.1,12.3l0.2,68.5c0,2.2,0.8,3.8,2.1,4.6
					c1.2,0.7,2.4,1.4,3.5,2.1c0.1,0.1,0.2,0.1,0.4,0.2c0.8,0.5,1.6,1,2.5,1.4c0.2,0.1,0.5,0.3,0.7,0.4c-1.3-0.7-2.1-2.3-2.1-4.6
					l-0.2-68.5c0-4.5,3.2-10,7.1-12.3l59.7-34.4c2-1.1,3.8-1.2,5.1-0.5C365.7,172.8,363.3,171.4,361,170z"/>
				<path class="st2" d="M300.4,295.4L300.4,295.4c-0.8,0-1.5-0.2-2.1-0.6l0,0l0,0l-7.1-4.1c-1.5-0.9-2.3-2.6-2.3-5l-0.2-68.5
					c0-4.7,3.3-10.4,7.4-12.7l59.7-34.4c2.1-1.2,4.1-1.4,5.6-0.5l7.1,4.1c1.5,0.9,2.3,2.6,2.3,5l0.2,68.5c0,4.7-3.3,10.4-7.4,12.7
					l-59.7,34.4C302.6,295.1,301.5,295.4,300.4,295.4z M298.6,293.9c1.2,0.8,2.9,0.7,4.7-0.4l59.7-34.4c3.8-2.2,6.8-7.5,6.8-11.8
					l-0.2-68.5c0-2-0.7-3.4-1.8-4.1l0,0l-7.1-4.1c-1.2-0.7-2.8-0.5-4.5,0.5l-59.7,34.4c-3.8,2.2-6.8,7.5-6.8,11.8l0.2,68.5
					c0,2,0.7,3.4,1.8,4.1L298.6,293.9L298.6,293.9C298.6,293.9,298.6,293.9,298.6,293.9L298.6,293.9
					C298.6,293.9,298.6,293.9,298.6,293.9z"/>
				<path class="st3" d="M363,174.6c3.9-2.3,7.1-0.4,7.1,4.1l0.2,68.5c0,4.5-3.2,10-7.1,12.3L303.6,294c-3.9,2.3-7.1,0.4-7.1-4.1
					l-0.2-68.5c0-4.5,3.2-10,7.1-12.3L363,174.6z"/>
				<path class="st2" d="M300.4,295.4c-2.7,0-4.5-2.2-4.5-5.6l-0.2-68.5c0-4.7,3.3-10.4,7.4-12.7l59.7-34.4c1.2-0.7,2.3-1,3.4-1
					c2.7,0,4.5,2.2,4.5,5.6l0.2,68.5c0,4.7-3.3,10.4-7.4,12.7l-59.7,34.4C302.6,295.1,301.5,295.4,300.4,295.4z M366.2,174.2
					c-0.9,0-1.9,0.3-2.9,0.9l-59.7,34.4c-3.8,2.2-6.8,7.5-6.8,11.8l0.2,68.5c0,2.8,1.3,4.5,3.4,4.5c0.9,0,1.9-0.3,2.9-0.9l59.7-34.4
					c3.8-2.2,6.8-7.5,6.8-11.8l-0.2-68.5C369.6,175.9,368.3,174.2,366.2,174.2z"/>
			</g>
			<g>
				<path class="st1" d="M350.8,236.4l-3.5-0.1c-0.4,0-1,0.3-1.4,0.9l-3.2,4c-0.6,0.7-1.3,1.1-1.8,1l-2.8-0.3
					c-0.6-0.1-1.4,0.4-2,1.2l-2.6,3.4c-0.6,0.7-1.3,1.2-1.9,1.1l-3.2-0.3c-0.4,0-1,0.3-1.4,0.8l-3.1,3.8c-0.5,0.7-1.2,0.6-1.2-0.1
					v-13.1l29.3-16.9v13.1C352,235.6,351.3,236.4,350.8,236.4z"/>
				<path class="st1" d="M325.5,241.9c-0.4,0.2-0.8,0.3-1,0.1l-7.1-5.1c-0.3-0.2-0.7-0.2-1.1,0.1l-4.9,2.8c-0.8,0.4-1.4,0.1-1.4-0.8
					c0-0.9,0.6-1.9,1.4-2.4l4.9-2.8c1.2-0.7,2.4-0.8,3.2-0.2l7.1,5.1c0.5,0.4,0.4,1.4-0.1,2.3C326.1,241.4,325.8,241.7,325.5,241.9z
					"/>
				<ellipse transform="matrix(0.5 -0.866 0.866 0.5 -37.5183 421.8814)" class="st1" cx="346.6" cy="243.4" rx="4.3" ry="2.5"/>
				<path class="st1" d="M345.7,222.4c0-5.3-3.7-7.5-8.4-4.8s-8.4,9.2-8.4,14.5L345.7,222.4z"/>
				<ellipse transform="matrix(0.5 -0.866 0.866 0.5 -56.3195 411.0265)" class="st1" cx="327.8" cy="254.3" rx="4.3" ry="2.5"/>
				<ellipse transform="matrix(0.5 -0.866 0.866 0.5 -17.501 399.5984)" class="st1" cx="337.3" cy="215" rx="1.3" ry="0.8"/>
			</g>
		</g>
		<g>
			<g>
				<path class="st0" d="M413.8,210.9c-0.9-0.5-2.2-0.5-3.6,0.3L367.3,236c-2.8,1.6-5.1,5.6-5.1,8.8l0.1,49.2c0,1.6,0.6,2.7,1.5,3.3
					c0.8,0.5,1.7,1,2.5,1.5c0.1,0,0.2,0.1,0.3,0.1c0.6,0.3,1.2,0.7,1.8,1c0.2,0.1,0.4,0.2,0.5,0.3c-0.9-0.5-1.5-1.7-1.5-3.3
					l-0.1-49.2c0-3.2,2.3-7.2,5.1-8.8l42.8-24.7c1.4-0.8,2.7-0.9,3.6-0.3C417.2,212.9,415.5,211.9,413.8,210.9z"/>
				<path class="st2" d="M370.3,301L370.3,301c-0.6,0-1.1-0.1-1.5-0.4l0,0l0,0l-5.1-2.9c-1.1-0.6-1.7-1.9-1.7-3.6l-0.1-49.2
					c0-3.4,2.4-7.5,5.3-9.1l42.8-24.7c1.5-0.9,2.9-1,4-0.3l5.1,3c1.1,0.6,1.7,1.9,1.7,3.6l0.1,49.2c0,3.4-2.4,7.5-5.3,9.1
					l-42.8,24.7C371.9,300.7,371.1,301,370.3,301z M369,299.8c0.8,0.6,2.1,0.5,3.4-0.3l42.8-24.7c2.7-1.6,4.9-5.4,4.9-8.5l-0.1-49.2
					c0-1.4-0.5-2.5-1.3-3l0,0l-5.1-2.9c-0.8-0.5-2-0.4-3.3,0.3l-42.8,24.7c-2.7,1.6-4.9,5.4-4.9,8.5l0.1,49.2c0,1.4,0.5,2.5,1.3,2.9
					L369,299.8L369,299.8C369,299.8,369,299.8,369,299.8L369,299.8C369,299.8,369,299.8,369,299.8z"/>
				<path class="st1" d="M415.2,214.2c2.8-1.6,5.1-0.3,5.1,2.9l0.1,49.2c0,3.2-2.3,7.2-5.1,8.8l-42.8,24.7c-2.8,1.6-5.1,0.3-5.1-2.9
					l-0.1-49.2c0-3.2,2.3-7.2,5.1-8.8L415.2,214.2z"/>
				<path class="st2" d="M370.3,301c-1.9,0-3.2-1.6-3.2-4l-0.1-49.2c0-3.4,2.4-7.5,5.3-9.1l42.8-24.7c0.9-0.5,1.7-0.7,2.5-0.7
					c1.9,0,3.2,1.6,3.2,4l0.1,49.2c0,3.4-2.4,7.5-5.3,9.1l-42.8,24.7C371.9,300.7,371.1,301,370.3,301z M417.5,213.9
					c-0.6,0-1.4,0.2-2.1,0.6l-42.8,24.7c-2.7,1.6-4.9,5.4-4.9,8.5l0.1,49.2c0,2,1,3.2,2.5,3.2c0.6,0,1.4-0.2,2.1-0.6l42.8-24.7
					c2.7-1.6,4.9-5.4,4.9-8.5l-0.1-49.2C420,215.1,419,213.9,417.5,213.9z"/>
			</g>
			<g>
				<g>
					<path class="st8" d="M404.3,235.6l-19,11c-0.7,0.4-1.2,1.5-1.2,2.4v26.8c0,0.9,0.6,1.3,1.2,0.9l19-11c0.7-0.4,1.2-1.5,1.2-2.4
						v-26.8C405.5,235.6,404.9,235.2,404.3,235.6z M394.7,267.1c-3.3,1.9-6.1,0.4-6.1-3.5s2.7-8.6,6.1-10.5c3.3-1.9,6.1-0.4,6.1,3.5
						S398.1,265.1,394.7,267.1z M400.8,245.5c0,0.3-0.2,0.7-0.5,0.9l-11.2,6.4c-0.3,0.1-0.5,0-0.5-0.4v-2.3c0-0.3,0.2-0.7,0.5-0.9
						l11.2-6.4c0.3-0.1,0.5,0,0.5,0.4V245.5z"/>
				</g>
			</g>
		</g>
		<path class="st0" d="M430.1,253.1c0,1.5-1.1,3.4-2.4,4.1l-10.1,5.8c-1.3,0.8-2.4,0.1-2.4-1.4l0-11.7c0-1.5,1.1-3.4,2.4-4.1
			l10.1-5.8c1.3-0.8,2.4-0.1,2.4,1.4L430.1,253.1z"/>
		<path class="st0" d="M64.7,323.6c0,2.1,1.5,4.7,3.3,5.7l13.9,8c1.8,1,3.3,0.2,3.3-1.9l0-16.1c0-2.1-1.5-4.7-3.3-5.7l-13.9-8
			c-1.8-1-3.3-0.2-3.3,1.9L64.7,323.6z"/>
		<g>
			<g>
				<g>
					<path class="st1" d="M206.8,256.1c-1-0.3-3.3-2.6-3.8-3.1c-0.5-0.5-3.2-4.1-4.3-6.2c-1.1-2.1-1.1-8-1.1-9.4
						c-0.1-1.4,4.2-9.7,5.7-11.8c1.5-2.1,3.8-8.1,4-9.4l9.6,2.5c0,0-2.4,4.6-2.6,5.4c-0.2,1,0,4.2,0.3,6.8c0.3,2.6-2,6.9-2.4,8.2
						c-0.5,1.3-1,3.7-1,3.7s0.7,3.3,0.8,3.8c0.2,0.5,3.3,4.1,3.5,5c0.2,0.9-1.2,1.1-2,0.5c-0.8-0.6-3.9-3.7-4.6-4.8
						c-0.7-1.1-1.8-4.3-1.8-4.3s-0.1,2.8,0.1,4.3c0.2,1.5,1.9,3.7,3,4.9c1.1,1.2,1.4,3,0.7,3.4c-0.6,0.3-2-0.1-2-0.1
						S207.8,256.3,206.8,256.1z"/>
					<path class="st0" d="M210,252.2c1.1,1.2,1.4,3,0.7,3.4c-0.6,0.3-2-0.1-2-0.1s0,0,0,0c-0.1-1.1-1.4-3.3-2.5-4
						c-1.2-0.7-2.5-4.6-3.2-5.6c-0.7-1-0.7-5.1-0.7-5.1l1.8-5.2c0,0,0.5,1.9,0.8,3.7c0.3,1.7,0.5,2.8,1.7,2.8c1.2,0,2.1-1.9,2.4-2.8
						c0.3-0.9,0-5.9,0-5.9s2.4-3.3,2.9-4.8c0.4-1.5,0-4.3,0-4.3l3-6.2l2.1,0.5c0,0-2.4,4.6-2.6,5.4c-0.2,1,0,4.2,0.3,6.8
						c0.3,2.6-2,6.9-2.4,8.2c-0.5,1.3-1,3.7-1,3.7s0.7,3.3,0.8,3.8c0.2,0.5,3.3,4.1,3.5,5c0.2,0.9-1.2,1.1-2,0.5
						c-0.8-0.6-3.9-3.7-4.6-4.8c-0.7-1.1-1.8-4.3-1.8-4.3s-0.1,2.8,0.1,4.3C207.2,248.8,208.9,251,210,252.2z"/>
					<path class="st2" d="M217.2,218.5l-0.2,0.3c-0.7,1.3-2.4,4.7-2.6,5.3c0,0.2-0.1,0.4-0.1,0.7c-0.1,1.5,0.2,4.1,0.4,6
						c0,0.2,0,0.5,0,0.8c-0.1,2-1.2,4.6-2,6.3c-0.2,0.5-0.4,0.9-0.5,1.2c-0.4,1.2-0.9,3.2-1,3.6c0.1,0.4,0.7,3.3,0.8,3.8
						c0.1,0.2,0.7,1,1.3,1.7c1.3,1.6,2.2,2.8,2.3,3.4c0.1,0.4-0.1,0.8-0.5,1c-0.5,0.3-1.3,0.2-1.9-0.2c-0.8-0.5-4-3.7-4.7-4.9
						c-0.4-0.7-1-2-1.4-3c0,0.9,0,2.1,0.1,2.9c0.2,1.3,1.6,3.4,2.9,4.8c0.8,0.9,1.2,2.1,1.1,2.8c0,0.5-0.2,0.8-0.5,1
						c-0.6,0.3-1.7,0.1-2.1,0c-0.3,0.2-1.1,0.7-2,0.5c-1.1-0.3-3.6-2.8-3.9-3.2c-0.5-0.5-3.2-4.1-4.4-6.2c-1-1.9-1.1-6.6-1.2-8.8
						c0-0.3,0-0.5,0-0.7l0-0.1c0.1-1.7,4.2-9.8,5.7-11.9c1.5-2.1,3.8-8.1,3.9-9.3l0-0.3L217.2,218.5z M206.6,243l0.1-1.4l0.5,1.3
						c0,0,1.1,3.1,1.8,4.2c0.7,1.1,3.8,4.2,4.6,4.7c0.4,0.3,1,0.3,1.3,0.2c0.2-0.1,0.2-0.3,0.2-0.3c0,0,0-0.1,0-0.1
						c-0.1-0.5-1.3-2-2.2-3.1c-0.8-1.1-1.3-1.6-1.3-1.9c-0.2-0.5-0.8-3.7-0.8-3.9l0-0.1l0-0.1c0-0.1,0.6-2.4,1-3.7
						c0.1-0.3,0.3-0.7,0.5-1.2c0.7-1.7,1.8-4.2,1.9-6.2c0-0.2,0-0.5,0-0.7c-0.3-2.4-0.5-5.9-0.3-6.9c0.2-0.7,1.9-4,2.5-5.1l-9-2.3
						c-0.4,1.8-2.6,7.2-4,9.2c-1.4,2.1-5.6,10.1-5.6,11.6c0,0.2,0,0.5,0,0.8c0,2,0.1,6.8,1.1,8.6c1.1,2,3.8,5.6,4.3,6.1
						c0.6,0.6,2.8,2.8,3.7,3c0.8,0.2,1.6-0.5,1.6-0.5l0.1-0.1l0.1,0c0.5,0.2,1.4,0.3,1.8,0.1c0.4-0.2,0.3-1.8-0.8-3
						c-1-1.1-2.8-3.4-3-5.1C206.5,245.9,206.6,243.1,206.6,243z"/>
					<path class="st8" d="M230.3,162c-0.4-0.3-0.8-0.7-1.1-1.1c-0.4-0.6-0.8-1.3-1.1-1.9c0-0.1-0.1-0.2-0.1-0.3
						c-0.2-0.5-0.4-1.2-0.5-1.8c0-0.2,0-0.3-0.1-0.5c-2.6-1.1,4.5-30.7,1.5-30.5c-4.8,0.1-7.7,5.8-8.4,8.4
						c-1.1,4.4-0.3,8.8-0.4,13.5c-0.2,6.2-0.9,11.5-1.1,12.6c-0.3,4.7-0.8,8.5-1.3,12.8c-0.1,0.7-0.1,1.2-0.2,1.8
						c0.2,0.2-0.2,1.4-0.2,1.4s0,0.5,0,1.1c-0.1,0.2,0,0.8,0,1c-0.9,2.6-2.3,6.6-2.9,9.3c-0.9,4.2-4.3,16.9-5.1,19.3
						c-0.8,2.4-3.3,11.4-3.3,11.4l10.3,2.6c0,0,5.4-10.6,7.1-13.6c1.7-3,13.9-26.7,14.1-30.9C237.5,174,233.8,167.2,230.3,162
						C230.3,162.1,230.3,162.1,230.3,162z"/>
					<path class="st27" d="M222.7,153.1c-0.3,1.3-1.6,5.8,0.3,10c3.2,6.8,4.5,8.7,3.5,10c-1,1.3-6.8,1.6-4,2.7
						c2.8,1.1,5.3,4.6,3.2,9.9c-1.8,4.4-10.2,25.5-13,34.7l3.6,0.9c0,0,5.4-10.6,7.1-13.6c1.7-3,14-26.8,14.3-30.9
						c0.3-3.6,9.7-19.1,7.9-25.2C244.4,151.7,230.2,154.2,222.7,153.1z"/>
					<path class="st2" d="M237.6,176.7c-0.2,0-0.4,0-0.5,0c-0.2,4-12.4,27.9-14,30.8c-1.5,2.8-6.2,11.9-7,13.4l-9.8-2.5
						c0.4-1.5,2.5-9,3.3-11.1c0.8-2.4,4.2-15,5.1-19.3c0.5-2.5,1.8-6.3,2.7-8.9c-0.2,0-0.4,0-0.6,0.1c-0.9,2.7-2.1,6.3-2.7,8.8
						c-0.9,4.3-4.3,16.8-5.1,19.2c-0.8,2.4-3.3,11.3-3.3,11.4l-0.1,0.3l10.5,2.7l0.2,0.1l0.1-0.2c0.1-0.1,5.4-10.6,7.1-13.6
						C225.2,204.8,237.4,181,237.6,176.7C237.6,176.8,237.6,176.7,237.6,176.7z"/>
				</g>
				<path class="st2" d="M220,154.7c0.2-2,0.3-3.7,0.4-4.8c0.2-1.9,0.1-3.9,0-6.1c-0.2-5.2-0.4-10.5,3.5-14.9
					c1.6-1.7,3.5-2.6,5.7-2.6c0-0.2,0.1-0.4,0.2-0.5c0,0-0.1,0-0.1,0c-2.4,0-4.4,0.9-6.1,2.8c-4.1,4.6-3.9,10-3.7,15.3
					c0.1,2.1,0.2,4.1,0,6c-0.1,1.1-0.3,2.8-0.4,4.8c-0.8,9.3-2.5,28.7-4,30.3c0,0,0,0-0.1,0.1c0.2,0.1,0.4,0.1,0.5,0.2
					C217.4,183,218.8,168.4,220,154.7z"/>
			</g>
			<g>
				<path class="st1" d="M255.7,344c-13.5,8.1-16.6-1.5-20.9-2.4c0,0-1,3.4-3,6.1c-1,1.3-3.3,2.9-4,3.3c-5,2.3-15,9.8-15.4,14.9
					c0-0.3,0.1-0.6,0.2-0.9c-0.4,0.9-0.7,1.7-0.7,2.4c-0.5,5.6,11.7,3.6,16.8,1c8.7-4.4,11.6-9,16-11.5c0.5-0.3,1.2-0.7,1.9-1v1.4
					l8.7-4.1c0,0,0.5-1.5,0.5-3.1c0.1-0.1,0.1-0.1,0.2-0.2C256.1,349.4,256.5,346.8,255.7,344z"/>
				<g>
					<path class="st2" d="M217.6,371.2c-2.5,0-4.3-0.5-5.2-1.6c-0.6-0.6-0.8-1.4-0.7-2.4c0.1-0.7,0.3-1.5,0.8-2.5
						c1.5-5.4,11-12.2,15.4-14.2c0.7-0.3,2.9-1.9,3.9-3.2c2-2.7,3-6,3-6l0.1-0.3l0.3,0.1c1.2,0.3,2.3,1.2,3.6,2.2
						c2,1.6,4.2,3.5,7.8,3.5c2.7,0,5.7-1,9.3-3.2l0.4-0.2l0.1,0.4c0.8,2.8,0.3,5.5,0.2,6c0,0.1-0.1,0.1-0.1,0.2c0,1.6-0.5,3-0.5,3.1
						l0,0.1l-9.2,4.3v-1.3c-0.5,0.3-1,0.5-1.4,0.8c-1.7,1-3.1,2.2-4.8,3.7c-2.6,2.3-5.9,5.1-11.2,7.8
						C226.3,369.9,221.6,371.2,217.6,371.2z M212.6,365.8c-0.2,0.6-0.3,1.1-0.4,1.5c-0.1,0.8,0.1,1.4,0.6,1.9
						c0.8,0.9,2.5,1.3,4.8,1.3c3.9,0,8.6-1.3,11-2.5c5.3-2.7,8.5-5.5,11.1-7.7c1.7-1.5,3.2-2.8,4.9-3.8c0.5-0.3,1.2-0.7,1.9-1
						l0.5-0.2v1.4l8.1-3.8c0.1-0.4,0.5-1.6,0.4-2.9l0-0.1l0.1-0.1c0.1-0.1,0.1-0.1,0.1-0.1c0.1-0.2,0.5-2.5-0.1-5.2
						c-3.5,2.1-6.5,3.1-9.2,3.1c-3.8,0-6.2-2-8.2-3.6c-1.1-0.9-2.1-1.7-3-2c-0.3,0.9-1.3,3.6-3,5.9c-1,1.4-3.4,3-4.1,3.4
						c-4.5,2-13.6,8.8-15,13.8l0,0c-0.1,0.3-0.1,0.6-0.2,0.8l0,0.1L212.6,365.8z"/>
				</g>
				<path class="st1" d="M253,309.9l-2.7-80.1l0-20.1c0,0-9.3,1.2-17.4-1.6c-3.1,1.6-6.2,3.3-9.2,5c-1.2,14.2-2.8,39.2-0.8,51.9
					c2.8,18.4,6.4,46.8,7.3,54.9c0.9,8.1,2.9,21.7-0.9,29.3c0,0,16.3,5.5,26.4-2.3L253,309.9z"/>
				<g>
					<path class="st2" d="M253.4,309.9l-2.7-80.1l0-20.5l-0.4,0c0,0-2,0.3-4.9,0.3c-3.1,0-7.8-0.3-12.1-1.8
						c-0.3,0.1-0.5,0.3-0.8,0.4c4.6,1.7,9.5,2,12.8,2c2.2,0,3.9-0.1,4.6-0.2l0,19.8l2.7,80.1l2.6,36.8c-3.5,2.7-8.1,4-13.8,4
						c0,0,0,0,0,0c-5.6,0-10.5-1.4-11.8-1.8c3.3-6.9,2-18.2,1.1-26.4c-0.1-0.9-0.2-1.8-0.3-2.7c-0.8-7.7-4.4-36.2-7.3-54.9
						c-1.9-12.7-0.3-37.9,0.9-52.1c-0.2,0.1-0.4,0.3-0.7,0.4c-1.2,14.3-2.7,39.2-0.8,51.8c2.8,18.7,6.5,47.2,7.3,54.9
						c0.1,0.8,0.2,1.7,0.3,2.7c0.9,8.3,2.2,19.7-1.2,26.4l-0.2,0.3l0.3,0.1c0.1,0,5.7,1.9,12.3,1.9c0,0,0,0,0,0
						c5.9,0,10.7-1.4,14.3-4.2l0.1-0.1L253.4,309.9z"/>
				</g>
				<path class="st1" d="M283.8,359c-0.4-0.8-4.2,6.9-8.1,7.5c-3.4,0.5-9-3-11.5-4.1c0.3,3.3-3.1,8.1-3.4,8.5
					c-1.5,1.9-12.3,13.7-10.5,19.2c0-0.1,0-0.1-0.1-0.2c0.1,1.4,0.5,2.7,1.8,3.4c6.9,3.6,19.4-2.5,21.9-7.6c2.4-5,2-8.5,4.9-11.5
					l0.1,1c0,0,3.3-2.7,5.3-6.5l-0.2-3.2c-0.1,0.2-0.1,0.3-0.2,0.5c0.3-0.6,0.5-1.3,0.7-2C285,362,284.1,359.7,283.8,359z"/>
				<g>
					<path class="st2" d="M257,394.7c-1.9,0-3.7-0.4-5.1-1.1c-1.3-0.7-1.9-1.9-2-3.6l0,0c-0.2-0.6-0.2-1.3-0.1-2l0-0.8l0.1,0.4
						c0.9-5.3,7.1-12.6,9.7-15.7c0.4-0.5,0.8-0.9,0.9-1.1c0.7-0.9,3.6-5.3,3.3-8.3l-0.1-0.5l0.5,0.2c0.5,0.2,1.2,0.6,1.9,0.9
						c2.8,1.5,6.8,3.5,9.4,3.1c2.4-0.3,4.8-3.7,6.3-5.7c1-1.4,1.3-1.8,1.7-1.8c0.2,0,0.3,0.1,0.4,0.2c0.2,0.5,1.3,3,0.8,5.2
						c-0.1,0.5-0.3,0.9-0.4,1.4l0.2,3.3l0,0.1c-2,3.8-5.3,6.5-5.4,6.6l-0.5,0.4l-0.1-0.8c-1.3,1.6-1.8,3.3-2.4,5.4
						c-0.5,1.6-1,3.4-2,5.4C272.3,389.8,264.2,394.7,257,394.7z M250.5,390c0.1,1.5,0.6,2.5,1.7,3c1.3,0.7,2.9,1,4.8,1
						c6.8,0,14.9-4.7,16.7-8.5c0.9-2,1.5-3.8,1.9-5.4c0.7-2.3,1.3-4.4,3-6.2l0.5-0.5l0.1,1.1c1-0.9,3.2-3.1,4.7-5.9l-0.1-2.7
						l-0.2-0.1c0.3-0.7,0.5-1.3,0.7-1.9c0.4-1.8-0.3-3.8-0.6-4.6c-0.2,0.2-0.7,0.9-1.1,1.4c-1.6,2.2-4.1,5.6-6.7,6
						c-0.2,0-0.5,0.1-0.7,0.1c-2.7,0-6.4-1.9-9.1-3.2c-0.5-0.3-1-0.5-1.4-0.7c0,3.5-3.4,8.1-3.5,8.2c-0.2,0.2-0.5,0.6-1,1.1
						C257.1,375.8,249.1,385.3,250.5,390L250.5,390z"/>
				</g>
				<path class="st1" d="M239.9,210.7c0,0,0.9,22.3,2.6,28.6c1.4,5.2,2.1,10.8,2.3,12.1c1.7,12.6,3.7,33.9,4.3,39.1
					c1.2,10.3,5.2,30.5,6.3,37.5c1.1,7,4.7,42.6,4.7,42.6s17.2-0.5,24.7-10.1c0,0-2.3-31.5-3.6-41.7c-1.3-10.2-4.1-11.4-4.8-18.6
					c-0.6-6.8,3.5-34.8,3.4-52.2c-0.1-17.4-6.6-41.1-6.6-41.1S269.8,214.9,239.9,210.7z"/>
				<g>
					<path class="st2" d="M259.8,370.9l0-0.3c0-0.4-3.6-35.7-4.7-42.6c-0.4-2.4-1.1-6.5-2-11.2c-1.6-8.7-3.5-19.6-4.3-26.3
						c-0.2-1.6-0.5-4.5-0.9-8.2c-0.9-8.8-2.2-22-3.4-30.9l0-0.1c-0.6-4.6-1.4-8.6-2.3-11.9c-1.7-6.3-2.6-27.8-2.7-28.7l0-0.4
						l0.4,0.1c5.8,0.8,11,1.2,15.5,1.2c15.2,0,17.5-4.8,17.5-4.8l0.4-0.8l0.2,0.9c0.1,0.2,6.5,24,6.6,41.2
						c0.1,9.4-1.1,21.7-2.1,32.6c-0.8,8.8-1.6,16.5-1.3,19.5c0.3,3.3,1.1,5.3,2,7.6c1,2.6,2.1,5.5,2.8,10.9
						c1.3,10.1,3.6,41.4,3.6,41.7l0,0.1l-0.1,0.1c-7.6,9.7-24.8,10.3-24.9,10.3L259.8,370.9z M240.3,211c0.1,3,1.1,22.4,2.6,28.1
						c0.9,3.4,1.7,7.4,2.3,12l0,0.1c1.2,8.9,2.5,22.1,3.4,30.9c0.4,3.7,0.7,6.7,0.9,8.2c0.8,6.7,2.7,17.6,4.3,26.3
						c0.8,4.7,1.6,8.7,2,11.2c1,6.6,4.3,38.9,4.7,42.3c2.3-0.1,17.2-1.2,24.1-9.9c-0.2-2.2-2.4-31.8-3.6-41.5
						c-0.7-5.4-1.8-8.3-2.8-10.8c-0.9-2.3-1.7-4.4-2-7.8c-0.3-3.1,0.4-10.8,1.3-19.7c1-10.8,2.2-23.1,2.1-32.5
						c-0.1-15.5-5.3-36.4-6.4-40.4c-1.1,1.4-5.1,4.6-17.7,4.6C251,212.2,245.9,211.8,240.3,211z"/>
				</g>
			</g>
			<path class="st1" d="M197,180.7c-1.4,0.2-5.5,1.1-6.3,0.8c-0.8-0.3-8.6-3.2-9.8-3.7c-1.2-0.5-5.6,0.3-7.9,1.5
				c-2.2,1.2-6.3,3.2-7.1,4c-0.8,0.8-2.8,3.4-3.7,4.6c-1,1.2-1.3,3.5-0.3,4c1,0.5,3.2-2.6,3.7-3.2c0.5-0.6,2.9-2.4,4.2-2.9
				c1.2-0.6,2.9-0.8,2.9-0.8s-0.8,2.7-1.1,3.6c-0.3,0.9-0.3,2,0.5,3.2c0.8,1.2,0.5,1.9,2,3.2c1.5,1.3,2.5,3.2,4.5,3
				c1.9-0.2,3.9-1.5,5-1.5c1.2,0,5.5-0.9,6.8-1.7c1.3-0.8,2.4-2.2,3.9-2.4c1.5-0.2,4.6-0.6,4.6-0.6L197,180.7z"/>
			<path class="st0" d="M171.6,188.5c0.1-0.3,0.2-0.7,0.4-1.2c0.2,0.7,0.5,1.7,0.7,2c0.2,0.4,1,1.9,1.5,2c0.5,0.1,0.7,1.1,1.5,2.6
				c0.8,1.5,3.8,2.3,5.4,1.9c1.6-0.4,3.4-0.6,5.6-2.1c2.2-1.5,4.9-3.2,8.2-3.6c1.3-0.2,2.6-0.3,3.6-0.4l0.3,1.9c0,0-3.1,0.4-4.6,0.6
				c-1.5,0.2-2.6,1.6-3.9,2.4c-1.3,0.8-5.6,1.7-6.8,1.7c-1.2,0-3.1,1.3-5,1.5c-1.9,0.2-3-1.7-4.5-3c-1.5-1.3-1.1-2-2-3.2
				C171.2,190.5,171.3,189.4,171.6,188.5z"/>
			<path class="st2" d="M178.7,198.1l-0.2,0c-1.6,0.1-2.6-1-3.6-2c-0.3-0.4-0.7-0.7-1-1c-1-0.9-1.2-1.5-1.4-2.1
				c-0.1-0.4-0.3-0.7-0.6-1.1c-0.8-1.1-0.9-2.2-0.5-3.4c0.2-0.7,0.7-2.4,0.9-3.2c-0.6,0.1-1.6,0.4-2.4,0.7c-1.2,0.5-3.6,2.3-4.1,2.9
				c-0.1,0.1-0.2,0.3-0.4,0.4c-1,1.3-2.2,2.8-3.2,2.9c-0.2,0-0.3,0-0.5-0.1c-0.3-0.2-0.6-0.5-0.7-1c-0.2-1,0.2-2.5,0.9-3.4
				c1-1.2,3-3.8,3.8-4.6c0.6-0.6,3.1-1.9,5.3-3.1c0.7-0.4,1.3-0.7,1.9-1c1.5-0.8,3.8-1.4,5.5-1.6c0.9-0.1,2-0.2,2.6,0.1
				c0.8,0.3,4.7,1.8,7.3,2.8c1.2,0.5,2.2,0.8,2.5,0.9c0.1,0,0.5,0.1,1.7-0.1c1.1-0.1,2.4-0.4,3.4-0.6c0.4-0.1,0.8-0.1,1.1-0.2l0.3,0
				l1.8,11.6l-4.8,0.6c-0.9,0.1-1.7,0.7-2.5,1.4c-0.4,0.3-0.8,0.7-1.3,1c-1.1,0.7-4.5,1.5-6.1,1.7c-0.3,0-0.6,0.1-0.8,0.1
				c-0.5,0-1.2,0.3-2,0.6C180.7,197.6,179.7,198,178.7,198.1z M173,184.6l-0.1,0.4c0,0.1-0.8,2.7-1.1,3.6c-0.3,1.1-0.2,2,0.5,2.9
				c0.3,0.5,0.5,0.9,0.6,1.3c0.2,0.6,0.4,1.1,1.3,1.9c0.4,0.3,0.7,0.7,1.1,1.1c1,1.1,1.9,2,3.2,1.8l0.1,0c0.9-0.1,1.9-0.5,2.7-0.8
				c0.8-0.3,1.6-0.6,2.2-0.6c0.2,0,0.4,0,0.7-0.1c1.7-0.2,4.9-1,5.9-1.6c0.4-0.3,0.8-0.6,1.2-0.9c0.8-0.7,1.7-1.4,2.8-1.5l4.3-0.5
				l-1.7-10.5c-0.2,0-0.5,0.1-0.8,0.1c-1,0.2-2.3,0.4-3.4,0.6c-1.4,0.2-1.8,0.1-2,0c-0.3-0.1-1.2-0.5-2.4-0.9
				c-2.6-1-6.5-2.5-7.3-2.8c-0.4-0.2-1.2-0.2-2.3,0c-1.6,0.2-3.9,0.7-5.3,1.5c-0.5,0.3-1.2,0.6-1.9,1c-2,1.1-4.6,2.4-5.1,3
				c-0.8,0.8-2.8,3.4-3.7,4.6c-0.6,0.8-1,2.1-0.8,2.9c0,0.2,0.2,0.5,0.4,0.6c0,0,0.1,0,0.2,0c0.8-0.1,2.2-1.9,2.8-2.7
				c0.2-0.2,0.3-0.4,0.4-0.5c0.5-0.6,3-2.4,4.2-3c1.2-0.6,2.9-0.8,3-0.8L173,184.6z"/>
			<path class="st8" d="M287.4,145.2c-1.3-4.7-4-10.5-10.5-15.5c-6.5-4.9-12.4-11.6-12.4-11.6l-19.7-3.6c0,0-2.4,1.6-5.4,4.1
				c-2.2-0.8-5.1-1.4-7.4-0.4c-4.7,1.9-10.8,12.5-11.5,16.1c0,0,0,0,0,0c0,0.1,0,0.2,0,0.2c0,0,0,0.1,0,0.1c-0.2,2.7-0.2,5.2,0,7.8
				c0.5,6.8,1.2,11.1,2.3,16.8c0.4,2,1,3.5,1.4,4c1,1.2,0.9,11.9,1,15.7c0.1,3.8,1.8,16.4,0.6,19.5c-1.2,3.1-4.9,16.7-5.7,18.2
				c-0.8,1.5-0.2,3.9,0.2,4.7c0.3,0.8,3.6,7.6,16.3,10.7c12.6,3.1,40.3-2.1,41.3-5.6c1-3.5-2.5-15.7-2.6-21.5
				c-0.1-5.8,3.8-21.5,6.2-27.5C283.7,171.5,288.7,149.9,287.4,145.2z"/>
			<path class="st27" d="M253.9,187.1c-2.2-1.1-16.2,5.5-20.7,6.2c-1.7,0.3-4.4,0.7-7,1c0-2.4-0.2-5.5-0.5-8.3
				c4.5-1.2,10.1-2.8,11.5-3.7c2.4-1.6,18.5-12.7,23.3-17.2c4.8-4.4,9.8-10.9,15-15.6c2.9-2.6,8.1-2.3,12.2-1.6
				c-0.2,7.5-4.2,24.3-6.3,29.5c-2.4,6-6.3,21.7-6.2,27.5c0.1,5.8,3.7,18,2.6,21.5c-0.6,2-9.8,4.5-19.9,5.7
				c-1.7-10.6,2.1-27.3,3-33.7C262.1,189.1,256,188.2,253.9,187.1z"/>
			<path class="st2" d="M287.7,145.1c-1.8-6.5-5.3-11.6-10.6-15.6c-6.4-4.8-12.3-11.5-12.3-11.5l-0.1-0.1l-19.9-3.6l-0.1,0.1
				c0,0-2.4,1.6-5.3,4c-3-1.1-5.5-1.2-7.5-0.4c-4.4,1.8-10.1,11.2-11.4,15.4c0,0.2,0,0.3,0,0.5c0,0.1,0,0.1,0,0.2
				c0,0.2,0,0.4-0.1,0.5c0,0,0,0.1,0,0.1c0,0,0,0,0,0c0.1-0.1,0.2-0.2,0.2-0.2l0.1-0.1l0-0.1c0.7-3.4,6.7-14,11.3-15.9
				c1.9-0.8,4.3-0.6,7.2,0.5l0.1,0.1l0.1-0.1c2.6-2.2,4.8-3.7,5.3-4l19.5,3.6c0.7,0.7,6.3,6.9,12.3,11.5c5.2,4,8.6,9,10.4,15.3
				c1.2,4.4-3.6,25.8-6.1,32.1c-2.4,6.2-6.3,21.8-6.2,27.6c0.1,2.5,0.8,6.2,1.4,9.8c0.9,4.8,1.8,9.7,1.2,11.6
				c-0.5,1.6-8.5,4.2-19.7,5.6c-8.7,1.1-16.5,1-21.3-0.2c-12.5-3.1-15.7-9.8-16.1-10.5c-0.3-0.7-0.9-3.1-0.2-4.5
				c0.4-0.8,1.7-5,3-9.5c1.1-3.6,2.2-7.3,2.7-8.7c0.8-2.2,0.3-8.9-0.2-14.2c-0.2-2.3-0.4-4.2-0.4-5.3c0-0.5,0-1.2,0-2
				c-0.1-6.5-0.2-12.9-1-13.9c-0.4-0.5-1-2-1.4-4.2l-0.1-0.5l-0.3,0.3c0,0.3,0,0.5-0.1,0.8c0.4,1.8,0.9,3.3,1.4,3.9
				c0.8,0.9,0.8,9.5,0.9,13.6c0,0.8,0,1.5,0,2c0,1.2,0.2,3.1,0.4,5.4c0.4,5,1,11.9,0.2,14c-0.5,1.4-1.7,5.2-2.7,8.8
				c-1.3,4.2-2.5,8.6-3,9.4c-0.8,1.5-0.2,4,0.2,5c0.3,0.8,3.7,7.7,16.4,10.8c4.9,1.2,12.7,1.3,21.5,0.2c9.2-1.1,19.4-3.6,20.1-5.9
				c0.6-2.1-0.3-6.8-1.2-11.9c-0.7-3.6-1.4-7.3-1.4-9.7c-0.1-5.7,3.7-21.2,6.2-27.4C283.9,171.8,289.1,150,287.7,145.1z"/>
			<path class="st27" d="M239.2,172l-13.8,5.6c0-2,0-4.7-0.1-7.3c4.8-0.1,13.1-3,16.9-6.7c4.4-4.3,19.8-18.6,19.8-18.6l6.5-0.1
				l0.2-0.3l-6.9,11.9L239.2,172z"/>
			<g>
				<path class="st8" d="M192.4,181l2.2,11.6c0,0,8.6-0.6,13.3-0.4c4.7,0.2,27,0,33-2.8c6-2.9,22.2-16.5,28.1-20.2
					c5.9-3.7,19.2-17.4,18.6-22.5c-0.5-5.1-3.5-15.3-11.8-13.9c-8.3,1.4-11.3,9.5-16,14.4c-4.7,4.9-22.6,24.5-25.4,24.8
					c-2.7,0.3-25.8,5.5-29.6,6.6C201.1,179.9,192.4,181,192.4,181z"/>
				<path class="st2" d="M232.9,191.5L232.9,191.5c-9,1.1-21.6,1.1-24.9,1c-4.6-0.2-13.2,0.4-13.2,0.4l-0.2,0l-2.3-12.2l0.3,0
					c0.1,0,8.7-1.2,12.4-2.3c3.9-1.2,26.9-6.3,29.6-6.7c2.2-0.3,15.5-14.5,21.9-21.3c1.4-1.5,2.5-2.7,3.3-3.5c1.3-1.4,2.5-3,3.7-4.7
					c3.1-4.3,6.3-8.7,12.4-9.8c2.5-0.4,4.6,0.1,6.5,1.6c3.5,2.8,5.2,8.5,5.7,12.5c0.6,5.5-13.2,19.3-18.8,22.7
					c-2.4,1.5-6.7,4.8-11.2,8.2c-6.3,4.8-13.4,10.3-16.9,12C239.5,190.5,236.7,191.1,232.9,191.5z M194.9,192.4
					c1.4-0.1,8.9-0.5,13.1-0.4c3.3,0.1,15.9,0.1,24.9-1l0,0c3.8-0.5,6.5-1.1,8-1.8c3.5-1.7,10.6-7.1,16.8-11.9
					c4.5-3.5,8.7-6.7,11.2-8.2c6-3.7,19-17.3,18.5-22.2c-0.4-4-2.1-9.5-5.4-12.2c-1.7-1.4-3.8-1.9-6.1-1.5c-5.8,1-9,5.3-12,9.5
					c-1.2,1.7-2.4,3.3-3.8,4.7c-0.8,0.8-1.9,2-3.3,3.5c-9.6,10.2-20.1,21.2-22.2,21.4c-2.7,0.3-25.6,5.5-29.5,6.6
					c-3.4,1-10.7,2-12.2,2.2L194.9,192.4z"/>
			</g>
			<g>
				<g>
					<path class="st0" d="M262,103.4c0,0-1.2,10.9,2.6,14.8c0,0-6.2,7.8-9.1,10.3c-2.9,2.5-8.8,7.6-14.2,5.5
						c-5.5-2.1-3.5-13.1-3.5-13.1L262,103.4z"/>
					<path class="st2" d="M245.1,134.7c-1.4,0.2-2.7,0-3.9-0.5c-5.6-2.2-3.7-13-3.6-13.4l0-0.1l24.8-17.8l-0.1,0.6
						c0,0.1-1.1,10.9,2.6,14.6l0.2,0.2l-0.1,0.2c-0.3,0.3-6.3,7.9-9.2,10.3l-0.1,0.1C253.2,130.8,249.3,134.1,245.1,134.7z M238,121
						c-0.2,1.1-1.6,10.8,3.3,12.7c1.1,0.4,2.4,0.6,3.6,0.4c4-0.5,7.9-3.8,10.1-5.7l0.1-0.1c2.6-2.2,8-8.9,8.9-10.1
						c-3.2-3.5-2.8-11.9-2.6-14.2L238,121z"/>
				</g>
				<path class="st1" d="M254.9,74.5c-15.4-5.2-24.5,9.9-25.2,12.4c-0.7,2.5-2.2,8.2-2.1,9.3c0.1,1.1,1.6,3.9,1.6,3.9l0.2,1.9
					c-0.8,3,1,8.4,1,8.4c-0.5,0.9,0.3,2.4,0.3,2.4s1.6,4.4,2.1,6.8c0.5,2.4,1.2,3.4,3.9,3.9c2.7,0.5,8.9-1.6,14.1-5
					c3.7-2.4,6.7-7,8.1-9.6c1.6-0.4,3.9-2.9,4.9-5.4c0.6-1.6,0.8-3,0.6-3.9C266.1,92.7,267.1,78.6,254.9,74.5z"/>
				<path class="st0" d="M228.1,97.8c0.7,0.7,1.6,1.5,2.1,2c1.1,1.2,2.6,1.4,2.2,4.1c-0.4,2.7-1.9,6.5-1.9,6.5s-1.9-5.4-1-8.4
					l-0.2-1.9C229.2,100.2,228.5,98.9,228.1,97.8z"/>
				<path class="st0" d="M232.9,119.6c-0.5-2.4-2.1-6.8-2.1-6.8l2.2,0.4c0,0,1,6.7,3,10.1C233.9,122.8,233.3,121.7,232.9,119.6z"/>
				<path class="st2" d="M238.8,123.8L238.8,123.8c-0.8,0.1-1.5,0.1-2.1,0c-2.9-0.5-3.7-1.8-4.1-4.1c-0.5-2.3-2.1-6.7-2.1-6.7
					c0,0-0.8-1.5-0.3-2.5c-0.3-0.8-1.8-5.6-1-8.4l-0.2-1.8c-0.2-0.4-1.5-2.9-1.6-3.9c-0.1-0.8,0.6-4,2.1-9.4
					c0.7-2.4,6.8-12.3,17-13.6c2.8-0.3,5.6,0,8.5,0.9c13.3,4.5,10.9,20.4,9.9,25.3c0.3,1,0.1,2.4-0.6,4c-1,2.5-3.3,5-5,5.6
					c-1.5,2.6-4.5,7.2-8.2,9.6C247.1,121.4,242.2,123.4,238.8,123.8z M246.5,73.8C235.9,75.1,230.4,85.6,230,87
					c-1.9,7.1-2.1,8.8-2.1,9.2c0.1,1,1.5,3.8,1.5,3.8l0,0.1l0.2,2c-0.8,2.8,1,8.2,1,8.2l0,0.1l-0.1,0.1c-0.4,0.6,0.1,1.8,0.3,2.2
					c0.1,0.2,1.7,4.4,2.1,6.8c0.4,2.2,1,3.2,3.7,3.7c0.5,0.1,1.2,0.1,1.9,0c3.3-0.4,8.1-2.4,12-4.9c3.6-2.3,6.6-7,8-9.5l0.1-0.1
					l0.1,0c1.4-0.4,3.7-2.6,4.8-5.3c0.6-1.5,0.8-2.8,0.5-3.7l0-0.1l0-0.1c1-4.7,3.5-20.4-9.5-24.8C252,73.8,249.2,73.5,246.5,73.8z"
					/>
				<g>
					<path class="st0" d="M251.7,72.9c-9.8-0.8-17.7,4.8-21,8.7c-3.2,3.8-2.4,8.4,2.5,10.2c2.3,0.9,5-0.2,8.5-0.6
						c3.5-0.4,6.4-1.3,7.1,1.8c0.7,3,1.1,3,2.7,3.9c1.5,0.8,1.7,4.7,3.9,5c0.7,0.1,2,0,3.4-0.2c0.7-1.8,2.3-3.7,3.9-3.7
						c1,0,1.7,0.6,1.9,1.5c0.6-2.6,1.8-8.6,1.6-12.2C265.9,82.8,261.5,73.7,251.7,72.9z"/>
					<path class="st2" d="M258.6,102.1c-1.6,0.2-2.7,0.2-3.3,0.2c-1.4-0.2-2-1.7-2.6-3c-0.4-0.9-0.8-1.8-1.4-2.1L251,97
						c-1.4-0.7-1.8-1.1-2.5-3.9c-0.5-2-1.9-2.2-4.6-1.9c-0.3,0-0.5,0.1-0.8,0.1c-0.5,0.1-0.9,0.1-1.4,0.2l-0.3,0
						c-0.9,0.1-1.8,0.3-2.7,0.4c-0.7,0.1-1.5,0.3-2.1,0.3c-1.5,0.2-2.5,0.1-3.5-0.3c-2.3-0.9-3.9-2.5-4.4-4.4
						c-0.5-2,0.1-4.3,1.8-6.3c2.9-3.4,8.9-7.7,16.5-8.7c1.6-0.2,3.2-0.2,4.8-0.1c9.9,0.8,14.5,10,14.7,14.7
						c0.2,3.6-1.1,9.7-1.6,12.2l-0.2,1l-0.3-1c-0.2-0.8-0.8-1.2-1.7-1.3c-1.5-0.1-3,1.8-3.6,3.5l-0.1,0.2L258.6,102.1z M243.8,90.7
						c2.5-0.3,4.6-0.3,5.2,2.3c0.6,2.7,1,2.9,2.2,3.5l0.3,0.2c0.7,0.4,1.2,1.4,1.6,2.4c0.5,1.2,1.1,2.5,2.2,2.6
						c0.6,0.1,1.7,0,3.2-0.1c0.7-1.8,2.3-3.8,4.1-3.7c0.8,0,1.4,0.3,1.8,0.9c0.6-2.8,1.6-8.1,1.4-11.3c-0.2-4.6-4.6-13.5-14.2-14.2
						c-1.5-0.1-3.1-0.1-4.6,0.1c-7.3,0.9-13.3,5.1-16.1,8.5c-1.6,1.9-2.2,3.9-1.7,5.8c0.5,1.8,1.9,3.2,4.1,4
						c0.9,0.3,1.9,0.4,3.2,0.2c0.7-0.1,1.4-0.2,2.1-0.3c0.9-0.2,1.7-0.3,2.7-0.4l0.3,0c0.5-0.1,0.9-0.1,1.4-0.2
						C243.3,90.8,243.6,90.8,243.8,90.7z"/>
				</g>
			</g>
			<path class="st2" d="M220.6,133.4c-0.8,2.2-0.4,8.8,0.3,14.9c0.7,5.8,1.8,11.2,1.8,11.2l0.4-0.6c0,0-3.4-17.8-2.1-25.1"/>
		</g>
		<g>
			<g>
				<path class="st4" d="M109.3,166.6c1.1-0.6,2.6-0.5,4.2,0.4l49.5,28.6c3.2,1.9,5.9,6.5,5.9,10.2l-0.2,56.8c0,1.9-0.7,3.2-1.7,3.8
					c-1,0.6-2,1.1-2.9,1.7c-0.1,0.1-0.2,0.1-0.3,0.2c-0.7,0.4-1.4,0.8-2.1,1.2c-0.2,0.1-0.4,0.2-0.6,0.3c1.1-0.6,1.7-1.9,1.7-3.8
					l0.2-56.8c0-3.7-2.6-8.3-5.9-10.2l-49.5-28.6c-1.6-0.9-3.1-1-4.2-0.4C105.4,168.8,107.4,167.7,109.3,166.6z"/>
				<path class="st2" d="M156.7,269.7l-49.5-28.6c-3.4-1.9-6.1-6.7-6.1-10.6l0.2-56.8c0-1.9,0.7-3.4,1.9-4.1l5.9-3.4
					c1.2-0.7,2.9-0.6,4.6,0.4l49.5,28.6c3.4,1.9,6.1,6.7,6.1,10.6l-0.2,56.8c0,1.9-0.7,3.4-1.9,4.1l-5.9,3.4l0,0l0,0
					c-0.5,0.3-1.1,0.5-1.8,0.5l0,0C158.6,270.5,157.7,270.2,156.7,269.7z M161,269.2L161,269.2C161,269.2,161,269.2,161,269.2
					L161,269.2l5.7-3.3c1-0.6,1.5-1.8,1.5-3.4l0.2-56.8c0-3.6-2.5-8-5.7-9.8l-49.5-28.6c-1.4-0.8-2.8-1-3.8-0.4l-5.9,3.4l0,0
					c-1,0.6-1.5,1.8-1.5,3.4l-0.2,56.8c0,3.6,2.5,8,5.7,9.8l49.5,28.6C158.6,269.8,160,269.9,161,269.2
					C161,269.2,161,269.2,161,269.2z"/>
				<path class="st5" d="M107.6,170.4c-3.2-1.9-5.9-0.4-5.9,3.4l-0.2,56.8c0,3.7,2.6,8.3,5.9,10.2l49.5,28.6
					c3.2,1.9,5.9,0.4,5.9-3.4l0.2-56.8c0-3.7-2.6-8.3-5.9-10.2L107.6,170.4z"/>
				<path class="st2" d="M156.7,269.7l-49.5-28.6c-3.4-1.9-6.1-6.7-6.1-10.6l0.2-56.8c0-2.8,1.5-4.6,3.7-4.6c0.9,0,1.9,0.3,2.8,0.9
					l49.5,28.6c3.4,1.9,6.1,6.7,6.1,10.6l-0.2,56.8c0,2.8-1.5,4.6-3.7,4.6C158.6,270.5,157.7,270.2,156.7,269.7z M102.2,173.7
					l-0.2,56.8c0,3.6,2.5,8,5.7,9.8l49.5,28.6c0.8,0.5,1.7,0.7,2.4,0.7c1.8,0,2.8-1.4,2.9-3.7l0.2-56.8c0-3.6-2.5-8-5.7-9.8
					l-49.5-28.6c-0.8-0.5-1.7-0.7-2.4-0.7C103.3,170,102.2,171.4,102.2,173.7z"/>
			</g>
			<polygon class="st1" points="138.6,207.3 138.6,240.5 120.1,213.2 			"/>
		</g>
	</g>
</g>
</svg>
