<svg xmlns="http://www.w3.org/2000/svg" xmlns:xlink="http://www.w3.org/1999/xlink" viewBox="0 0 488 400"><style><![CDATA[.O{fill:#171f2e}.P{fill:#d6dfeb}.Q{fill:#fff}.R{enable-background:new}.S{fill:#8b90fc}.T{fill:#4649a6}.U{fill:#6b70fc}.V{stroke-miterlimit:10}.W{stroke-linecap:round}]]></style><path d="M308.4 337.1l-66.7 38.5-66.6-38.5 66.6-38.5zM241.7 395l-.3-.2-96.6-55.8 97-56 .3.2 96.6 55.8-97 56zm-94.1-56l94.2 54.4L336 339l-94.2-54.4-94.2 54.4z" class="P"/><path d="M241.7 76.4l-86.8 50.1v175.6l86.8 50.2 86.9-50.2V126.5z" class="Q"/><path d="M241.7 176.7v175.6l-86.8-50.2V126.5z" class="P"/><g class="O"><path d="M241.7 353.1l-.3-.2-87.2-50.4V126.1l87.5-50.5.3.2 87.2 50.4v176.4l-87.5 50.5zm-86.2-51.3l86.2 49.8 86.2-49.8V126.9l-86.2-49.8-86.2 49.8v174.9z"/><path d="M242.1 352.9l-87.5-50.5V126l87.5 50.5v176.4zM155.2 302l86.2 49.8V176.9l-86.2-49.8V302z"/><path d="M241.4 352.9V176.5l.2-.1L329 126v176.4l-.2.1-87.4 50.4zm.7-176v174.8l86.2-49.8V127.1l-86.2 49.8z"/></g><path d="M189.2 128.4l52.5 30.3 52.6-30.3L241.7 98z" class="P"/><path d="M241.7 85.5l-52.5 30.3v6.2l52.5 30.3 52.6-30.3v-6.2z" class="Q"/><path d="M241.7 153l-53.1-30.7v-6.9l53.1-30.7 53.1 30.7v6.9L241.7 153zm-51.9-31.4l51.9 30 51.9-30v-5.5l-51.9-30-51.9 30v5.5z" class="O"/><path d="M189.2 115.8l52.5 30.3v6.2L189.2 122z" class="P"/><g class="O"><path d="M241.7 153.1l-53.2-30.7v-6.9l53.2-30.7 53.2 30.7v6.9l-53.2 30.7zm-51.8-31.5l51.9 30 51.9-30v-5.4l-51.9-30-51.9 30v5.4z"/><path d="M242.1 152.9l-53.2-30.7v-6.9l53.2 30.7v6.9zm-52.6-31.1l51.9 30v-5.4l-51.9-30v5.4z"/><path d="M241.4 152.9V146l53.2-30.7v6.9l-53.2 30.7zm.7-6.6v5.4l51.9-30v-5.4l-51.9 30z"/></g><path d="M321.1 265.3l-72.4 41.8v-49.6l72.4-41.8zm1.9-117.5l-76.3 44.1V246l76.3-44.1v-54.1zm-74.3 94.7v-49.6l72.4-41.8v49.6l-72.4 41.8z" class="P"/><path d="M248.3 243.1v-50.3l.2-.1 72.9-42.1v50.3l-.2.1-72.9 42.1zm.7-49.9V242l71.8-41.4v-48.8L249 193.2zm-.7 114.5v-50.3l.2-.1 72.9-42.1v50.3l-.2.1-72.9 42.1zm.7-50v48.8l71.8-41.4v-48.8L249 257.7z" class="O"/><path d="M307.3 223.6l-3.6 2.2-32.5 18.7 110.2 63.7v-37.4l3.7-2.1z" class="Q"/><path d="M303.7 225.8l-32.5 18.7 110.2 63.7v-37.4z" class="P"/><g class="O"><path d="M381.9 308.9l-111.6-64.4 37.1-21.4.2.1 78.4 45.4-4.1 2.4v37.9zm-109.8-64.4L381 307.4v-36.9l3.2-1.9-76.9-44.5-35.2 20.4z"/><path d="M381.4 271.1L303 225.8l4.3-2.5.2.1 78.3 45.3-4.4 2.4zm-77.1-45.3l77.1 44.6 3-1.7-77.1-44.7-3 1.8z"/></g><g class="P"><path d="M313.7 231.6l-9.8-5.6-32.5 18.8 42.3 24.3z"/><path d="M307.3 224l-3.6 2.1 10.2 6.1 3.7-2.1z"/></g><path d="M329.9 233.3h-.1l-.1-.1c-.7-.6-1.8-.6-3 .1l-1.3.8v-2.8l-.1-.1-.1-.2c-.2-.7-.7-1.2-1.3-1.4h-.1l.1-.4-.3.3c-.7-.8-1.9-.8-3.2 0l-27.6 15.9-3.8-3-.2.1-1-.8-16.1 9.3c-2.3 1.4-4.3 4.8-4.3 7.5l.1 7.7h-.1v41.5c0 2.3 1.6 5 3.6 6.2.5.3 1 .4 1.4.5.2 0 .3 0 .4-.1a.76.76 0 0 0 .4-.2l.7-.4 56.9-32.9c.7-.3 1-1.1 1-2.1v-42.6c-.1-1.6-.8-2.6-1.9-2.8z" class="S"/><path d="M326.4 233l-48.6 28c-2.5 1.4-4.5 5-4.5 7.9v42.5c0 1.7-1.2 2.4-2.6 1.5-1.5-.8-2.7-2.9-2.7-4.6v-42.2l.1-6.9c0-2.9 2-6.4 4.5-7.9l16.1-9.3-1-.8-16.3 9.4c-2.5 1.4-4.5 5-4.5 7.9v49.1c0 2.4 1.7 5.3 3.8 6.6 2.1 1.2 3.8.2 3.8-2.2v-42.6c0-2.9 2-6.4 4.5-7.9l48.6-28.1c.9-.5 1.7-.7 2.4-.6-.9-.6-2.2-.7-3.6.2z" class="T"/><g class="O"><path d="M330.1 232.5c-1-.8-2.5-.7-3.9.1v-1.8l-.3-.2c-.4-1-1-1.6-1.9-1.8-1-1-2.6-1-4.2-.1l-27.1 15.6-3.8-3-.2.1-1-.8-16.6 9.6c-2.6 1.5-4.8 5.2-4.8 8.3v49.1c0 2.6 1.8 5.6 4 6.9.6.4 1.3.6 1.9.6.2 0 .4 0 .6-.1v.1l58.2-33.6c1-.4 1.5-1.5 1.5-2.9V236c.1-1.9-.9-3.3-2.4-3.5zm1.6 46.2c0 1.1-.4 1.8-1 2.1l-57.6 33.3c-.1.1-.2.1-.4.2-.1 0-.3.1-.4.1-.4 0-.9-.2-1.4-.5-2-1.1-3.6-3.9-3.6-6.2v-41.5h.1l-.1-7.7c0-2.7 2-6.1 4.3-7.5l16.1-9.3 1 .8.2-.1 3.8 3 27.6-15.9c1.3-.7 2.5-.7 3.2 0l.3-.3-.1.4h.1c.6.2 1.1.7 1.3 1.4l.1.2.1.1v2.8l1.3-.8c1.2-.7 2.3-.7 3-.1l.1.1h.1c1.1.1 1.8 1.2 1.8 2.8v42.6h.1z"/><use xlink:href="#B"/><path d="M272.3 314.9c-.6 0-1.2-.2-1.8-.5-2.1-1.2-3.9-4.3-3.9-6.7v-49.1c0-3 2.1-6.6 4.6-8.1l16.4-9.5 1.4 1.1-16.4 9.5c-2.4 1.4-4.4 4.9-4.4 7.7l-.1 6.8v42.2c0 1.6 1.1 3.6 2.5 4.4.4.2.7.3 1.1.3.8 0 1.2-.6 1.2-1.7v-42.5c0-3 2.1-6.6 4.7-8.1l48.6-28.1c1.4-.8 2.9-.8 3.8 0l.6.5-.7-.1c-.7-.1-1.4.1-2.2.6l-48.6 28.1c-2.4 1.4-4.4 4.9-4.4 7.7V312c-.1 1.8-1 2.9-2.4 2.9zm-5.2-49.1v41.9c0 2.3 1.6 5.2 3.7 6.4.6.3 1.1.5 1.6.5 1.2 0 1.9-1 1.9-2.5v-42.6c0-3 2.1-6.6 4.7-8.1l48.6-28.1c.6-.3 1.1-.5 1.7-.6-.7-.2-1.7-.1-2.6.5l-48.6 28.1c-2.4 1.4-4.4 4.9-4.4 7.7v42.5c0 1.3-.7 2.1-1.7 2.1-.4 0-.8-.1-1.3-.4-1.5-.9-2.8-3-2.8-4.8v-42.2l.1-6.9c0-3 2.1-6.6 4.7-8.1l15.8-9.1-.6-.5-16.2 9.3c-2.4 1.4-4.4 4.9-4.4 7.7v7.2h-.2z"/></g><path d="M323.8 229.9l-54 31.2v48.4l2 1.1 1.5-.9v-40.8c0-2.9 2-6.4 4.5-7.9l48-27.7V231l-2-1.1z" class="Q"/><g class="P"><path d="M271.8 262.2l-2-1.1v48.4l2 1.1z"/><path d="M323.8 229.9l-54 31.2 2 1.1 53.9-31.1z"/></g><g class="O"><use xlink:href="#C"/><path d="M271.8 262.4l-2.4-1.4.3-.2 54.1-31.2 2.4 1.4-54.4 31.4zm-1.6-1.3l1.6.9 53.6-30.9-1.6-.9-53.6 30.9z"/><path d="M271.6 310.9v-48.8l.1-.1 54.3-31.3v2.8l-.1.1-48 27.7c-2.5 1.4-4.4 4.9-4.4 7.7v41l-1.9.9zm.4-48.6v47.9l1.1-.6v-40.7c0-3 2.1-6.6 4.6-8l47.9-27.6v-1.8L272 262.3z"/></g><path d="M346.4 241.3h-.1l-.1-.1c-.7-.6-1.8-.6-3 .1l-1.3.8v-2.8l-.1-.1-.1-.2c-.2-.7-.7-1.2-1.3-1.4h-.1l.1-.4-.3.3c-.7-.8-1.9-.8-3.2 0l-27.6 15.9-3.8-3-.2.1-1-.8-16.1 9.3c-2.3 1.4-4.3 4.8-4.3 7.5l.1 7.7h-.1v41.5c0 2.3 1.6 5 3.6 6.2.5.3 1 .4 1.4.5.2 0 .3 0 .4-.1a.76.76 0 0 0 .4-.2l.7-.4 56.9-32.9c.7-.3 1-1.1 1-2.1V244c-.1-1.6-.7-2.6-1.9-2.7z" class="S"/><path d="M343 240.9L294.3 269c-2.5 1.4-4.5 5-4.5 7.9v42.5c0 1.7-1.2 2.4-2.6 1.5-1.5-.8-2.7-2.9-2.7-4.6V274l.1-6.9c0-2.9 2-6.4 4.5-7.9l16.1-9.3-1-.8-16.3 9.4c-2.5 1.4-4.5 5-4.5 7.9v49.1c0 2.4 1.7 5.3 3.8 6.6 2.1 1.2 3.8.2 3.8-2.2v-42.6c0-2.9 2-6.4 4.5-7.9l48.6-28.1c.9-.5 1.7-.7 2.4-.6-.8-.6-2.1-.6-3.5.2z" class="T"/><g class="O"><path d="M346.7 240.4c-1-.8-2.5-.7-3.9.1v-1.8l-.3-.2c-.4-1-1-1.6-1.9-1.8-1-1-2.6-1-4.2-.1l-27.1 15.6-3.8-3-.2.1-1-.8-16.6 9.6c-2.6 1.5-4.8 5.2-4.8 8.3v49.1c0 2.6 1.8 5.6 4 6.9.6.4 1.3.6 1.9.6.2 0 .4 0 .6-.1v.1l58.2-33.6c1-.4 1.5-1.5 1.5-2.9V244c0-2-.9-3.3-2.4-3.6zm1.5 46.2c0 1.1-.4 1.8-1 2.1L289.6 322c-.1.1-.2.1-.4.2-.1 0-.3.1-.4.1-.4 0-.9-.2-1.4-.5-2-1.1-3.6-3.9-3.6-6.2v-41.5h.1l-.1-7.7c0-2.7 2-6.1 4.3-7.5l16.1-9.3 1 .8.2-.1 3.8 3 27.6-15.9c1.3-.7 2.5-.7 3.2 0l.3-.3-.1.4h.1c.6.2 1.1.7 1.3 1.4l.1.2.1.1v2.8l1.3-.8c1.2-.7 2.3-.7 3-.1l.1.1h.1c1.1.1 1.8 1.2 1.8 2.8v42.6h.1z"/><use xlink:href="#B" x="16.5" y="7.9"/><path d="M288.9 322.9c-.6 0-1.2-.2-1.8-.5-2.1-1.2-3.9-4.3-3.9-6.7v-49.1c0-3 2.1-6.6 4.6-8.1l16.4-9.5 1.4 1.1-16.4 9.5c-2.4 1.4-4.4 4.9-4.4 7.7l-.1 6.8v42.2c0 1.6 1.1 3.6 2.5 4.4.4.2.7.3 1.1.3.8 0 1.2-.6 1.2-1.7v-42.5c0-3 2.1-6.6 4.7-8.1l48.6-28.1c1.4-.8 2.9-.8 3.8 0l.6.5-.7-.1c-.7-.1-1.4.1-2.2.6l-48.6 28.1c-2.4 1.4-4.4 4.9-4.4 7.7V320c-.1 1.7-1 2.9-2.4 2.9zm-5.3-49.2v41.9c0 2.3 1.6 5.2 3.7 6.4.6.3 1.1.5 1.6.5 1.2 0 1.9-1 1.9-2.5v-42.6c0-3 2.1-6.6 4.7-8.1l48.6-28.1c.6-.3 1.1-.5 1.7-.6-.7-.2-1.7-.1-2.6.5l-48.6 28.1c-2.4 1.4-4.4 4.9-4.4 7.7v42.5c0 1.3-.7 2.1-1.7 2.1-.4 0-.8-.1-1.3-.4-1.5-.9-2.8-3-2.8-4.8v-42.2l.1-6.9c0-3 2.1-6.6 4.7-8.1L305 250l-.6-.5-16.2 9.3c-2.4 1.4-4.4 4.9-4.4 7.7v7.2h-.2z"/></g><path d="M340.3 237.8l-54 31.2v48.4l2 1.1 1.5-.9v-40.8c0-2.9 2-6.4 4.5-7.9l48-27.7V239l-2-1.2z" class="Q"/><g class="P"><path d="M288.3 270.1l-2-1.1v48.4l2 1.1z"/><path d="M340.3 237.8l-54 31.2 2 1.1 54-31.1z"/></g><g class="O"><use xlink:href="#C" x="16.5" y="8"/><use xlink:href="#D"/><path d="M288.1 318.9V270l.1-.1 54.3-31.3v2.8l-.1.1-48 27.7c-2.5 1.4-4.4 4.9-4.4 7.7v41l-1.9 1zm.4-48.6v47.9l1.1-.6v-40.7c0-3 2.1-6.6 4.6-8l47.9-27.6v-1.8l-53.6 30.8z"/></g><path d="M363 249.2h-.1l-.1-.1c-.7-.6-1.8-.6-3 .1l-1.3.8v-2.8l-.1-.1-.1-.2c-.2-.7-.7-1.2-1.3-1.4h-.1l.1-.4-.3.3c-.7-.8-1.9-.8-3.2 0l-27.6 15.9-3.8-3-.2.1-1-.8-16.1 9.3c-2.3 1.4-4.3 4.8-4.3 7.5l.1 7.7h-.1v41.5c0 2.3 1.6 5 3.6 6.2.5.3 1 .4 1.4.5.2 0 .3 0 .4-.1a.76.76 0 0 0 .4-.2l.7-.4 56.9-32.9c.7-.3 1-1.1 1-2.1V252c-.1-1.6-.8-2.7-1.9-2.8z" class="S"/><path d="M359.5 248.8l-48.6 28.1c-2.5 1.4-4.5 5-4.5 7.9v42.5c0 1.7-1.2 2.4-2.6 1.5-1.5-.8-2.7-2.9-2.7-4.6V282l.1-6.9c0-2.9 2-6.4 4.5-7.9l16.1-9.3-1-.8-16.3 9.4c-2.5 1.4-4.5 5-4.5 7.9v49.1c0 2.4 1.7 5.3 3.8 6.6 2.1 1.2 3.8.2 3.8-2.2v-42.6c0-2.9 2-6.4 4.5-7.9l48.6-28.1c.9-.5 1.7-.7 2.4-.6-.9-.7-2.2-.7-3.6.1z" class="T"/><g class="O"><path d="M363.2 248.3c-1-.8-2.5-.7-3.9.1v-1.8l-.3-.2c-.4-1-1-1.6-1.9-1.8-1-1-2.6-1-4.2-.1l-27.1 15.6-3.8-3-.2.1-1-.8-16.6 9.6c-2.6 1.5-4.8 5.2-4.8 8.3v49.1c0 2.6 1.8 5.6 4 6.9.6.4 1.3.6 1.9.6.2 0 .4 0 .6-.1v.1l58.2-33.6c1-.4 1.5-1.5 1.5-2.9v-42.6c.1-1.8-.9-3.2-2.4-3.5zm1.6 46.2c0 1.1-.4 1.8-1 2.1l-57.6 33.3c-.1.1-.2.1-.4.2-.1 0-.3.1-.4.1-.4 0-.9-.2-1.4-.5-2-1.1-3.6-3.9-3.6-6.2V282h.1l-.1-7.7c0-2.7 2-6.1 4.3-7.5l16.1-9.3 1 .8.2-.1 3.8 3 27.6-15.9c1.3-.7 2.5-.7 3.2 0l.3-.3-.1.4h.1c.6.2 1.1.7 1.3 1.4l.1.2.1.1v2.8l1.3-.8c1.2-.7 2.3-.7 3-.1l.1.1h.1c1.1.1 1.8 1.2 1.8 2.8v42.6h.1z"/><use xlink:href="#B" x="33.1" y="15.9"/><path d="M305.4 330.8c-.6 0-1.2-.2-1.8-.5-2.1-1.2-3.9-4.3-3.9-6.7v-49.1c0-3 2.1-6.6 4.6-8.1l16.4-9.5 1.4 1.1-16.4 9.5c-2.4 1.4-4.4 4.9-4.4 7.7l-.1 6.8v42.2c0 1.6 1.1 3.6 2.5 4.4.4.2.7.3 1.1.3.8 0 1.2-.6 1.2-1.7v-42.5c0-3 2.1-6.6 4.7-8.1l48.6-28.1c1.4-.8 2.9-.8 3.8 0l.6.5h-.7c-.7-.1-1.4.1-2.2.6l-48.6 28.1c-2.4 1.4-4.4 4.9-4.4 7.7V328c-.1 1.6-1 2.8-2.4 2.8zm-5.2-49.2v41.9c0 2.3 1.6 5.2 3.7 6.4.6.3 1.1.5 1.6.5 1.2 0 1.9-1 1.9-2.5v-42.6c0-3 2.1-6.6 4.7-8.1l48.6-28.1c.6-.3 1.1-.5 1.7-.6-.7-.2-1.7-.1-2.6.5L311 277.1c-2.4 1.4-4.4 4.9-4.4 7.7v42.5c0 1.3-.7 2.1-1.7 2.1-.4 0-.8-.1-1.3-.4-1.5-.9-2.8-3-2.8-4.8V282l.1-6.9c0-3 2.1-6.6 4.7-8.1l15.8-9.1-.6-.5-16.2 9.3c-2.4 1.4-4.4 4.9-4.4 7.7v7.2z"/></g><path d="M356.9 245.8l-54 31.2v48.4l2 1.1 1.5-.9v-40.8c0-2.9 2-6.4 4.5-7.9l48-27.7v-2.3l-2-1.1z" class="Q"/><g class="P"><path d="M304.9 278.1l-2-1.2v48.4l2 1.1z"/><path d="M356.9 245.8l-54 31.1 2 1.2 53.9-31.2z"/></g><g class="O"><use xlink:href="#C" x="33.1" y="15.9"/><use xlink:href="#D" x="16.6" y="7.9"/><path d="M304.7 326.8V278l.1-.1 54.3-31.3v2.8l-.1.1-48 27.7c-2.5 1.4-4.4 4.9-4.4 7.7v41l-1.9.9zm.4-48.6v47.9l1.1-.6v-40.7c0-3 2.1-6.6 4.6-8l47.9-27.6v-1.8l-53.6 30.8z"/></g><path d="M249 260.9v41.6l71.5 41v-37.4l3.7-2.1z" class="Q"/><path d="M249 302.5l71.5 41v-37.4l-71.5-41z" class="P"/><g class="O"><path d="M320.9 344.2l-72.3-41.5v-42.6L325 304l-4.1 2.3v37.9zm-71.5-41.9l70.7 40.6v-37l3.3-1.9-74-42.5v40.8z"/><path d="M320.5 306.5l-.2-.1-71.7-41.2v-5l76.2 43.7-4.3 2.6zm-71.2-41.6l71.2 40.9 3-1.7-74.2-42.6v3.4z"/></g><path d="M252.5 267.5l-3.5-2V302l3.5 2z" class="P"/><path d="M393.4 257.7l-5.1-3.1-72.4 41.8V346l5.1 3 72.4-41.8z" class="Q"/><path d="M315.9 346l5.1 3v-49.5l-5.1-3.1z" class="P"/><g class="O"><path d="M321.3 349.6l-5.8-3.5v-50.3l5.8 3.5v50.3zm-5.1-3.8l4.5 2.7v-48.8l-4.5-2.7v48.8z"/><path d="M321 349.5l-5.6-3.3v-50.1l.2-.1 72.6-41.9 5.6 3.3v50.1l-.2.1-72.6 41.9zm-4.7-3.8l4.7 2.8 72-41.6v-49.1l-4.7-2.8-72 41.6v49.1z"/><path d="M320.6 349.6v-50.3l.2-.1 72.9-42.1v50.3l-.2.1-72.9 42.1zm.7-49.9v48.8l71.8-41.4v-48.8l-71.8 41.4z"/></g><path d="M235.3 182l-74-42.8v150.3l74 42.7z" class="U"/><g class="Q"><path d="M214.5 287.7l2.3 1.4v-2.8l-2.3-1.3z"/><use xlink:href="#E"/><path d="M206.8 283.3l2.3 1.3v-2.7l-2.3-1.4z"/><use xlink:href="#F"/><path d="M191.3 274.4l2.4 1.3V273l-2.4-1.4z"/><use xlink:href="#F" x="-15.4" y="-8.9"/><use xlink:href="#G"/><use xlink:href="#H"/><use xlink:href="#G" x="-15.4" y="-8.9"/><path d="M226 298.8l2.4 1.3v-2.7L226 296z"/><use xlink:href="#F" x="19.3" y="15.5"/><use xlink:href="#G" x="34.7" y="24.4"/><path d="M214.5 292.1l2.3 1.4v-2.8l-2.3-1.4zm-11.6-6.7l2.4 1.4V284l-2.4-1.4z"/><use xlink:href="#E" x="-11.6" y="-2.3"/><use xlink:href="#G" x="7.7" y="8.8"/><use xlink:href="#E" x="-23.1" y="-9"/><use xlink:href="#H" x="7.7" y="8.8"/><use xlink:href="#G" x="-7.7" y="-0.1"/><use xlink:href="#I"/><use xlink:href="#G" x="27" y="24.3"/><path d="M206.8 292l2.3 1.4v-2.8l-2.3-1.4z"/><use xlink:href="#E" x="-19.3" y="-2.4"/><use xlink:href="#I" x="-30.8" y="-17.8"/><use xlink:href="#G" y="8.7"/><path d="M179.8 276.4l2.3 1.4V275l-2.3-1.4z"/><use xlink:href="#I" x="-42.4" y="-24.5"/><use xlink:href="#H" y="8.7"/><use xlink:href="#G" x="-15.4" y="-0.2"/><path d="M226 198.8l2.4 1.3v-2.7L226 196z"/><use xlink:href="#F" x="19.3" y="-84.5"/><use xlink:href="#G" x="34.7" y="-75.6"/><path d="M214.5 192.1l2.3 1.4v-2.8l-2.3-1.4z"/><use xlink:href="#I" x="-7.7" y="-108.8"/><path d="M206.8 187.6l2.3 1.4v-2.8l-2.3-1.3z"/><use xlink:href="#F" x="-7.7" y="-100.1"/><use xlink:href="#E" x="-23.1" y="-109"/><use xlink:href="#H" x="7.7" y="-91.2"/><use xlink:href="#G" x="-7.7" y="-100.1"/><path d="M168.2 165.4l2.4 1.3V164l-2.4-1.4z"/><use xlink:href="#H" x="42.4" y="-66.8"/><use xlink:href="#G" x="27" y="-75.7"/><path d="M206.8 192l2.3 1.4v-2.8l-2.3-1.4z"/><use xlink:href="#I" x="-15.4" y="-108.9"/><use xlink:href="#F" x="-3.9" y="-93.5"/><use xlink:href="#E" x="-15.4" y="-100.2"/><use xlink:href="#E" x="-19.3" y="-102.4"/><use xlink:href="#G" y="-91.3"/><use xlink:href="#I" x="-42.4" y="-124.5"/><use xlink:href="#H" y="-91.3"/><use xlink:href="#G" x="-15.4" y="-100.2"/><use xlink:href="#I" x="7.7" y="-91.2"/><use xlink:href="#F" x="19.3" y="-75.8"/><path d="M206.8 196.3l2.3 1.4V195l-2.3-1.4z"/><use xlink:href="#G" x="19.3" y="-75.8"/><use xlink:href="#I" x="-23.1" y="-109"/><use xlink:href="#F" x="-11.6" y="-93.6"/><use xlink:href="#E" x="-27" y="-102.5"/><path d="M179.8 180.8l2.3 1.3v-2.7l-2.3-1.4z"/><use xlink:href="#I" x="3.9" y="-70.2"/><use xlink:href="#F" x="15.4" y="-54.8"/><path d="M214.5 224l2.3 1.4v-2.8l-2.3-1.3z"/><use xlink:href="#E" y="-63.7"/><use xlink:href="#E" x="-15.4" y="-72.6"/><use xlink:href="#E" x="-27" y="-79.3"/><path d="M179.8 204l2.3 1.3v-2.7l-2.3-1.4zm-7.7-4.5l2.3 1.4v-2.8l-2.3-1.3z"/><use xlink:href="#E" x="-42.4" y="-88.2"/><use xlink:href="#F" x="23.1" y="-46"/><use xlink:href="#G" x="38.6" y="-37.1"/><use xlink:href="#F" x="7.7" y="-54.9"/><path d="M206.8 223.9l2.3 1.4v-2.8l-2.3-1.3z"/><use xlink:href="#I" x="-19.3" y="-79.2"/><use xlink:href="#F" x="-7.7" y="-63.8"/><use xlink:href="#G" x="7.7" y="-54.9"/><use xlink:href="#E" x="-23.1" y="-72.7"/><use xlink:href="#E" x="-34.7" y="-79.4"/><use xlink:href="#F" x="15.4" y="-46.1"/><path d="M214.5 232.7l2.3 1.4v-2.8l-2.3-1.3z"/><use xlink:href="#E" y="-55"/><use xlink:href="#F" y="-55"/><use xlink:href="#G" x="15.4" y="-46.1"/><use xlink:href="#E" x="-15.4" y="-63.9"/><use xlink:href="#G" y="-55"/><path d="M179.8 212.7l2.3 1.4v-2.8l-2.3-1.4z"/><use xlink:href="#I" x="-42.4" y="-88.2"/><use xlink:href="#G" x="-15.4" y="-63.9"/><use xlink:href="#G" x="42.4" y="-7.3"/><path d="M222.2 260.4l2.4 1.4V259l-2.4-1.4z"/><use xlink:href="#I" y="-40.5"/><path d="M206.8 251.5l2.3 1.4v-2.8l-2.3-1.4z"/><use xlink:href="#F" x="-3.9" y="-34"/><use xlink:href="#G" x="11.6" y="-25.1"/><use xlink:href="#E" x="-19.3" y="-42.9"/><path d="M179.8 235.9l2.3 1.4v-2.8l-2.3-1.4z"/><use xlink:href="#H" y="-31.8"/><use xlink:href="#I" x="7.7" y="-31.7"/><use xlink:href="#F" x="19.3" y="-16.3"/><use xlink:href="#G" x="34.7" y="-7.4"/><use xlink:href="#I" x="-7.7" y="-40.6"/><use xlink:href="#H" x="34.7" y="-7.4"/><use xlink:href="#G" x="19.3" y="-16.3"/><path d="M199 251.4l2.4 1.4V250l-2.4-1.4z"/><use xlink:href="#G" x="3.9" y="-25.2"/><use xlink:href="#E" x="-27" y="-43"/><use xlink:href="#F" x="-27" y="-43"/><path d="M172.1 235.8l2.3 1.4v-2.8l-2.3-1.3z"/><use xlink:href="#E" x="-42.4" y="-51.9"/><use xlink:href="#E" x="11.6" y="-16.4"/><use xlink:href="#I" y="-31.8"/><use xlink:href="#H" x="42.4" y="1.4"/><path d="M210.6 262.4l2.4 1.4V261l-2.4-1.3zm-11.6-6.7l2.4 1.4v-2.7L199 253z"/><use xlink:href="#G" x="11.6" y="-16.4"/><use xlink:href="#I" x="-30.8" y="-49.6"/><use xlink:href="#F" x="-19.3" y="-34.2"/><path d="M179.8 244.6l2.3 1.4v-2.8l-2.3-1.3zm-3.9-2.2l2.4 1.4V241l-2.4-1.4z"/></g><path d="M428.1 128.6h-.1l-.1-.1c-.7-.6-1.8-.6-3 .1l-1.3.8v-2.8l-.1-.1-.1-.2c-.2-.7-.7-1.2-1.3-1.4h-.1l.1-.4-.3.3c-.7-.7-1.9-.8-3.2 0L391 140.7l-3.8-3-.2.1-1-.8-16.1 9.3c-2.3 1.4-4.3 4.8-4.3 7.5l.1 7.7h-.1V203c0 2.3 1.6 5 3.6 6.2.5.3 1 .4 1.4.5.2 0 .3 0 .4-.1a.76.76 0 0 0 .4-.2l.7-.4 56.9-32.9c.7-.3 1-1.1 1-2.1v-42.6c-.1-1.6-.8-2.7-1.9-2.8z" class="S"/><path d="M424.6 128.2L376 156.3c-2.5 1.4-4.5 5-4.5 7.9v42.5c0 1.7-1.2 2.4-2.6 1.5-1.5-.8-2.6-2.9-2.6-4.6v-42.2l.1-6.9c0-2.9 2-6.4 4.5-7.9l16.1-9.3-1-.8-16.3 9.4c-2.5 1.4-4.5 5-4.5 7.9v49.1c0 2.4 1.7 5.3 3.8 6.6 2.1 1.2 3.8.2 3.8-2.2v-42.6c0-2.9 2-6.4 4.5-7.9l48.6-28.1c.9-.5 1.7-.7 2.4-.6-1-.7-2.2-.7-3.7.1z" class="T"/><g class="O"><path d="M428.3 127.7c-1-.8-2.5-.7-3.9.1V126l-.3-.2c-.4-1-1-1.6-1.9-1.8-1-1-2.6-1-4.2-.1l-27 15.7-3.8-3-.2.1-1-.8-16.6 9.6c-2.6 1.5-4.8 5.2-4.8 8.3v49.1c0 2.6 1.8 5.6 4 6.9.6.4 1.3.6 1.9.6.2 0 .4 0 .6-.1v.1l58.2-33.6c1-.4 1.5-1.5 1.5-2.9v-42.6c0-1.9-.9-3.3-2.5-3.6zm1.6 46.2c0 1.1-.4 1.8-1 2.1l-57.6 33.3c-.1.1-.2.1-.4.2-.1 0-.3.1-.4.1-.4 0-.9-.2-1.4-.5-2-1.1-3.6-3.9-3.6-6.2v-41.5h.1l-.1-7.7c0-2.7 2-6.1 4.3-7.5l16.1-9.3 1 .8.2-.1 3.8 3 27.6-15.9c1.3-.7 2.5-.7 3.2 0l.3-.3-.1.4h.1c.6.2 1.1.7 1.3 1.4l.1.2.1.1v2.8l1.3-.8c1.2-.7 2.3-.7 3-.1l.1.1h.1c1.1.1 1.8 1.2 1.8 2.8v42.6h.1z"/><use xlink:href="#B" x="98.2" y="-104.7"/><path d="M370.5 210.2c-.6 0-1.2-.2-1.8-.5-2.1-1.2-3.9-4.3-3.9-6.7v-49.1c0-3 2.1-6.6 4.6-8.1l16.4-9.5 1.4 1.1-16.4 9.5c-2.4 1.4-4.4 4.9-4.4 7.7l-.1 6.8v42.2c0 1.6 1.1 3.6 2.5 4.4.4.2.7.3 1.1.3.8 0 1.2-.6 1.2-1.7v-42.5c0-3 2.1-6.6 4.7-8.1l48.6-28.1c1.4-.8 2.9-.8 3.8 0l.6.5-.7-.1c-.7-.1-1.4.1-2.2.6L377.3 157c-2.4 1.4-4.4 4.9-4.4 7.7v42.6c-.1 1.7-1 2.9-2.4 2.9zm-5.2-49.2v41.9c0 2.3 1.6 5.2 3.7 6.4.6.3 1.1.5 1.6.5 1.2 0 1.9-1 1.9-2.5v-42.6c0-3 2.1-6.6 4.7-8.1l48.6-28.1c.6-.3 1.1-.5 1.7-.6-.7-.2-1.7-.1-2.6.5l-48.6 28.1c-2.4 1.4-4.4 4.9-4.4 7.7v42.5c0 1.3-.7 2.1-1.7 2.1-.4 0-.8-.1-1.3-.4-1.5-.9-2.8-3-2.8-4.8v-42.2l.1-6.9c0-3 2.1-6.6 4.7-8.1l15.8-9.1-.6-.5-16.2 9.3c-2.4 1.4-4.4 4.9-4.4 7.7v7.2h-.2z"/></g><path d="M422 125.2l-54 31.2v48.4l2 1.1 1.5-.9v-40.8c0-2.9 2-6.4 4.5-7.9l48-27.7v-2.3l-2-1.1z" class="Q"/><g class="P"><path d="M370 157.5l-2-1.2v48.4l2 1.1z"/><path d="M422 125.2l-54 31.1 2 1.2 54-31.2z"/></g><g class="O"><path d="M370.2 206.2l-2.4-1.4V156l2.4 1.4v48.8zm-2-1.6l1.6.9v-47.9l-1.6-.9v47.9z"/><use xlink:href="#D" x="81.7" y="-112.7"/><path d="M369.8 206.2v-48.8l.1-.1 54.3-31.3v2.8l-.1.1-48 27.7c-2.5 1.4-4.4 4.9-4.4 7.7v41l-1.9.9zm.4-48.6v47.9l1.1-.6v-40.7c0-3 2.1-6.6 4.6-8l47.9-27.6v-1.8l-53.6 30.8z"/></g><g class="U"><path d="M126.2 113.5v-2.6l5.6 8.5 5.5-2.1v2.7l-5.5 2z"/><path d="M126.2 100.3v-2.6l5.6 8.4 5.5-2v2.7l-5.5 2z" opacity=".5" class="R"/><path d="M126.2 87.1v-2.7l5.6 8.5 5.5-2v2.6l-5.5 2z" opacity=".2" class="R"/><path d="M410.1 207.2l-2.4 1.3 4.8 4-4.8 9.5 2.4-1.4 4.8-9.4z"/><path d="M398.2 214.1l-2.4 1.3 4.7 4-4.7 9.5 2.4-1.4 4.7-9.4z" opacity=".5" class="R"/><path d="M386.2 221l-2.4 1.3 4.8 4-4.8 9.5 2.4-1.4 4.8-9.4z" opacity=".2" class="R"/></g><path d="M182 234.4s-.1 0-.1-.1c-1.3-15.9-12.4-34.1-25.8-41.9-5.8-3.3-11.1-4.2-15.5-3-3.8-13.3-13.2-26.6-24.2-32.9-7.1-4.1-13.6-4.5-18.2-1.9l-10.3 5.9c-7.4-3-14.1-2.7-19.2.2L55 168.4c.1-.1.2-.1.3-.1-6.5 3.5-10.6 11.4-10.6 22.7 0 22.1 15.5 49 34.6 60l88.8 51.3c7.4 4.3 14 4.5 18.7 1.6-.1 0-.1.1-.2.1l13.9-7.9c4.6-2.8 7.4-8.5 7.4-16.7 0-16.5-11.6-36.7-25.9-45z" class="Q"/><path d="M179.7 306.5c-3.7 0-7.7-1.2-11.9-3.6L79 251.6c-19.3-11.1-35-38.3-35-60.6 0-11.1 3.8-19.2 10.7-23.1l13.7-7.7c5.3-3.1 12.1-3.2 19.5-.4l10.1-5.7c2.1-1.2 4.4-1.7 7-1.7 3.7 0 7.8 1.2 11.9 3.6 10.7 6.2 20.2 19 24.3 32.7 1.1-.2 2.2-.4 3.4-.4 3.7 0 7.8 1.2 11.9 3.6 13.5 7.8 24.7 25.8 26.1 42 14.4 8.4 26.1 28.8 26.1 45.5 0 8.1-2.7 14.3-7.7 17.3l-13.9 7.9c-2.3 1.3-4.7 1.9-7.4 1.9zM55.5 168.9c-6.6 3.5-10.3 11.4-10.3 22.1 0 21.8 15.4 48.5 34.3 59.4l88.8 51.3c4 2.3 7.8 3.5 11.3 3.5 2.5 0 4.8-.6 6.8-1.9l13.7-7.8c4.6-2.7 7.1-8.5 7.1-16.1 0-16.3-11.5-36.3-25.6-44.4l-.4-.3v-.3c-1.3-15.9-12.3-33.7-25.5-41.3-4-2.3-7.8-3.5-11.3-3.5-1.3 0-2.5.2-3.7.5l-.6.2-.2-.6c-3.9-13.6-13.3-26.4-23.9-32.5-4-2.3-7.8-3.5-11.3-3.5-2.3 0-4.5.5-6.3 1.6l-10.6 6-.3-.1c-7-2.8-13.6-2.7-18.6.2l-13.4 7.5z" class="O"/><path d="M78 170.3c3.6-9.6 13.2-12.4 24.5-5.9 11 6.3 20.3 19.6 24.2 32.9 4.3-1.2 9.7-.3 15.5 3 13.5 7.8 24.5 26 25.8 41.9 0 0 .1 0 .1.1 14.3 8.3 26 28.4 26 45s-11.6 23.3-26 15L79.2 251c-19.1-11-34.6-37.9-34.6-60 0-21.6 14.8-30.6 33.4-20.7z" class="P"/><g class="O"><path d="M179.7 306.2c-3.7 0-7.6-1.2-11.8-3.6l-88.8-51.3c-19.2-11.1-34.8-38.1-34.8-60.3 0-15.5 7.5-25.1 19.5-25.1 4.4 0 9.1 1.3 14 3.9 2.3-5.9 7.1-9.3 13.1-9.3 3.7 0 7.6 1.2 11.8 3.6 10.7 6.2 20.2 19 24.2 32.8 1.2-.3 2.4-.4 3.6-.4 3.7 0 7.6 1.2 11.8 3.6 13.4 7.8 24.6 25.8 26 41.9 14.4 8.3 26.1 28.6 26.1 45.3 0 11.6-5.7 18.9-14.7 18.9zM63.8 166.6c-11.6 0-18.8 9.3-18.8 24.4 0 22 15.5 48.7 34.5 59.7l88.8 51.3c4 2.3 7.9 3.5 11.4 3.5 8.7 0 14-7 14-18.2 0-16.4-11.6-36.5-25.8-44.7l-.3-.2v-.2c-1.3-16-12.4-33.9-25.7-41.6-4-2.3-7.9-3.5-11.4-3.5-1.3 0-2.6.2-3.8.5l-.3.1-.1-.3c-3.9-13.7-13.4-26.6-24-32.7-4-2.3-7.9-3.5-11.4-3.5-5.9 0-10.4 3.3-12.6 9.2l-.1.4-.3-.2c-5-2.6-9.8-4-14.1-4zm22.7 162.1c-1.9-1.1-4.4-1.7-7.1-1.7s-5.2.6-7.1 1.7a.76.76 0 0 1-.4.2l-.4.2c-1.4 1-2.2 2.3-2.2 3.7 0 1.6 1.1 3.1 3 4.2s4.4 1.7 7.1 1.7 5.2-.6 7.1-1.7 3-2.6 3-4.2c0-1.5-1.1-3-3-4.1zm-.2 8.1c-1.8 1.1-4.3 1.6-6.9 1.6s-5-.6-6.9-1.6c-1.8-1-2.8-2.4-2.8-3.9s1-2.8 2.8-3.9 4.3-1.6 6.9-1.6 5 .6 6.9 1.6c1.8 1 2.8 2.4 2.8 3.9s-1 2.8-2.8 3.9zm-4.2-5.4c-1.4-.8-3.8-.8-5.2 0-1.5.8-1.5 2.2 0 3 1.4.8 3.8.8 5.2 0s1.4-2.2 0-3zm289-265.3c-.9 0-2 .3-3 .9l-.4.2c-4 2.4-7.2 8-7.2 12.6 0 3.2 1.6 5.3 4.2 5.3 1 0 2.2-.3 3.3-1 4-2.3 7.3-8 7.3-12.6 0-3.3-1.6-5.4-4.2-5.4zm-3.3 17.6c-1.1.6-2.1 1-3.1 1-2.3 0-3.8-1.9-3.8-4.9 0-4.5 3.2-10 7.1-12.3 1.1-.6 2.1-1 3.1-1 2.3 0 3.8 1.9 3.8 4.9 0 4.5-3.2 10.1-7.1 12.3z"/><path d="M367.9 72c-1.7 1-3.1 3.4-3.1 5.3s1.4 2.7 3.1 1.8c1.7-1 3.1-3.4 3.1-5.3s-1.4-2.7-3.1-1.8zm-281 257.2l-.2-.3 30.2-17.4v-38.6h.4v38.9h-.1zm301.6-191.1h-.4v-32.2l-20.3 11.7V83.9h.4v33l20.3-11.7z"/></g><path d="M96.5 83.2l-3.1-1.9c-.9-.6-2.3-.5-3.7.3L71.3 92.2c-2.8 1.6-5.1 5.6-5.1 8.9v21.3c0 1.7.6 2.8 1.6 3.4l3.4 2c.9.6 2.3.5 3.7-.3l18.4-10.6c2.8-1.6 5.1-5.6 5.1-8.9V86.6c0-1.8-.7-3-1.9-3.4z" class="S"/><path d="M69.7 124.5v-21.3c0-3.3 2.3-7.3 5.1-8.9l18.4-10.6c1.2-.7 2.4-.9 3.3-.5l-3.1-1.9c-.9-.6-2.3-.5-3.7.3L71.3 92.2c-2.8 1.6-5.1 5.6-5.1 8.9v21.3c0 1.7.6 2.8 1.6 3.4l3.4 2c-1-.6-1.5-1.7-1.5-3.3z" class="U"/><g class="O"><path d="M72.6 128.5c-1.9 0-3.2-1.6-3.2-4v-21.3c0-3.4 2.4-7.5 5.3-9.2l18.4-10.6c.8-.5 1.7-.7 2.4-.7 1.9 0 3.2 1.6 3.2 4V108c0 3.4-2.4 7.5-5.3 9.2L75 127.7c-.9.5-1.7.8-2.4.8zm22.9-45.2c-.7 0-1.4.2-2.1.7L75 94.6c-2.8 1.6-5 5.5-5 8.7v21.3c0 2.1 1 3.4 2.6 3.4.7 0 1.4-.2 2.1-.7l18.4-10.6c2.8-1.6 5-5.5 5-8.7V86.6c0-2-1-3.3-2.6-3.3z"/><path d="M72.6 128.6c-.4 0-.7-.1-1-.2v.1l-4-2.4c-1.1-.6-1.8-2-1.8-3.7v-21.3c0-3.4 2.4-7.6 5.3-9.3l18.4-10.6c1.5-.9 3-1 4.1-.3l3.1 1.9c1.3.5 2.1 1.9 2.1 3.8v21.3c0 3.4-2.4 7.6-5.3 9.3L75 127.8c-.8.5-1.7.8-2.4.8zm-1-1c.3.1.6.2 1 .2.6 0 1.4-.2 2.1-.6l18.4-10.6c2.7-1.6 4.9-5.4 4.9-8.6V86.6c0-1.6-.6-2.7-1.6-3.1l-3.2-1.9c-.8-.5-2.1-.4-3.3.3L71.5 92.5c-2.7 1.6-4.9 5.4-4.9 8.6v21.3c0 1.5.5 2.5 1.4 3l3.4 2 .2.2z"/></g><path d="M450.6 213.8l-2.4-1.5c-.7-.5-1.8-.4-2.9.2l-14.5 8.4c-2.2 1.3-4.1 4.4-4.1 7v16.8c0 1.3.5 2.2 1.2 2.7l2.7 1.6c.7.5 1.8.4 2.9-.2l14.5-8.4c2.2-1.3 4.1-4.4 4.1-7v-16.8c0-1.5-.6-2.4-1.5-2.8z" class="S"/><path d="M429.5 246.4v-16.8c0-2.6 1.8-5.7 4.1-7l14.5-8.4c1-.6 1.9-.7 2.6-.4l-2.4-1.5c-.7-.5-1.8-.4-2.9.2l-14.5 8.4c-2.2 1.3-4.1 4.4-4.1 7v16.8c0 1.3.5 2.2 1.2 2.7l2.7 1.6c-.8-.5-1.2-1.3-1.2-2.6z" class="U"/><g class="O"><path d="M431.7 249.7c-.5 0-.9-.1-1.3-.4l-2.7-1.6c-.9-.5-1.4-1.6-1.4-3V228c0-2.7 1.9-6 4.3-7.4l14.5-8.4c1.2-.7 2.5-.8 3.3-.2l2.4 1.5c1.1.4 1.7 1.6 1.7 3.1v16.8c0 2.7-1.9 6-4.3 7.4l-14.5 8.4c-.6.3-1.3.5-2 .5zm15.4-37.3c-.5 0-1 .2-1.6.5l-14.5 8.4c-2.1 1.2-3.9 4.3-3.9 6.7v16.8c0 1.1.4 1.9 1 2.3l2.7 1.6c.6.4 1.6.3 2.5-.2l14.5-8.4c2.1-1.2 3.9-4.3 3.9-6.7v-16.8c0-1.2-.4-2.1-1.2-2.4l-2.5-1.5c-.3-.2-.6-.3-.9-.3z"/><use xlink:href="#J"/></g><path d="M59.8 268.6l-2.4-1.5c-.7-.5-1.8-.4-2.9.2L40 275.7c-2.2 1.3-4.1 4.4-4.1 7v16.8c0 1.3.5 2.2 1.2 2.7l2.7 1.6c.7.5 1.8.4 2.9-.2l14.5-8.4c2.2-1.3 4.1-4.4 4.1-7v-16.8c0-1.5-.6-2.4-1.5-2.8z" fill="#ff5a3c"/><path d="M38.7 301.2v-16.8c0-2.6 1.8-5.7 4.1-7l14.5-8.4c1-.6 1.9-.7 2.6-.4l-2.4-1.5c-.7-.5-1.8-.4-2.9.2l-14.5 8.4c-2.2 1.3-4.1 4.4-4.1 7v16.8c0 1.3.5 2.2 1.2 2.7l2.7 1.6c-.8-.5-1.2-1.4-1.2-2.6z" fill="#b5402b"/><g class="O"><path d="M40.9 304.5c-.5 0-.9-.1-1.3-.4l-2.7-1.6c-.9-.5-1.4-1.6-1.4-3v-16.8c0-2.7 1.9-6 4.3-7.4l14.5-8.4c1.2-.7 2.5-.8 3.3-.2l2.4 1.5c1.1.4 1.7 1.6 1.7 3.1v16.8c0 2.7-1.9 6-4.3 7.4l-14.5 8.4c-.7.4-1.3.6-2 .6zm15.4-37.3c-.5 0-1 .2-1.6.5l-14.5 8.4c-2.1 1.2-3.9 4.3-3.9 6.7v16.8c0 1.1.4 1.9 1 2.3l2.7 1.6c.6.4 1.6.3 2.5-.2l14.5-8.4c2.1-1.2 3.9-4.3 3.9-6.7v-16.8c0-1.2-.4-2.1-1.2-2.4l-2.5-1.5c-.3-.2-.6-.3-.9-.3z"/><use xlink:href="#J" x="-390.8" y="54.8"/><g class="R"><path d="M335.1 310.7v9.5l-1.5.9V313l-1.7 1v-1.5l3.2-1.8zm7.8-4.5v9.5l-1.5.9v-8.1l-1.7 1V308l3.2-1.8zm4.9 2c0-3.1 1.5-5.8 3.4-6.9 2-1.1 3.5-.2 3.5 2.9s-1.5 5.8-3.5 6.9c-1.9 1.1-3.4.2-3.4-2.9zm5.3-3.1c0-2.3-.8-2.9-1.9-2.3s-1.9 2.2-1.9 4.5.8 2.9 1.9 2.3c1.2-.7 1.9-2.2 1.9-4.5z"/><use xlink:href="#K"/><path d="M369.8 290.7v9.5l-1.5.9V293l-1.7 1v-1.5l3.2-1.8zm4.5-2.6v9.5l-1.5.9v-8.1l-1.7 1V290l3.2-1.9z"/><use xlink:href="#K" x="20.2" y="-11.7"/><path d="M261.2 211.5c0-3.1 1.5-5.8 3.5-6.9s3.5-.2 3.5 2.9-1.5 5.8-3.5 6.9c-2 1.2-3.5.3-3.5-2.9zm5.4-3.1c0-2.3-.8-2.9-1.9-2.3s-1.9 2.2-1.9 4.5.8 2.9 1.9 2.3 1.9-2.1 1.9-4.5zm2.5-1.4c0-3.1 1.5-5.8 3.4-6.9 2-1.1 3.5-.2 3.5 2.9s-1.5 5.8-3.5 6.9c-1.9 1.1-3.4.2-3.4-2.9zm5.4-3.1c0-2.3-.8-2.9-1.9-2.3s-1.9 2.2-1.9 4.5.8 2.9 1.9 2.3c1.1-.7 1.9-2.2 1.9-4.5zm8.7-9.8v9.5l-1.5.9v-8.1l-1.7 1V196l3.2-1.9zm7.8-4.5v9.5l-1.5.9v-8.1l-1.7 1v-1.5l3.2-1.8zm4.5-2.6v9.5l-1.5.9v-8.1l-1.7 1v-1.5l3.2-1.8zm4.9 1.9c0-3.1 1.5-5.8 3.4-6.9 2-1.1 3.5-.2 3.5 2.9s-1.5 5.8-3.5 6.9c-1.9 1.2-3.4.3-3.4-2.9zm5.3-3.1c0-2.3-.8-2.9-1.9-2.3s-1.9 2.2-1.9 4.5.8 2.9 1.9 2.3c1.2-.7 1.9-2.2 1.9-4.5zm5.4-7.9v9.5l-1.5.9v-8.1l-1.7 1v-1.5l3.2-1.8z"/><path d="M67.9 208.3c0-5.9 2.8-7.6 6.5-5.5s6.5 7.1 6.5 13-2.8 7.6-6.5 5.5c-3.7-2.2-6.5-7.1-6.5-13zm10.1 5.8c0-4.3-1.5-7.2-3.6-8.4s-3.6-.1-3.6 4.3 1.5 7.2 3.6 8.4 3.6 0 3.6-4.3zm16.4.5v18l-2.9-1.7v-15.2l-3.3-1.9V211l6.2 3.6zm9.2 14.3c0-5.9 2.8-7.6 6.5-5.5s6.5 7.1 6.5 13-2.8 7.6-6.5 5.5c-3.7-2.2-6.5-7.1-6.5-13zm10.1 5.8c0-4.3-1.5-7.2-3.6-8.4s-3.6-.1-3.6 4.3 1.5 7.2 3.6 8.4c2.2 1.2 3.6 0 3.6-4.3zm16.4.5v18l-2.9-1.7v-15.2l-3.3-1.9v-2.8l6.2 3.6zm8.5 4.9v18l-2.9-1.7v-15.2l-3.3-1.9v-2.8l6.2 3.6zm9.2 14.3c0-5.9 2.8-7.6 6.5-5.5s6.5 7.1 6.5 13-2.8 7.6-6.5 5.5c-3.7-2.2-6.5-7.1-6.5-13zm10.1 5.8c0-4.3-1.5-7.2-3.6-8.4s-3.6-.1-3.6 4.3 1.5 7.2 3.6 8.4 3.6.1 3.6-4.3z"/></g></g><path d="M422.8 154.7l-39.5 22.8v-3.1l39.5-22.8zm0-7.1l-39.5 22.8v-3.1l39.5-22.8zm0 14.1l-39.5 22.8v-3.1l39.5-22.8zm-14.1 15.1l-25.4 14.7v-3.1l25.4-14.7z" opacity=".4" class="Q"/><path d="M321 59.3c0-.1 0-.1 0 0l-10-21-.1-.1-28.3-17.4h-.1L271.2 18l-5-5.7s-.1 0-.1-.1h-.2L234.4 5h-.2l-38.4 14.8c-.1 0-.1.1-.1.1l-25 29.7v.1l-4.5 18.5v.1l1 18.6 8.1 16.2.1.1h.2l22.1 1.7c.1 0 .1 0 .2-.1l1.8-1.4 12.3 21.3.1.1h.1l30.3 5 29.2-4.5h.1l41.1-23.8v-.2l8.1-42c0 .1 0 0 0 0z" class="Q"/><path d="M266 12.5c-1.2-.4-20.9-2.4-20.9-2.4l-34 19.3s-20.2 34-20.2 35.2-4.8 28.1-4.8 28.1l11.5 12.2 1.9-1.8-2-3.8 4.3-30.1 19.8-33.4 36.1-20.6 13 3.1-4.7-5.8z" class="P"/><g fill="none" class="V"><g stroke="#171f2e" stroke-width="1.043" stroke-linejoin="round"><path d="M197.6 99.5l14.5 25.2 30.2 5 29.2-4.5 41.1-23.8 8.1-42.1-10-20.9-28.3-17.3-24.7-6-36.1 20.7-19.8 33.5zm-22.1 3.6l10.6-10.5 11.5 12.1z"/><g class="W"><path d="M271.1 18.3l-5.1-5.8-31.7-7.2-38.4 14.8-25 29.7-4.5 18.6 1 18.5 8.1 16.2v-20l10.6 9.5m11.5 12.1l2-1.6"/><path d="M175.5 103.1l-9.1-34.7 9.1 14.7 4.1-27.7 11.3 9.2"/><path d="M266 12.5c-1.2-.4-20.9-2.4-20.9-2.4l-34 19.3s-20.2 34-20.2 35.2-4.8 28.1-4.8 28.1l-6.5-37.2-8.7-5.6"/><path d="M166.4 68.4l13.2-13c-.3 0 16.3-35.3 16.3-35.3l15.2 9.3-31.5 26m65.5-45.3l-10.8-4.8-23.2 24.1m31.2 100.3l-.6-22.4-29.6 17.4.4-17.9-14.9-7.3 19.5-23.1m54 22.3l-29.4 8.6"/><path d="M201.8 69.3l15.3 7.1-4.6 30.4 29.2.5 29.8 17.9-.4-26.5 40.1-22.9 1.4 25.6-41.5-2.7"/><path d="M237.8 42.8l-16.2-7-4.5 40.6 24.6 30.9-3.9-30.9V42.8l21.3 26.5 12 29.4 30.2-53.8-63.5-2.1m35.6-20.2l27.9 22.3 9.9 30.9 9.5-16.5-19.4-14.4"/><path d="M273.4 22.6l37.3 15.8-9.4 6.5-42.2 24.4-21.3 7.1h-20.7l20.7-33.6 35.6-20.2-15.7-7.5"/><path d="M251.4 86.1c.2-.4 7.7-16.8 7.7-16.8l-17.4 37.9"/></g></g><g stroke="#6b70fc" stroke-width="2.407" stroke-linejoin="bevel" class="W"><path d="M226.9 60.4l10.9-17.6 11 13.7m38.8-12.3l13.7.7 3.4 10.5M284 75.8l-12.9 22.9v10.8M210 84.8l7.1-8.4 24.6 30.9 11.5-3.4m-15.4-61.1l-10.3-4.4m52.1 19.1l-20.4 11.8-8.8 18.8m-47.8-63.9l-6.7-4.1-8.1 17.2m34-27.2c.7-.6 12.5-4.8 12.5-4.8l7.9 3.5m-44.6 43.7c-.5.8-6.7 12.1-6.7 12.1L189 76.4m1.9-11.8l-11.3-9.2-7.4 7.2m30.7 46.9l9.1 15.2c.8-.4 14.2-8.3 14.2-8.3m89.7-32.2l-3.3 17.2-14.6 8.4m-55.7 19.9l29.2-4.5-20.3-12.2m5.2-80.8l17-9.6 37.5 15.6m-37.5-15.6l-9.3-4.4m-95.7 71.4l7.1 13.3 6.9-6.6"/><path d="M212.1 124.7l9.6 1.6M195.8 19.8l-22 26.6"/></g></g><defs ><path id="B" d="M293.7 245.9l-1.4-1.1 27.6-15.9c1.6-.9 3.1-.8 4 .1l.5.5-.7-.1c-.7-.1-1.5 0-2.4.5l-27.6 16zm-.6-1l.6.5 27.4-15.8c.7-.4 1.3-.6 1.9-.6-.8-.4-1.8-.3-2.9.4l-27 15.5z"/><path id="C" d="M272 310.9l-2.4-1.4v-48.8l2.4 1.4v48.8zm-2-1.6l1.6.9v-47.9l-1.6-.9v47.9z"/><path id="D" d="M288.3 270.4l-2.4-1.4.3-.2 54.1-31.2 2.4 1.4-54.4 31.4zm-1.6-1.4l1.6.9 53.6-30.9-1.6-.9-53.6 30.9z"/><path id="E" d="M210.6 285.5l2.4 1.4v-2.8l-2.4-1.4z"/><path id="F" d="M202.9 281l2.4 1.4v-2.7l-2.4-1.4z"/><path id="G" d="M183.6 269.9l2.4 1.4v-2.8l-2.4-1.3z"/><path id="H" d="M172.1 263.2l2.3 1.4v-2.7l-2.3-1.4z"/><path id="I" d="M218.3 298.7l2.4 1.3v-2.7l-2.4-1.4z"/><path id="J" d="M431.7 249.6c-1.6 0-2.6-1.3-2.6-3.2v-16.8c0-2.7 1.9-5.9 4.2-7.3l14.5-8.4c.7-.4 1.3-.6 2-.6 1.6 0 2.6 1.3 2.6 3.2v16.8c0 2.7-1.9 5.9-4.2 7.3l-14.5 8.4c-.7.4-1.3.6-2 .6zm18.2-35.6c-.5 0-1.1.2-1.7.5l-14.5 8.4c-2.2 1.2-3.9 4.3-3.9 6.8v16.8c0 1.6.7 2.6 2 2.6.5 0 1.1-.2 1.7-.5l14.5-8.4c2.2-1.2 3.9-4.3 3.9-6.8v-16.8c-.1-1.6-.8-2.6-2-2.6z"/><path id="K" d="M355.7 303.6c0-3.1 1.5-5.8 3.5-6.9s3.5-.2 3.5 2.9-1.5 5.8-3.5 6.9-3.5.2-3.5-2.9zm5.4-3.1c0-2.3-.8-2.9-1.9-2.3s-1.9 2.2-1.9 4.5.8 2.9 1.9 2.3c1.1-.7 1.9-2.2 1.9-4.5z"/></defs></svg>