<?xml version="1.0" encoding="utf-8"?>
<!-- Generator: Adobe Illustrator 23.1.0, SVG Export Plug-In . SVG Version: 6.00 Build 0)  -->
<svg version="1.1" xmlns="http://www.w3.org/2000/svg" xmlns:xlink="http://www.w3.org/1999/xlink" x="0px" y="0px"
	 viewBox="0 0 488 400" style="enable-background:new 0 0 488 400;" xml:space="preserve">
<style type="text/css">
	.st0{fill:#D6DFEB;}
	.st1{fill:#FFFFFF;}
	.st2{fill:#171F2E;}
	.st3{fill:#8B90FC;}
	.st4{fill:#4649A6;}
	.st5{fill:#6B70FC;}
	.st6{opacity:0.5;fill:#6B70FC;}
	.st7{opacity:0.2;fill:#6B70FC;}
	.st8{fill:#FF5A3C;}
	.st9{fill:#B5402B;}
	.st10{opacity:0.4;}
	.st11{fill:none;stroke:#171F2E;stroke-width:1.0432;stroke-linecap:round;stroke-linejoin:round;stroke-miterlimit:10;}
	.st12{fill:none;stroke:#6B70FC;stroke-width:2.4074;stroke-linecap:round;stroke-linejoin:bevel;stroke-miterlimit:10;}
	.st13{opacity:0.1;fill:#6B70FC;}
	.st14{opacity:0.4;fill:#6B70FC;}
	.st15{opacity:0.6;fill:#6B70FC;}
	.st16{opacity:0.8;fill:#6B70FC;}
	.st17{fill:#B42E6A;}
	.st18{fill:#D6DFEB;stroke:#181E30;stroke-width:1.4745;stroke-miterlimit:10;}
	.st19{fill:#FFFFFF;stroke:#181E30;stroke-width:1.4745;stroke-miterlimit:10;}
	.st20{fill:none;stroke:#181E30;stroke-width:1.1059;stroke-linecap:round;stroke-linejoin:round;stroke-miterlimit:10;}
	.st21{fill:#D6DFEB;stroke:#181E30;stroke-width:1.4819;stroke-miterlimit:10;}
	.st22{fill:#FFFFFF;stroke:#181E30;stroke-width:1.4819;stroke-miterlimit:10;}
	.st23{fill:none;stroke:#181E30;stroke-width:1.1114;stroke-linecap:round;stroke-linejoin:round;stroke-miterlimit:10;}
	.st24{fill:none;stroke:#181E30;stroke-width:1.4819;stroke-miterlimit:10;}
	.st25{opacity:0.6;fill:#FFFFFF;}
	.st26{opacity:0.7;fill:#CBD5DF;}
	.st27{fill:#CF4931;}
	.st28{opacity:0.8;}
	.st29{fill:#4E52B8;}
	.st30{fill:#D64C32;}
</style>
<g id="Layer_2">
</g>
<g id="Layer_1">
	<g>
		<path class="st0" d="M410.3,165.8v-32.3c0-5-3.5-11.1-7.8-13.5l-28-16.2c-1.9-1.1-3.6-1.3-5-0.8v0l4.7-2.9
			c1.4-0.9,3.4-0.8,5.7,0.5l28,16.2c4.3,2.5,7.8,8.6,7.8,13.5l0,32.3c0,2.5-0.9,4.3-2.4,5.1l-5.2,3.1v0
			C409.5,169.9,410.3,168.2,410.3,165.8z"/>
		<path class="st8" d="M367.3,105.1l-0.5,2v7.6l0,25.5v2.3l1.1,2.8l1.1,3.2l2.6,3.3l2.6,2.1l29.3,17l2.7,0.6c0,0,1.5-0.3,1.8-0.4
			c0.2-0.2,1.1-0.8,1.1-0.8s0,0,0.1,0.1c0.8-1,1.3-2.4,1.3-4.2l0-32.3c0-5-3.5-11.1-7.8-13.5l-28-16.2c-2.2-1.3-4.2-1.4-5.7-0.5
			l-0.5,0.3L367.3,105.1z"/>
		<g>
			<g>
				<path class="st1" d="M244.5,373.4l0-26.8l6.7-3.8v26.8c0,12.3,8.7,17.3,19.3,11.2c10.7-6.2,19.3-21.2,19.3-33.5l0-222.9
					c0-16.6,11.7-36.8,26-45c7-4.1,13.4-4.5,18.1-1.9l0,0L213.5,7.8c-4.7-3-11.4-2.8-18.8,1.5c-14.3,8.3-26,28.5-26,45l0,222.9
					c0,12.3-8.7,27.3-19.3,33.5l96,69.3C244.8,378.1,244.5,375.9,244.5,373.4z"/>
				<path class="st2" d="M261.9,383.9c-6.8,0-11.2-5.6-11.2-14.3v-26l-5.7,3.3l0,26.6c0,2.3,0.2,4.5,0.7,6.5l0.3,1.3l-97.7-70.6
					l0.7-0.4c10.5-6.1,19.1-20.9,19.1-33l0-222.9c0-16.7,11.8-37.1,26.2-45.5c4.1-2.4,8.1-3.6,11.8-3.6c2.8,0,5.3,0.7,7.5,2.1
					l121.5,70.1l-1.4,0.4l-0.2-0.1c-1.9-1-4-1.5-6.3-1.5c-3.5,0-7.3,1.2-11.3,3.5c-14.2,8.2-25.7,28.2-25.7,44.6l0,222.9
					c0,12.5-8.8,27.7-19.6,33.9C267.7,383,264.7,383.9,261.9,383.9z M251.7,342.5L251.7,342.5v27.1c0,8.2,3.9,13.3,10.2,13.3
					c2.6,0,5.4-0.9,8.4-2.6c10.5-6.1,19.1-20.9,19.1-33l0-222.9c0-16.7,11.8-37.1,26.2-45.5c5-2.9,9.8-4,14-3.5L213.2,8.3
					c-2-1.3-4.4-2-7-2c-3.5,0-7.3,1.2-11.3,3.5C180.7,18,169.1,38,169.1,54.4l0,222.9c0,12.2-8.4,27.1-18.9,33.5l94.3,68.1
					c-0.3-1.7-0.5-3.6-0.5-5.5l0-27.1l7.2-4.1L251.7,342.5z"/>
			</g>
			<g>
				<g>
					<path class="st0" d="M270.5,388.4c-14.3,8.3-26,1.5-26-15l0-26.8l6.7-3.8v26.8c0,12.3,8.7,17.3,19.3,11.2
						c10.7-6.2,19.3-21.2,19.3-33.5l0-222.9c0-16.6,11.7-36.8,26-45c14.3-8.3,26-1.5,26,15l0,30l-6.7,3.8l0-30
						c0-12.3-8.7-17.3-19.3-11.2c-10.7,6.2-19.3,21.2-19.3,33.5l0,222.9C296.5,360,284.9,380.2,270.5,388.4z"/>
					<path class="st2" d="M258.9,392.5c-9.1,0-14.9-7.5-14.9-19.1l0-27.1l7.2-4.1l0.5,0.3v27.1c0,8.2,3.9,13.3,10.2,13.3
						c2.6,0,5.4-0.9,8.4-2.6c10.5-6.1,19.1-20.9,19.1-33l0-222.9c0-16.7,11.8-37.1,26.2-45.5c4.1-2.4,8.1-3.6,11.8-3.6
						c9.1,0,14.9,7.5,14.9,19.1l0,30.3l-6.7,3.9l-1-0.6l0-29.8c0-8.2-3.9-13.3-10.2-13.3c-2.6,0-5.4,0.9-8.4,2.6
						c-10.5,6.1-19.1,20.9-19.1,33l0,222.9c0,16.7-11.8,37.1-26.3,45.5C266.6,391.3,262.7,392.5,258.9,392.5z M245,346.9l0,26.6
						c0,11.1,5.3,18,13.9,18c3.5,0,7.3-1.2,11.3-3.5c14.2-8.2,25.7-28.2,25.7-44.6l0-222.9c0-12.5,8.8-27.7,19.6-33.9
						c3.1-1.8,6.1-2.7,8.9-2.7c6.8,0,11.2,5.6,11.2,14.3l0,29.2l5.7-3.3l0-29.8c0-11.1-5.3-18-13.9-18c-3.5,0-7.3,1.2-11.3,3.5
						c-14.2,8.2-25.7,28.2-25.7,44.6l0,222.9c0,12.5-8.8,27.7-19.6,33.9c-3.1,1.8-6.1,2.7-8.9,2.7c-6.8,0-11.2-5.6-11.2-14.3v-26
						L245,346.9z"/>
				</g>
			</g>
			<g>
				<path class="st1" d="M244.5,373.4l0-26.8l-121.2-70l0,26.8c0,8.5,3.1,14.4,8,17l119.7,69C247,386.5,244.5,381,244.5,373.4z"/>
				<path class="st2" d="M250.7,389.9l-119.7-69c-5.3-2.8-8.3-9-8.3-17.5l0-27.1l0.5-0.3L245,346.3l0,27.1c0,7.1,2.2,12.6,6.2,15.6
					L250.7,389.9z M123.8,277.5l0,26c0,8,2.8,13.9,7.7,16.6l116.4,67.1c-2.5-3.3-3.9-8.1-3.9-13.7l0-26.6L123.8,277.5z"/>
			</g>
			<g>
				<polygon class="st1" points="251.2,342.7 244.5,346.6 123.3,276.6 130,272.8 				"/>
				<path class="st2" d="M244.5,347.2l-0.3-0.1l-121.5-70.1l0.5-0.9l6.7-3.8l0.3,0.1l121,69.8l0.5,0.9L244.5,347.2z M124.3,276.6
					L244.5,346l5.7-3.3L130,273.4L124.3,276.6z"/>
			</g>
			<g>
				<path class="st0" d="M315.9,87c-7,4.1-13.2,12-16.6,20.5l35.9,20.7l0-30C335.2,85.9,326.5,80.9,315.9,87z"/>
				<path class="st2" d="M335.7,128.6h-0.9l-36.2-20.9l0.2-0.4c3.5-8.8,10-16.8,16.8-20.7c3.1-1.8,6.1-2.7,8.9-2.7
					c6.8,0,11.2,5.6,11.2,14.3L335.7,128.6z M299.9,107.3l34.8,20.1l0-29.2c0-8.2-3.9-13.3-10.2-13.3c-2.6,0-5.4,0.9-8.4,2.6
					C309.6,91.2,303.4,98.8,299.9,107.3z"/>
			</g>
		</g>
		<g>
			<polygon class="st13" points="320.5,209.9 316.8,207.7 320.7,202.4 316.8,192.5 320.5,194.7 324.4,204.6 			"/>
			<polygon class="st7" points="335.6,218.6 331.9,216.4 335.8,211.1 331.9,201.2 335.6,203.4 339.5,213.3 			"/>
			<polygon class="st14" points="350.7,227.3 346.9,225.2 350.9,219.8 346.9,210 350.7,212.1 354.6,222 			"/>
			<polygon class="st15" points="365.8,236 362,233.9 366,228.6 362,218.7 365.8,220.8 369.7,230.7 			"/>
			<polygon class="st16" points="380.9,244.8 377.1,242.6 381.1,237.3 377.1,227.4 380.9,229.5 384.8,239.4 			"/>
			<polygon class="st5" points="396,253.5 392.2,251.3 396.2,246 392.2,236.1 396,238.3 399.9,248.1 			"/>
		</g>
		<g>
			<polygon class="st5" points="100.5,215.8 95,217.3 95,221 100.5,219.6 105.9,227.3 105.9,223.6 			"/>
			<polygon class="st16" points="100.5,231.7 95,233.2 95,236.9 100.5,235.5 105.9,243.2 105.9,239.5 			"/>
			<polygon class="st15" points="100.5,247.6 95,249.1 95,252.8 100.5,251.3 105.9,259.1 105.9,255.4 			"/>
			<polygon class="st14" points="100.5,263.5 95,265 95,268.7 100.5,267.2 105.9,275 105.9,271.3 			"/>
			<polygon class="st7" points="100.5,279.4 95,280.8 95,284.6 100.5,283.1 105.9,290.9 105.9,287.2 			"/>
			<polygon class="st7" points="100.5,294 95,295.4 95,299.2 100.5,297.7 105.9,305.5 105.9,301.7 			"/>
		</g>
		<path class="st5" d="M379.7,273.1l-42.1-24.3c-3.3-1.9-6.4-2-8.5-0.7l-7.1,4.3v0c0,0,0,0,0,0c-2.6,1-4.3,3.8-4.3,8V309
			c0,7.5,5.3,16.6,11.8,20.4l42.1,24.3c3.3,1.9,6.3,2,8.5,0.7c0,0,0,0,0,0v0l7.8-4.7c2.2-1.2,3.6-3.9,3.6-7.7l0-48.6
			C391.5,286,386.2,276.8,379.7,273.1z"/>
		<path class="st0" d="M383.4,346.9v-48.6c0-7.5-5.3-16.6-11.8-20.4l-42.1-24.3c-2.8-1.6-5.5-2-7.5-1.2v0l7.1-4.3
			c2.1-1.4,5.2-1.2,8.5,0.7l42.1,24.3c6.5,3.7,11.7,12.9,11.8,20.4l0,48.6c0,3.8-1.4,6.5-3.6,7.7l-7.8,4.7v0
			C382.1,353.1,383.4,350.5,383.4,346.9z"/>
		<path class="st3" d="M133.6,117.3L92.8,93.8c-3.2-1.9-6.2-2-8.2-0.7l-6.9,4.2v0c0,0,0,0,0,0c-2.5,1-4.1,3.7-4.1,7.7v47.1
			c0,7.2,5.1,16.1,11.4,19.8l40.8,23.6c3.2,1.9,6.1,2,8.2,0.7c0,0,0,0,0,0v0l7.5-4.5c2.2-1.2,3.5-3.7,3.5-7.5l0-47.1
			C145,129.8,139.9,120.9,133.6,117.3z"/>
		<path class="st0" d="M137.2,188.9v-47.1c0-7.2-5.1-16.1-11.4-19.8L85,98.5c-2.8-1.6-5.3-1.9-7.3-1.2v0l6.9-4.2
			c2.1-1.3,5-1.2,8.2,0.7l40.8,23.6c6.3,3.6,11.4,12.5,11.4,19.8l0,47.1c0,3.7-1.3,6.3-3.5,7.5l-7.5,4.5v0
			C136,194.9,137.2,192.4,137.2,188.9z"/>
		<path class="st2" d="M376.8,355.9c-1.7,0-3.6-0.6-5.5-1.7l-42.1-24.3c-6.7-3.8-12.1-13.2-12.1-20.9v-48.6c0-4.3,1.7-7.4,4.6-8.5
			l7-4.3c2.4-1.5,5.7-1.3,9.1,0.7l42.1,24.3c6.6,3.8,12.1,13.2,12.1,20.9l0,48.6c0,3.9-1.4,6.9-3.9,8.2l-8.7,5.1l0,0
			C378.7,355.7,377.8,355.9,376.8,355.9z M322.2,252.8l0.1,0.3c-2.5,0.9-3.9,3.6-3.9,7.4V309c0,7.3,5.1,16.2,11.4,19.8l42.1,24.3
			c3,1.7,5.8,2,7.8,0.7l0,0l7.8-4.7c2.1-1.1,3.3-3.7,3.3-7.2l0-48.6c0-7.3-5.1-16.2-11.4-19.8l-42.1-24.3c-3-1.7-5.9-2-7.9-0.7
			l-7.1,4.3l-0.2-0.4l0.2,0.4L322.2,252.8z"/>
		<path class="st2" d="M408.2,116.2l-28-16.2c-2.3-1.3-4.6-1.5-6.2-0.4l-4.7,2.9c-0.5,0.2-0.9,0.5-1.3,0.8l-0.6,0.6
			c-0.1,0.1,0.1-0.1,0,0c-0.1,0.2-0.2,0.3-0.3,0.4l0,0c-0.6,1-1,2.4-1,4v32.3c0,5.2,3.6,11.4,8.1,14l28,16.2
			c1.3,0.7,2.6,1.1,3.7,1.1c0.2,0,0.4,0,0.7,0c0.5-0.1,1-0.2,1.4-0.4l5.5-3.3c1.7-0.9,2.7-2.9,2.7-5.6l0-32.3
			C416.3,125.1,412.6,118.8,408.2,116.2z M415.2,162.5c0,2.3-0.8,3.9-2.1,4.6l-5.2,3.1v0c-1.3,0.8-3.1,0.6-5.1-0.5l-28-16.2
			c-4.2-2.4-7.5-8.3-7.5-13.1v-32.3c0-2.4,0.9-4.2,2.5-4.8l0.1,0l0,0l4.7-2.9c1.3-0.8,3.2-0.6,5.1,0.5l28,16.2
			c4.2,2.4,7.5,8.3,7.5,13.1L415.2,162.5z"/>
		<path class="st2" d="M130.8,197.6c-1.7,0-3.5-0.5-5.4-1.6l-40.8-23.6c-6.5-3.7-11.7-12.8-11.7-20.3V105c0-4.1,1.6-7.2,4.5-8.3
			l6.8-4.2c2.3-1.5,5.6-1.3,8.9,0.7l40.8,23.6c6.4,3.7,11.7,12.8,11.7,20.3l0,47.1c0,3.8-1.4,6.7-3.8,8l-8.4,5l0,0
			C132.6,197.5,131.7,197.6,130.8,197.6z M77.8,97.6l0.1,0.3c-2.4,0.9-3.7,3.5-3.7,7.2v47.1c0,7.1,5,15.7,11.1,19.2l40.8,23.6
			c2.9,1.7,5.6,1.9,7.6,0.7l0,0l7.5-4.5c2.1-1.1,3.2-3.6,3.2-6.9l0-47.1c0-7.1-5-15.7-11.1-19.2L92.5,94.3c-2.9-1.7-5.7-1.9-7.6-0.7
			L78,97.8l-0.3-0.4l0.2,0.4L77.8,97.6z"/>
		<path class="st0" d="M274.1,262.3c-1.6-0.9-2.9-0.4-3.2,1.1c-7.4-2.8-11,1.5-13.8,4.8c-0.7,0.8-1.3,1.6-2,2.2
			c-0.5-0.6-1-1.1-1.6-1.4c-1.4-0.8-2.6-0.5-3,0.7c-1.3-1.4-2.5-3.2-3.8-5.3c-2-3.2-4.3-6.9-7.9-9.9c-0.3-1.8-1.6-3.8-3.1-4.7
			c-1.7-1-3-0.3-3.2,1.4c-3.7-0.4-6.9,2-10,4.4c-2.2,1.6-4.3,3.2-6.3,3.6c-0.6-1.3-1.5-2.5-2.6-3.1c-1.4-0.8-2.6-0.5-3,0.7
			c-1.7-1.8-3.1-4.2-4.6-6.9c-2.5-4.5-5.4-9.6-10.6-12.7c-7.4-4.3-13.5,5-16.2,10.2c-0.1,0-0.1-0.1-0.2-0.1c-1.8-1-3.2-0.2-3.2,1.9
			c0,2.1,1.4,4.6,3.2,5.6c1.8,1,3.2,0.2,3.2-1.9c0-1.2-0.5-2.6-1.3-3.7c2.6-4.9,8.2-13.4,14.4-9.8c4.5,2.6,6.8,6.8,9.3,11.2
			c1.7,3,3.4,6.2,5.9,8.5c0.4,1.8,1.6,3.7,3.1,4.6c1.8,1,3.2,0.2,3.2-1.9c0,0,0,0,0,0c2.4-0.3,4.7-2.1,7.1-3.9
			c2.9-2.2,5.8-4.4,9-4.2c0.5,1.5,1.6,2.9,2.9,3.7c1.4,0.8,2.6,0.5,3-0.7c2.9,2.5,4.9,5.6,6.8,8.7c1.6,2.5,3.1,4.9,4.9,6.6
			c0.4,1.8,1.6,3.7,3.1,4.6c1.8,1,3.2,0.2,3.2-1.9c0-0.6-0.1-1.2-0.3-1.8c0.8-0.6,1.5-1.5,2.3-2.4c2.7-3.2,5.9-7,12.4-4.6
			c0.5,1.7,1.6,3.3,3,4.1c1.8,1,3.2,0.2,3.2-1.9C277.4,265.9,275.9,263.4,274.1,262.3z"/>
		<g>
			<polygon class="st0" points="277.7,328 220.8,295.1 220.8,288.5 277.7,321.4 			"/>
			<g>
				<g>
					<polygon class="st1" points="216.5,290.8 212.2,293 212.2,299.7 269.1,332.5 273.4,330.3 273.4,323.6 					"/>
					<path class="st2" d="M269.1,333.1l-0.2-0.1l-57.2-33v-7.2l4.8-2.5l0.2,0.1l57.2,33v7.2L269.1,333.1z M212.7,299.4l56.4,32.6
						l3.8-2v-6l-56.4-32.6l-3.8,2V299.4z"/>
				</g>
				<polygon class="st0" points="273.4,330.3 269.1,332.5 269.1,325.9 273.4,323.6 				"/>
				<g>
					<path class="st2" d="M268.7,333.2v-7.5l5.1-2.7v7.5L268.7,333.2z M269.5,326.1v5.8l3.5-1.9v-5.8L269.5,326.1z"/>
				</g>
				<g>
					<path class="st2" d="M269.5,333.2l-57.7-33.3v-7.5l57.7,33.3V333.2z M212.6,299.4l56.2,32.4v-5.8l-56.2-32.4V299.4z"/>
				</g>
			</g>
		</g>
		<g>
			<polygon class="st0" points="277.7,134.4 220.8,101.5 220.8,94.9 277.7,127.7 			"/>
			<g>
				<g>
					<polygon class="st1" points="216.5,97.1 212.2,99.4 212.2,106 269.1,138.9 273.4,136.6 273.4,130 					"/>
					<path class="st2" d="M269.1,139.5l-0.2-0.1l-57.2-33v-7.2l4.8-2.5l0.2,0.1l57.2,33v7.2L269.1,139.5z M212.7,105.7l56.4,32.6
						l3.8-2v-6l-56.4-32.6l-3.8,2V105.7z"/>
				</g>
				<polygon class="st0" points="273.4,136.6 269.1,138.9 269.1,132.3 273.4,130 				"/>
				<g>
					<path class="st2" d="M268.7,139.5V132l5.1-2.7v7.5L268.7,139.5z M269.5,132.5v5.8l3.5-1.9v-5.8L269.5,132.5z"/>
				</g>
				<g>
					<path class="st2" d="M269.5,139.6l-57.7-33.3v-7.5l57.7,33.3V139.6z M212.6,105.8l56.2,32.4v-5.8l-56.2-32.4V105.8z"/>
				</g>
			</g>
		</g>
		<polygon class="st0" points="207.5,200.9 187.7,189.5 187.7,86.2 207.5,97.6 		"/>
		<g>
			<g>
				<polygon class="st8" points="195.5,104.6 175.7,93.2 181.7,89.7 201.5,101.1 				"/>
				<path class="st2" d="M195.5,105.2l-20.8-12l7-4.1l20.8,12L195.5,105.2z M176.7,93.2l18.8,10.8l5-2.9l-18.8-10.8L176.7,93.2z"/>
			</g>
			<g>
				<polygon class="st9" points="201.5,204.4 195.5,207.9 195.5,104.6 201.5,101.1 				"/>
				<path class="st2" d="M195,208.2l0-103.9l7-4.1l0,104.5l-6,3.5L195,208.2z M196,104.9l0,102.1l5-2.9l0-102.1L196,104.9z"/>
			</g>
			<g>
				<polygon class="st8" points="195.5,207.9 175.7,196.5 175.7,93.2 195.5,104.6 				"/>
				<path class="st2" d="M196,208.2l-1,0l-19.8-11.4l0-104.4l20.8,12L196,208.2z M176.2,196.2L195,207l0-102.1l-18.8-10.8
					L176.2,196.2z"/>
			</g>
		</g>
		<polygon class="st0" points="232.1,215.3 212.3,203.8 212.3,144.2 232.1,155.6 		"/>
		<g>
			<g>
				<polygon class="st3" points="220.1,162.6 200.3,151.2 206.3,147.7 226.1,159.1 				"/>
				<path class="st2" d="M220.1,163.2l-20.8-12l7-4.1l20.8,12L220.1,163.2z M201.4,151.2l18.8,10.8l5-2.9l-18.8-10.8L201.4,151.2z"
					/>
			</g>
			<g>
				<polygon class="st4" points="226.1,218.8 220.1,222.3 220.1,162.6 226.1,159.1 				"/>
				<path class="st2" d="M219.6,222.5v-60.2l7-4.1l0,60.8l-6,3.5L219.6,222.5z M220.6,162.9v58.5l5-2.9l0-58.5L220.6,162.9z"/>
			</g>
			<g>
				<polygon class="st3" points="220.1,222.3 200.3,210.8 200.3,151.2 220.1,162.6 				"/>
				<path class="st2" d="M220.6,222.5l-1,0l-19.8-11.4l0-60.8l20.8,12V222.5z M200.8,210.5l18.8,10.8v-58.5l-18.8-10.8L200.8,210.5z
					"/>
			</g>
		</g>
		<polygon class="st0" points="257.9,229.6 238.1,218.2 238.1,136.7 257.9,148.2 		"/>
		<g>
			<g>
				<polygon class="st5" points="245.9,155.2 226.1,143.7 232.1,140.2 251.9,151.7 				"/>
				<path class="st2" d="M245.9,155.8l-20.8-12l7-4.1l20.8,12L245.9,155.8z M227.1,143.7l18.8,10.8l5-2.9l-18.8-10.8L227.1,143.7z"
					/>
			</g>
			<g>
				<polygon class="st4" points="251.9,233.1 245.9,236.6 245.9,155.2 251.9,151.7 				"/>
				<path class="st2" d="M245.4,236.9l0-82l7-4.1l0,82.6l-6,3.5L245.4,236.9z M246.4,155.5l0,80.3l5-2.9l0-80.3L246.4,155.5z"/>
			</g>
			<g>
				<polygon class="st5" points="245.9,236.6 226.1,225.2 226.1,143.7 245.9,155.2 				"/>
				<path class="st2" d="M246.4,236.9l-1,0l-19.8-11.4l0-82.6l20.8,12L246.4,236.9z M226.6,224.9l18.8,10.8l0-80.3l-18.8-10.8
					L226.6,224.9z"/>
			</g>
		</g>
		<polygon class="st0" points="282.1,244 262.3,232.6 262.3,194.8 282.1,206.2 		"/>
		<g>
			<g>
				<polygon class="st3" points="270.1,213.2 250.4,201.8 256.4,198.3 276.1,209.7 				"/>
				<path class="st2" d="M270.1,213.8l-20.8-12l7-4.1l20.8,12L270.1,213.8z M251.4,201.8l18.8,10.8l5-2.9l-18.8-10.8L251.4,201.8z"
					/>
			</g>
			<g>
				<polygon class="st4" points="276.1,247.5 270.1,251 270.1,213.2 276.1,209.7 				"/>
				<path class="st2" d="M269.6,251.3l0-38.4l7-4.1l0,39l-6,3.5L269.6,251.3z M270.7,213.5l0,36.6l5-2.9l0-36.6L270.7,213.5z"/>
			</g>
			<g>
				<polygon class="st3" points="270.1,251 250.4,239.6 250.4,201.8 270.1,213.2 				"/>
				<path class="st2" d="M270.7,251.3h-0.9l-19.9-11.5l0-39l20.8,12L270.7,251.3z M250.9,239.3l18.8,10.8l0-36.6l-18.8-10.8
					L250.9,239.3z"/>
			</g>
		</g>
		<g>
			<polygon class="st0" points="277.7,311.9 220.8,279.1 220.8,272.4 277.7,305.3 			"/>
			<g>
				<g>
					<polygon class="st1" points="216.5,274.7 212.2,277 212.2,283.6 269.1,316.5 273.4,314.2 273.4,307.6 					"/>
					<path class="st2" d="M269.1,317l-0.2-0.1l-57.2-33v-7.2l4.8-2.5l0.2,0.1l57.2,33v7.2L269.1,317z M212.7,283.3l56.4,32.6l3.8-2
						v-6l-56.4-32.6l-3.8,2V283.3z"/>
				</g>
				<polygon class="st0" points="273.4,314.2 269.1,316.5 269.1,309.8 273.4,307.6 				"/>
				<g>
					<path class="st2" d="M268.7,317.1v-7.5l5.1-2.7v7.5L268.7,317.1z M269.5,310.1v5.8l3.5-1.9v-5.8L269.5,310.1z"/>
				</g>
				<g>
					<path class="st2" d="M269.5,317.1l-57.7-33.3v-7.5l57.7,33.3V317.1z M212.6,283.4l56.2,32.4V310l-56.2-32.4V283.4z"/>
				</g>
			</g>
		</g>
		<g>
			<g>
				<path class="st8" d="M270.9,264.6c-0.9-0.5-1.7-0.5-2.3-0.2l0,0l-1.9,1c-4.6-1.4-7.7,0.1-10.1,2.2c-2.3,0.9-4,2.6-5.4,4.3
					c-0.3-0.3-0.6-0.5-0.9-0.7c-1.4-0.8-2.6-0.5-3,0.7c-1.3-1.4-2.5-3.2-3.8-5.3c-2-3.2-4.3-6.9-7.9-9.9c-0.3-1.8-1.6-3.8-3.1-4.7
					c-1-0.6-1.8-0.6-2.4-0.1l0,0l-2.3,1.6c-2.6,0.2-4.9,1.7-7.2,3.4c-1.6,0.8-3.2,2-4.7,3.2c-0.3,0.3-0.7,0.5-1,0.8
					c-0.6,0.3-1.3,0.6-1.9,0.7c-0.6-1.3-1.5-2.5-2.6-3.1c-1.4-0.8-2.6-0.5-3,0.7c-1.7-1.8-3.1-4.2-4.6-6.9
					c-2.5-4.5-5.4-9.6-10.7-12.7c-3.7-2.2-7.1-0.8-9.9,1.7c0.1,0,0.1,0,0.2-0.1c-4.4,1.7-8,7.2-9.8,10.8c-0.1,0-0.1-0.1-0.2-0.1
					c-1.8-1-3.2-0.2-3.2,1.9c0,2.1,1.4,4.6,3.2,5.6c1.1,0.6,2,0.6,2.6,0c0,0,0,0,0,0.1l2.5-1.8c0.9-0.1,1.6-0.9,1.6-2.3
					c0-1.2-0.5-2.6-1.3-3.7c1.3-2.4,3.3-5.8,5.8-8.1c1.6-0.6,3.4-0.6,5.2,0.5c4.5,2.6,6.8,6.8,9.3,11.2c1.7,3,3.4,6.2,5.9,8.5
					c0.4,1.8,1.6,3.7,3.1,4.6c1.1,0.6,2,0.6,2.6,0c0,0-0.1,0.1-0.1,0.1l2.8-1.9c0.6-0.2,1-0.6,1.2-1.3c1.3-0.7,2.6-1.7,3.9-2.7
					c2.9-2.2,5.8-4.4,9-4.2c0.5,1.5,1.6,2.9,2.9,3.7c1.4,0.8,2.6,0.5,3-0.7c2.9,2.5,4.9,5.6,6.8,8.7c1.6,2.5,3.1,4.9,4.9,6.6
					c0.4,1.8,1.6,3.7,3.1,4.6c1.1,0.6,2,0.6,2.6,0c0,0,0,0-0.1,0.1l3.1-2c0.6-0.3,1-1.1,1-2.1c0-0.6-0.1-1.2-0.3-1.8
					c0.8-0.6,1.5-1.5,2.3-2.4c0.8-0.9,1.6-1.8,2.5-2.7c1.8-0.6,3.9-0.7,6.5,0.2c0.5,1.7,1.6,3.3,3,4.1c1,0.6,1.9,0.6,2.5,0
					c0,0-0.1,0.1-0.1,0.1l3.1-2c0.7-0.3,1.2-1,1.2-2.2C274.1,268.2,272.7,265.7,270.9,264.6z"/>
				<path class="st2" d="M248.4,281.8c-0.5,0-1.1-0.2-1.6-0.5c-1.5-0.9-2.9-2.8-3.3-4.7c-1.9-1.8-3.4-4.1-4.9-6.6
					c-1.8-2.9-3.7-5.8-6.4-8.3c-0.7,1-2,1.2-3.3,0.4c-1.2-0.7-2.3-2.1-2.9-3.6c0,0,0,0-0.1,0c-2.9,0-5.7,2.1-8.4,4.2
					c-1.2,0.9-2.5,1.9-3.8,2.6c-0.2,0.7-0.7,1.2-1.3,1.4l-2.8,1.9l0,0c-0.7,0.6-1.8,0.6-2.9-0.1c-1.5-0.9-2.8-2.8-3.3-4.7
					c-2.4-2.3-4.2-5.5-5.8-8.5c-2.4-4.4-4.7-8.6-9.1-11.1c-1.5-0.9-3.1-1-4.8-0.5c-2.4,2.2-4.3,5.4-5.6,7.7c0.8,1.2,1.2,2.6,1.2,3.8
					c0,1.5-0.7,2.5-1.8,2.7l-2.4,1.7l0,0c-0.7,0.6-1.8,0.7-3,0c-1.9-1.1-3.4-3.8-3.4-5.9c0-0.8,0.2-1.5,0.6-1.9c0.7-0.8,1.8-1,3-0.4
					c1.8-3.3,5.2-8.7,9.6-10.5c3.4-3,7-3.6,10.4-1.7c5.4,3.1,8.3,8.3,10.8,12.8c1.3,2.3,2.6,4.7,4.2,6.5c0.7-1,2-1.1,3.3-0.4
					c1,0.6,2,1.7,2.7,3c0.5-0.1,1-0.3,1.5-0.6c0.3-0.2,0.6-0.5,1-0.7c1.5-1.2,3.1-2.3,4.8-3.2c2.2-1.6,4.6-3.1,7.3-3.4l2.5-1.7l0,0
					c0.7-0.3,1.6-0.2,2.5,0.3c1.5,0.9,2.9,2.8,3.3,4.8c3.6,3,6,6.8,7.9,9.9c1.1,1.7,2.2,3.5,3.4,4.9c0.7-0.9,2-1.1,3.3-0.4
					c0.2,0.1,0.4,0.3,0.7,0.5c1.4-1.6,3.1-3.2,5.3-4.1c2.2-1.9,4.3-2.8,6.8-2.8c1.1,0,2.2,0.2,3.4,0.5l2.1-1.2l0,0
					c0.7-0.2,1.5-0.1,2.3,0.4c1.9,1.1,3.4,3.8,3.4,5.9c0,1.3-0.5,2.2-1.4,2.5l-3,2l0,0c-0.7,0.5-1.8,0.5-2.8-0.1
					c-1.4-0.8-2.6-2.4-3.1-4.1c-2.2-0.8-4.2-0.8-6-0.2c-0.9,0.8-1.7,1.8-2.4,2.6c-0.7,0.8-1.4,1.6-2.1,2.3c0.2,0.6,0.3,1.2,0.3,1.7
					c0,1.1-0.4,2-1.1,2.4l-3.1,2l0,0C249.4,281.6,248.9,281.8,248.4,281.8z M231.9,260.4l0.4,0.3c3,2.6,5.1,5.9,6.9,8.8
					c1.6,2.5,3,4.8,4.9,6.5l0.1,0.1l0,0.1c0.4,1.8,1.6,3.6,2.9,4.4c0.9,0.5,1.7,0.5,2.1,0l0,0l0,0l3.1-2c0.5-0.3,0.8-0.9,0.8-1.8
					c0-0.5-0.1-1.1-0.3-1.7l-0.1-0.2l0.2-0.2c0.7-0.6,1.5-1.5,2.2-2.4c0.7-0.8,1.6-1.8,2.5-2.7l0.1-0.1c2-0.8,4.3-0.7,6.8,0.2
					l0.2,0.1l0.1,0.2c0.5,1.6,1.6,3.2,2.8,3.9c0.8,0.5,1.6,0.5,2.1,0.1l0,0l3-2c0.6-0.3,1-0.9,1-1.9c0-1.9-1.4-4.3-3-5.3
					c-0.7-0.4-1.4-0.5-1.9-0.2l-0.3,0.2l0,0l-1.7,0.9l-0.2,0c-3.8-1.1-6.8-0.5-9.7,2.1l-0.1,0.1c-2.2,0.9-3.8,2.5-5.3,4.2l-0.3,0.3
					l-0.3-0.3c-0.3-0.3-0.5-0.5-0.8-0.6c-1.1-0.6-2.1-0.5-2.5,0.5l-0.2,0.5l-0.4-0.4c-1.4-1.4-2.6-3.4-3.9-5.4
					c-1.9-3.1-4.3-6.9-7.9-9.8l-0.1-0.1l0-0.1c-0.3-1.8-1.6-3.6-3-4.4c-0.8-0.4-1.5-0.5-2-0.2l-0.3,0.2l0,0l-2,1.4l-0.1,0
					c-2.3,0.2-4.5,1.5-7,3.3c-1.7,0.9-3.2,2-4.7,3.2c-0.3,0.3-0.7,0.5-1,0.8c-0.8,0.4-1.4,0.6-2,0.8l-0.3,0.1l-0.1-0.3
					c-0.6-1.3-1.5-2.4-2.5-2.9c-1.1-0.6-2.1-0.5-2.5,0.5l-0.2,0.6l-0.4-0.4c-1.8-1.9-3.2-4.5-4.6-7c-2.5-4.5-5.3-9.6-10.5-12.6
					c-3.1-1.8-6.3-1.2-9.4,1.6l0,0.1c-4.4,1.6-7.9,7.3-9.6,10.6l-0.2,0.4l-0.4-0.3c-1-0.6-1.8-0.5-2.3,0c-0.3,0.3-0.4,0.8-0.4,1.5
					c0,1.9,1.4,4.3,3,5.3c0.9,0.5,1.7,0.5,2.2,0l0,0l2.7-1.8c0.8-0.1,1.2-0.8,1.2-1.9c0-1.1-0.5-2.4-1.2-3.5l-0.1-0.2l0.1-0.2
					c1.3-2.4,3.4-5.8,5.9-8.2l0.1-0.1c1.9-0.7,3.7-0.5,5.5,0.5c4.6,2.6,6.9,6.9,9.4,11.4c1.7,3,3.4,6.1,5.8,8.4l0.1,0.1l0,0.1
					c0.4,1.8,1.6,3.5,2.9,4.3c0.9,0.5,1.6,0.5,2.1,0v0l0,0l2.9-1.9c0.6-0.2,0.8-0.7,0.9-1l0-0.1l0.1-0.1c1.3-0.7,2.6-1.7,3.8-2.6
					c2.9-2.2,5.9-4.5,9.2-4.3l0.3,0l0.1,0.2c0.5,1.5,1.6,2.8,2.7,3.5c1.1,0.6,2.1,0.5,2.5-0.5L231.9,260.4z"/>
			</g>
			<g>
				<g>
					<path class="st8" d="M172.7,256.7L171,255c0.3-0.8,7.9-19,17.7-13.3c5.3,3.1,8.1,8.2,10.7,12.7c2.1,3.8,4,7.1,7,8.9
						c3,1.7,6.2-0.6,9.6-3.2c4.1-3.1,8.2-6.2,13.4-3.2c5.4,3.1,8.4,8,10.9,12c1.9,3,3.5,5.5,5.6,6.8c1.6,0.9,3.1-0.8,4.8-2.8
						c3.1-3.7,7.4-8.8,17-3.3v2.2c-8.5-4.9-12.3-0.4-15.4,3.2c-2,2.4-3.8,4.4-6.4,2.9c-2.8-1.6-4.8-4.7-6.8-8c-2.5-4-5-8.1-9.7-10.7
						c-4.3-2.5-8.2,0.5-12,3.3c-3.7,2.7-7.1,5.3-11,3.1c-3.8-2.2-6.1-6.3-8.3-10.4c-2.5-4.4-4.8-8.6-9.3-11.2
						C180.1,238.9,172.8,256.6,172.7,256.7z"/>
					<path class="st2" d="M247.5,278.5c-0.6,0-1.2-0.2-1.9-0.6c-2.9-1.7-4.8-4.8-6.9-8.1c-2.5-3.9-5-8-9.6-10.7
						c-1-0.6-2.1-0.9-3.2-0.9c-2.9,0-5.8,2.1-8.5,4.2c-2.7,2.1-5.3,4-8.1,4c-1.1,0-2.1-0.3-3.1-0.9c-3.9-2.2-6.2-6.4-8.4-10.4
						c-2.4-4.4-4.8-8.6-9.2-11.1c-0.9-0.5-1.9-0.8-2.9-0.8c-6.9,0-12.6,13.5-12.6,13.6l-0.1,0.4l-2.1-2.2l0.1-0.2
						c0.2-0.6,6.1-14.6,14.1-14.6c1.3,0,2.6,0.4,3.9,1.1c5.4,3.1,8.2,8.2,10.7,12.8c2.1,3.8,3.9,7.1,6.9,8.8
						c0.7,0.4,1.3,0.6,2.1,0.6c2.3,0,4.7-1.8,7.2-3.7c2.9-2.2,6-4.5,9.4-4.5c1.5,0,2.9,0.4,4.3,1.2c5.4,3.1,8.5,8.1,11,12.1
						c1.8,2.9,3.4,5.5,5.5,6.7c0.3,0.2,0.5,0.2,0.8,0.2c1.2,0,2.4-1.5,3.7-3c2.2-2.6,4.9-5.8,9.5-5.8c2.3,0,4.9,0.8,7.7,2.5l0.1,0.1
						v2.7l-0.4-0.2c-2.4-1.4-4.7-2.1-6.6-2.1c-4,0-6.3,2.8-8.4,5.3C250.8,276.8,249.3,278.5,247.5,278.5z M225.9,257.8
						c1.2,0,2.3,0.3,3.4,1c4.7,2.7,7.3,6.8,9.8,10.8c2,3.3,4,6.3,6.7,7.9c0.6,0.3,1.1,0.5,1.6,0.5c1.6,0,2.9-1.5,4.4-3.3
						c2.1-2.4,4.6-5.5,8.8-5.5c2,0,4.1,0.6,6.5,2v-1.6c-2.7-1.5-5.2-2.3-7.4-2.3c-4.4,0-7,3.1-9.2,5.6c-1.4,1.7-2.7,3.2-4.1,3.2
						c-0.4,0-0.7-0.1-1.1-0.3c-2.2-1.3-3.8-3.8-5.7-6.8c-2.5-3.9-5.5-8.9-10.8-11.9c-1.3-0.8-2.7-1.2-4-1.2c-3.3,0-6.2,2.2-9.1,4.4
						c-2.6,2-5.1,3.8-7.5,3.8c-0.8,0-1.6-0.2-2.3-0.6c-3.1-1.8-4.9-5.1-7.1-9c-2.5-4.5-5.3-9.6-10.6-12.6c-1.2-0.7-2.4-1-3.7-1
						c-7.4,0-12.9,12.5-13.6,14.1l1.4,1.4c1-2.2,6.3-13.6,13-13.6c1.1,0,2.1,0.3,3.2,0.9c4.6,2.6,6.9,6.9,9.4,11.3
						c2.2,4,4.5,8.1,8.2,10.3c0.9,0.5,1.9,0.8,2.9,0.8c2.6,0,5.1-1.9,7.8-3.9C219.9,260,222.8,257.8,225.9,257.8z"/>
				</g>
			</g>
			<g>
				<path class="st9" d="M183.5,243.3c-4,1.5-7.4,6.8-9.2,10.3c0.8,1.1,1.3,2.5,1.3,3.7c0,0.9-0.3,1.5-0.7,1.9l0,0l2.5-1.8
					c0.9-0.1,1.6-0.9,1.6-2.3c0-1.2-0.5-2.6-1.3-3.7C178.9,249,180.9,245.6,183.5,243.3z"/>
			</g>
			<g>
				<path class="st9" d="M252.1,274.8c-0.8,0.9-1.5,1.8-2.3,2.4c0.2,0.6,0.3,1.2,0.3,1.8c0,0.9-0.3,1.5-0.7,1.9l3.1-2
					c0.6-0.3,1-1.1,1-2.1c0-0.6-0.1-1.2-0.3-1.8c0.8-0.6,1.5-1.5,2.3-2.4c0.8-0.9,1.6-1.8,2.5-2.7
					C255.5,270.9,253.7,273,252.1,274.8z"/>
			</g>
			<g>
				<path class="st17" d="M210.1,266.2C210.1,266.2,210.1,266.2,210.1,266.2c0,0.9-0.3,1.6-0.8,2l0,0l2.8-1.9c0.6-0.2,1-0.6,1.2-1.3
					C212.3,265.6,211.2,266,210.1,266.2z"/>
			</g>
			<g>
				<path class="st1" d="M175.5,257.3c0,2.1-1.5,2.9-3.2,1.9c-1.8-1-3.2-3.5-3.2-5.6c0-2.1,1.4-2.9,3.2-1.9
					C174.1,252.8,175.5,255.3,175.5,257.3z"/>
				<path class="st2" d="M173.7,259.9c-0.5,0-1-0.2-1.6-0.5c-1.9-1.1-3.4-3.7-3.4-5.8c0-0.8,0.2-1.4,0.6-1.9
					c0.7-0.8,1.8-0.9,3.1-0.2c1.9,1.1,3.4,3.7,3.4,5.8C175.8,258.9,175,259.9,173.7,259.9z M170.8,251.5c-0.4,0-0.8,0.2-1.1,0.5
					c-0.3,0.4-0.4,0.9-0.4,1.5c0,2,1.4,4.4,3.1,5.4c0.5,0.3,0.9,0.4,1.3,0.4c0.9,0,1.5-0.8,1.5-2.1c0-2-1.4-4.4-3.1-5.4
					C171.7,251.7,171.2,251.5,170.8,251.5z"/>
			</g>
			<g>
				<path class="st1" d="M270.8,272.4c0,2.1-1.5,2.9-3.2,1.9c-1.8-1-3.2-3.5-3.2-5.6c0-2.1,1.4-2.9,3.2-1.9
					C269.3,267.8,270.8,270.4,270.8,272.4z"/>
				<path class="st2" d="M269,275c-0.5,0-1-0.2-1.6-0.5c-1.9-1.1-3.4-3.7-3.4-5.8c0-1.6,0.8-2.6,2-2.6c0.5,0,1,0.2,1.6,0.5
					c1.9,1.1,3.4,3.7,3.4,5.8C271,274,270.2,275,269,275z M266.1,266.6c-0.9,0-1.5,0.8-1.5,2.1c0,2,1.4,4.4,3.1,5.4
					c0.5,0.3,0.9,0.4,1.3,0.4c0.9,0,1.5-0.8,1.5-2.1c0-2-1.4-4.4-3.1-5.4C266.9,266.8,266.5,266.6,266.1,266.6z"/>
			</g>
			<g>
				<path class="st1" d="M250.2,279.1c0,2.1-1.5,2.9-3.2,1.9c-1.8-1-3.2-3.5-3.2-5.6c0-2.1,1.4-2.9,3.2-1.9
					C248.8,274.5,250.2,277,250.2,279.1z"/>
				<path class="st2" d="M248.4,281.6c-0.5,0-1-0.2-1.6-0.5c-1.9-1.1-3.4-3.7-3.4-5.8c0-1.6,0.8-2.6,2-2.6c0.5,0,1,0.2,1.6,0.5
					c1.9,1.1,3.4,3.7,3.4,5.8C250.5,280.6,249.7,281.6,248.4,281.6z M245.5,273.3c-0.9,0-1.5,0.8-1.5,2.1c0,2,1.4,4.4,3.1,5.4
					c0.5,0.3,0.9,0.4,1.3,0.4c0.9,0,1.5-0.8,1.5-2.1c0-2-1.4-4.4-3.1-5.4C246.4,273.4,245.9,273.3,245.5,273.3z"/>
			</g>
			<g>
				<path class="st1" d="M210.1,266.2c0,2.1-1.5,2.9-3.2,1.9c-1.8-1-3.2-3.5-3.2-5.6c0-2.1,1.4-2.9,3.2-1.9
					C208.7,261.6,210.1,264.1,210.1,266.2z"/>
				<path class="st2" d="M208.3,268.8c-0.5,0-1-0.2-1.6-0.5c-1.9-1.1-3.4-3.7-3.4-5.8c0-1.6,0.8-2.6,2-2.6c0.5,0,1,0.2,1.6,0.5
					c1.9,1.1,3.4,3.7,3.4,5.8C210.4,267.8,209.6,268.8,208.3,268.8z M205.4,260.4c-0.9,0-1.5,0.8-1.5,2.1c0,2,1.4,4.4,3.1,5.4
					c0.5,0.3,0.9,0.4,1.3,0.4c0.9,0,1.5-0.8,1.5-2.1c0-2-1.4-4.4-3.1-5.4C206.3,260.6,205.8,260.4,205.4,260.4z"/>
			</g>
			<g>
				<path class="st1" d="M232.3,259.9c0,2.1-1.5,2.9-3.2,1.9c-1.8-1-3.2-3.5-3.2-5.6c0-2.1,1.4-2.9,3.2-1.9
					C230.9,255.3,232.3,257.8,232.3,259.9z"/>
				<path class="st2" d="M230.5,262.4c-0.5,0-1-0.2-1.6-0.5c-1.9-1.1-3.4-3.7-3.4-5.8c0-1.6,0.8-2.6,2-2.6c0.5,0,1,0.2,1.6,0.5
					c1.9,1.1,3.4,3.7,3.4,5.8C232.6,261.4,231.8,262.4,230.5,262.4z M227.6,254.1c-0.9,0-1.5,0.8-1.5,2.1c0,2,1.4,4.4,3.1,5.4
					c0.5,0.3,0.9,0.4,1.3,0.4c0.9,0,1.5-0.8,1.5-2.1c0-2-1.4-4.4-3.1-5.4C228.5,254.2,228,254.1,227.6,254.1z"/>
			</g>
		</g>
		<g>
			<path class="st2" d="M376.8,355.7C376.8,355.7,376.8,355.7,376.8,355.7c-1.7,0-3.6-0.6-5.5-1.7l-42.1-24.3
				c-6.6-3.8-12-13.1-12-20.8v-48.6c0-5.4,2.7-8.8,7-8.8c1.7,0,3.6,0.6,5.5,1.7l42.1,24.3c6.6,3.8,12,13.1,12,20.8v48.6
				c0,2.7-0.7,4.9-1.9,6.5C380.7,354.9,378.9,355.7,376.8,355.7z M324.3,252.5c-3.7,0-6.1,3-6.1,7.9V309c0,7.3,5.2,16.3,11.5,20
				l42.1,24.3c3.8,2.2,7.3,2,9.3-0.5c1.1-1.4,1.7-3.4,1.7-5.9v-48.6c0-7.3-5.2-16.3-11.5-20l-42.1-24.3
				C327.6,253.1,325.9,252.5,324.3,252.5z"/>
		</g>
		<g>
			<path class="st2" d="M406,171.7C406,171.7,406,171.7,406,171.7c-1.2,0-2.4-0.4-3.7-1.1l-28-16.2c-4.4-2.6-8-8.8-8-13.9v-32.3
				c0-3.6,1.9-6,4.8-6c1.2,0,2.4,0.4,3.7,1.1l28,16.2c4.4,2.6,8,8.8,8,13.9v32.3c0,1.8-0.4,3.3-1.3,4.4
				C408.6,171.2,407.4,171.7,406,171.7z M371.1,103.1c-2.4,0-3.9,2-3.9,5.2v32.3c0,4.8,3.4,10.8,7.6,13.2l28,16.2
				c2.5,1.4,4.8,1.3,6.1-0.3c0.7-0.9,1.1-2.2,1.1-3.9v-32.3c0-4.8-3.4-10.8-7.6-13.2l-28-16.2C373.2,103.4,372.1,103.1,371.1,103.1z
				"/>
		</g>
		<g>
			<path class="st2" d="M130.9,197.5L130.9,197.5c-1.7,0-3.4-0.5-5.3-1.6l-40.8-23.6c-6.4-3.7-11.6-12.7-11.6-20.1V105
				c0-5.2,2.7-8.6,6.8-8.6c1.7,0,3.4,0.5,5.3,1.6l40.8,23.6c6.4,3.7,11.6,12.7,11.6,20.1v47.1c0,2.6-0.6,4.8-1.9,6.3
				C134.6,196.7,132.9,197.5,130.9,197.5z M79.9,97.4c-3.6,0-5.9,2.9-5.9,7.7v47.1c0,7.1,5,15.8,11.2,19.4l40.8,23.6
				c3.7,2.1,7.1,1.9,9.1-0.5c1.1-1.4,1.7-3.3,1.7-5.7v-47.1c0-7.1-5-15.8-11.2-19.4L84.7,98.9C83,97.9,81.4,97.4,79.9,97.4z"/>
		</g>
		<path class="st0" d="M139.7,60.7c0,4.8-3.4,6.8-7.6,4.4c-4.2-2.4-7.6-8.3-7.6-13.2c0-4.8,3.4-6.8,7.6-4.4
			C136.3,49.9,139.7,55.8,139.7,60.7z"/>
		<path class="st0" d="M330.8,370.1c0,4.8-3.4,6.8-7.6,4.4c-4.2-2.4-7.6-8.3-7.6-13.2c0-4.8,3.4-6.8,7.6-4.4
			C327.4,359.4,330.8,365.3,330.8,370.1z"/>
		<path class="st0" d="M361.7,388.4c0,2.8-2,4-4.4,2.6c-2.4-1.4-4.4-4.8-4.4-7.7c0-2.8,2-4,4.4-2.6
			C359.7,382.2,361.7,385.6,361.7,388.4z"/>
		<path class="st0" d="M109.3,58.8c0,2.8-2,4-4.4,2.6c-2.4-1.4-4.4-4.8-4.4-7.7c0-2.8,2-4,4.4-2.6C107.3,52.6,109.3,56,109.3,58.8z"
			/>
		<path class="st0" d="M333.2,393c0,1.5-1.1,2.1-2.4,1.4c-1.3-0.8-2.4-2.6-2.4-4.1c0-1.5,1.1-2.1,2.4-1.4
			C332.1,389.6,333.2,391.5,333.2,393z"/>
		<path class="st0" d="M134.5,24c0,1.5-1.1,2.1-2.4,1.4c-1.3-0.8-2.4-2.6-2.4-4.1c0-1.5,1.1-2.1,2.4-1.4
			C133.5,20.6,134.5,22.5,134.5,24z"/>
		<g>
			<g>
				<g>
					<path class="st18" d="M25.8,235.1v7c0.2,2.8,2.1,5.6,5.8,7.7c7.7,4.5,20.3,4.5,28,0c3.9-2.2,5.8-5.2,5.8-8.1v-6.7"/>
				</g>
				<g>
					<path class="st19" d="M65.2,237.1c-0.6,2.4-2.5,4.6-5.6,6.4c-7.7,4.5-20.3,4.5-28,0s-7.7-11.7,0-16.2"/>
					<path class="st20" d="M45.6,243.6c-3.6,0-7.2-0.8-9.9-2.4c-2.7-1.5-4-3.5-4.1-5.6"/>
				</g>
			</g>
			<g>
				<g>
					<path class="st18" d="M31.8,220.9v7c0.2,2.8,2.1,5.6,5.8,7.7c7.7,4.5,20.3,4.5,28,0c3.9-2.2,5.8-5.2,5.8-8.1v-6.7"/>
				</g>
				<g>
					<path class="st19" d="M65.7,213.1c7.7,4.5,7.7,11.7,0,16.2s-20.3,4.5-28,0c-3.4-2-5.3-4.5-5.7-7.1"/>
					<path class="st20" d="M51.7,229.3c-3.6,0-7.2-0.8-9.9-2.4c-1.7-1-2.9-2.2-3.5-3.4"/>
				</g>
			</g>
			<g>
				<g>
					<path class="st18" d="M25.7,206.3v7c0.2,2.8,2.1,5.6,5.8,7.7c7.7,4.5,20.3,4.5,28,0c3.9-2.2,5.8-5.2,5.8-8.1v-6.7"/>
				</g>
				<g>
					<ellipse class="st19" cx="45.5" cy="206.6" rx="19.8" ry="11.4"/>
					<path class="st20" d="M55.4,200.9c1.4,0.8,2.5,1.8,3.2,2.8"/>
					<path class="st20" d="M41.6,198.8c2.2-0.4,4.5-0.4,6.7-0.2"/>
					<path class="st20" d="M45.5,214.7c-3.6,0-7.2-0.8-9.9-2.4c-2.7-1.5-4-3.5-4.1-5.6"/>
				</g>
			</g>
		</g>
		<g>
			<g>
				<path class="st21" d="M404.8,202.3v10.2c0.2,4.1,3,8.1,8.4,11.2c11.2,6.5,29.4,6.5,40.7,0c5.6-3.2,8.4-7.5,8.4-11.7v-9.7"/>
			</g>
			<g>
				<ellipse class="st22" cx="433.6" cy="202.8" rx="28.8" ry="16.6"/>
				<path class="st23" d="M447.9,194.5c2.1,1.2,3.6,2.6,4.6,4.1"/>
				<path class="st23" d="M427.9,191.5c3.2-0.5,6.5-0.6,9.8-0.2"/>
				<path class="st23" d="M433.6,214.6c-5.2,0-10.4-1.1-14.4-3.4c-3.9-2.2-5.8-5.1-6-8.1"/>
			</g>
			<line class="st24" x1="426.1" y1="219" x2="426.1" y2="228"/>
			<line class="st24" x1="420.5" y1="217.6" x2="420.5" y2="226.6"/>
			<line class="st24" x1="416.5" y1="216.3" x2="416.5" y2="225.3"/>
			<line class="st24" x1="412.3" y1="214" x2="412.3" y2="223.2"/>
			<line class="st24" x1="408.8" y1="211.3" x2="408.8" y2="220.4"/>
			<line class="st24" x1="439" y1="219.1" x2="439" y2="228.3"/>
			<line class="st24" x1="445.9" y1="217.8" x2="445.9" y2="226.8"/>
			<line class="st24" x1="451.4" y1="216" x2="451.4" y2="224.7"/>
			<line class="st24" x1="455.5" y1="214.1" x2="455.5" y2="222.9"/>
			<line class="st24" x1="459.3" y1="210.2" x2="459.3" y2="218.9"/>
		</g>
		<g>
			<polygon class="st1" points="386.8,134.6 379.6,130.4 386.8,120.2 394.1,138.8 			"/>
			<polygon class="st25" points="386.8,134.6 379.6,130.4 386.8,151.4 394.1,138.8 			"/>
		</g>
		<path class="st1" d="M117.2,139.6l-15.5-8.9l-2.2,3.1l15.5,8.9l2.2,5.7L85,129.8l-2.2,3.1l36.6,21.1l1.1,2.8l-5.5,7.9l-15.5-8.9
			l2.2,5.7l15.5,8.9l7.7-11L117.2,139.6z M114.9,156l-24.5-14.2l2.2,5.7l20.1,11.6L114.9,156z"/>
		<g>
			<path class="st1" d="M348.2,281.2c-3.4-2-6.2-0.4-6.2,3.6s2.8,8.8,6.2,10.7s6.2,0.4,6.2-3.6S351.7,283.2,348.2,281.2z
				 M348.2,292.4c-1.9-1.1-3.5-3.8-3.5-6.1c0-2.2,1.6-3.1,3.5-2s3.5,3.8,3.5,6.1C351.8,292.6,350.2,293.6,348.2,292.4z"/>
			<g>
				<path class="st1" d="M333.5,300.5c-3.4-2-6.2-0.4-6.2,3.6c0,4,2.8,8.8,6.2,10.7c3.4,2,6.2,0.4,6.2-3.6
					C339.7,307.3,336.9,302.5,333.5,300.5z M333.5,311.7c-1.9-1.1-3.5-3.8-3.5-6.1c0-2.2,1.6-3.1,3.5-2c1.9,1.1,3.5,3.8,3.5,6.1
					C337,311.9,335.4,312.8,333.5,311.7z"/>
				<path class="st1" d="M363,317.5c-3.4-2-6.2-0.4-6.2,3.6s2.8,8.8,6.2,10.7c3.4,2,6.2,0.4,6.2-3.6S366.4,319.5,363,317.5z
					 M363,328.8c-1.9-1.1-3.5-3.8-3.5-6.1c0-2.2,1.6-3.1,3.5-2c1.9,1.1,3.5,3.8,3.5,6.1C366.5,329,364.9,329.9,363,328.8z"/>
			</g>
			<polygon class="st1" points="358.2,323.6 337.8,311.8 337.8,308.9 358.2,320.7 			"/>
			<polygon class="st1" points="346.9,292.8 336.9,305.4 334.8,302.7 344.9,290 			"/>
			<polygon class="st1" points="349.5,294.3 359.6,318.5 361.7,318.2 351.6,293.9 			"/>
		</g>
	</g>
</g>
</svg>
