<?xml version="1.0" encoding="utf-8"?>
<!-- Generator: Adobe Illustrator 23.1.0, SVG Export Plug-In . SVG Version: 6.00 Build 0)  -->
<svg version="1.1" xmlns="http://www.w3.org/2000/svg" xmlns:xlink="http://www.w3.org/1999/xlink" x="0px" y="0px"
	 viewBox="0 0 488 400" style="enable-background:new 0 0 488 400;" xml:space="preserve">
<style type="text/css">
	.st0{fill:#D6DFEB;}
	.st1{fill:#FFFFFF;}
	.st2{fill:#171F2E;}
	.st3{fill:#8B90FC;}
	.st4{fill:#4649A6;}
	.st5{fill:#6B70FC;}
	.st6{opacity:0.5;fill:#6B70FC;}
	.st7{opacity:0.2;fill:#6B70FC;}
	.st8{fill:#FF5A3C;}
	.st9{fill:#B5402B;}
	.st10{opacity:0.4;}
	.st11{fill:none;stroke:#171F2E;stroke-width:1.0432;stroke-linecap:round;stroke-linejoin:round;stroke-miterlimit:10;}
	.st12{fill:none;stroke:#6B70FC;stroke-width:2.4074;stroke-linecap:round;stroke-linejoin:bevel;stroke-miterlimit:10;}
	.st13{opacity:0.1;fill:#6B70FC;}
	.st14{opacity:0.4;fill:#6B70FC;}
	.st15{opacity:0.6;fill:#6B70FC;}
	.st16{opacity:0.8;fill:#6B70FC;}
	.st17{fill:#B42E6A;}
	.st18{fill:#D6DFEB;stroke:#181E30;stroke-width:1.4745;stroke-miterlimit:10;}
	.st19{fill:#FFFFFF;stroke:#181E30;stroke-width:1.4745;stroke-miterlimit:10;}
	.st20{fill:none;stroke:#181E30;stroke-width:1.1059;stroke-linecap:round;stroke-linejoin:round;stroke-miterlimit:10;}
	.st21{fill:#D6DFEB;stroke:#181E30;stroke-width:1.4819;stroke-miterlimit:10;}
	.st22{fill:#FFFFFF;stroke:#181E30;stroke-width:1.4819;stroke-miterlimit:10;}
	.st23{fill:none;stroke:#181E30;stroke-width:1.1114;stroke-linecap:round;stroke-linejoin:round;stroke-miterlimit:10;}
	.st24{fill:none;stroke:#181E30;stroke-width:1.4819;stroke-miterlimit:10;}
	.st25{opacity:0.6;fill:#FFFFFF;}
	.st26{opacity:0.7;fill:#CBD5DF;}
	.st27{fill:#CF4931;}
	.st28{opacity:0.8;}
	.st29{fill:#4E52B8;}
	.st30{fill:#D64C32;}
</style>
<g id="Layer_2">
</g>
<g id="Layer_1">
	<g>
		<path class="st1" d="M195.8,79.8L108,29.1c-0.8-0.4-1.4-0.4-1.9-0.1l-2.6,1.7c-0.5,0.3-0.8,0.8-0.8,1.6l0,139
			c0,1.6,1.1,3.6,2.5,4.4l87.8,50.7c0.7,0.4,1.4,0.4,1.8,0.1c0,0,0,0,0,0l0,0l2.8-1.8c0.4-0.3,0.7-0.8,0.7-1.6l0-139
			C198.3,82.6,197.2,80.6,195.8,79.8z"/>
		<g>
			<path class="st2" d="M194.7,227.2L194.7,227.2c-0.6,0.1-1.2,0-1.9-0.4l-87.8-50.7c-1.5-0.9-2.7-3-2.7-4.8l0-139c0-1,0.4-1.7,1-2
				l2.6-1.7c0.6-0.4,1.5-0.4,2.4,0.1L196,79.4c1.5,0.9,2.7,3,2.7,4.8l0,139c0,0.9-0.3,1.6-0.9,1.9L194.7,227.2z M106.9,29.2
				c-0.2,0-0.4,0.1-0.5,0.2l-2.7,1.7c-0.4,0.2-0.5,0.6-0.5,1.3l0,139c0,1.4,1.1,3.3,2.3,4l87.8,50.7c0.5,0.3,1,0.4,1.4,0.1l0,0
				l2.8-1.8c0.3-0.2,0.4-0.6,0.4-1.2l0-139c0-1.4-1.1-3.3-2.3-4l-87.8-50.7C107.5,29.3,107.2,29.2,106.9,29.2z"/>
		</g>
		<g>
			<path class="st2" d="M194.2,227c-0.4,0-0.8-0.1-1.3-0.4L105.1,176c-1.5-0.9-2.7-2.9-2.7-4.7l0-139c0-1.3,0.7-2.1,1.7-2.1
				c0.4,0,0.8,0.1,1.3,0.4l87.8,50.7c1.5,0.9,2.7,2.9,2.7,4.7l0,139C195.9,226.2,195.2,227,194.2,227z M104.2,30.9
				c-0.7,0-1.1,0.5-1.1,1.5l0,139c0,1.5,1.1,3.3,2.4,4.1l87.8,50.7c0.3,0.2,0.7,0.3,1,0.3c0.7,0,1.1-0.5,1.1-1.5l0-139
				c0-1.5-1.1-3.3-2.4-4.1l-87.8-50.7C104.8,31,104.5,30.9,104.2,30.9z"/>
		</g>
		<g>
			<polygon class="st0" points="184,166.5 117.9,128.3 117.9,125.1 184,163.2 			"/>
		</g>
		<g>
			<polygon class="st0" points="184,176.3 117.9,138.2 117.9,134.9 184,173.1 			"/>
		</g>
		<g>
			<polygon class="st0" points="184,186.2 117.9,148 117.9,144.8 184,182.9 			"/>
		</g>
		<polygon class="st0" points="168.2,183.7 128.5,160.8 128.5,164.1 168.2,186.9 		"/>
		<path class="st1" d="M313.3,61.2L223.8,9.6c-2.6-1.5-5-1.7-6.8-0.9l-12,6.9v0c-1.9,1-3.2,3.3-3.2,6.6l0,263.9
			c0,6.4,4.6,14.3,10.1,17.6l89.4,51.6c3.1,1.8,5.9,1.8,7.7,0.3c0,0,0,0,0,0l11.2-6.4c1.9-1,3.1-3.3,3.1-6.6l0-263.9
			C323.4,72.3,318.8,64.4,313.3,61.2z"/>
		<path class="st0" d="M201.9,22.2l0,255.1l109.7,63.3l0-255.1c0-0.5,0-1.1-0.1-1.6L202,20.7C201.9,21.2,201.9,21.7,201.9,22.2z"/>
		<g>
			<path class="st2" d="M312,341.5l-110.6-63.8l0-255.4c0-0.5,0-1,0.1-1.6l0.1-0.7l0.6,0.3l109.7,63.3l0,0.2
				c0.1,0.6,0.1,1.2,0.1,1.7L312,341.5z M202.3,277.1l108.8,62.8l0-254.3c0-0.4,0-0.8-0.1-1.3L202.4,21.5c0,0.3,0,0.5,0,0.8
				L202.3,277.1z"/>
		</g>
		<g>
			<path class="st2" d="M305.9,357.4c-1.5,0-3.2-0.5-4.8-1.5l-89.4-51.6c-5.8-3.3-10.5-11.5-10.5-18.1l0-263.9
				c0-3.3,1.2-5.9,3.3-7.1l0.2-0.1l12-6.9c2.2-1,4.8-0.7,7.5,0.9l89.4,51.6c5.8,3.3,10.5,11.5,10.5,18.1l0,263.9
				c0,3.4-1.2,6-3.4,7.2l-11.2,6.4C308.5,356.9,307.3,357.4,305.9,357.4z M205.7,16L205.7,16l-0.4,0.2c-1.8,0.9-2.8,3.1-2.8,6
				l0,263.9c0,6.2,4.4,13.9,9.8,17l89.4,51.6c2.7,1.6,5.3,1.7,7,0.4l0.1,0.1l-0.1-0.1l0.3,0.4l-0.3-0.5l11.2-6.4
				c1.8-1,2.7-3.1,2.7-6l0-263.9c0-6.2-4.4-13.9-9.8-17l-89.4-51.6c-2.3-1.3-4.5-1.6-6.2-0.9L205.7,16z"/>
		</g>
		<g>
			<path class="st2" d="M305.9,357.1c-1.5,0-3.1-0.5-4.7-1.4l-89.4-51.6c-5.7-3.3-10.4-11.3-10.4-17.9l0-263.9
				c0-4.7,2.4-7.7,6.1-7.7c1.5,0,3.1,0.5,4.7,1.4l89.4,51.6C307.4,70.9,312,79,312,85.6l0,263.9C312,354.1,309.6,357.1,305.9,357.1z
				 M207.5,15.5c-3.2,0-5.2,2.6-5.2,6.8l0,263.9c0,6.3,4.4,14,9.9,17.2l89.4,51.6c1.5,0.9,2.9,1.3,4.3,1.3c3.2,0,5.2-2.6,5.2-6.8
				l0-263.9c0-6.3-4.4-14-9.9-17.2l-89.4-51.6C210.3,15.9,208.8,15.5,207.5,15.5z"/>
		</g>
		<path class="st1" d="M293.3,124.6l-87.8-50.7c-0.8-0.4-1.4-0.4-1.9-0.1l-2.6,1.7c-0.5,0.3-0.8,0.8-0.8,1.6l0,168.1
			c0,1.6,1.1,3.6,2.5,4.4l87.8,50.7c0.7,0.4,1.4,0.4,1.8,0.1c0,0,0,0,0,0l0,0l2.8-1.8c0.4-0.3,0.7-0.8,0.7-1.6l0-168.1
			C295.9,127.3,294.7,125.4,293.3,124.6z"/>
		<g>
			<path class="st2" d="M292.2,301.1L292.2,301.1c-0.6,0-1.2-0.1-1.8-0.4L202.6,250c-1.5-0.9-2.7-3-2.7-4.8l0-168.1c0-1,0.4-1.7,1-2
				l2.6-1.7c0.6-0.4,1.5-0.4,2.4,0.1l87.8,50.7c1.5,0.9,2.8,3,2.8,4.8l0,168.1c0,0.9-0.3,1.6-0.9,1.9L292.2,301.1z M204.5,74
				c-0.2,0-0.4,0.1-0.5,0.2l-2.7,1.7c-0.4,0.2-0.5,0.6-0.5,1.3l0,168.1c0,1.4,1.1,3.3,2.3,4l87.8,50.7c0.5,0.3,1,0.4,1.4,0.1l0,0
				l2.8-1.8c0.3-0.2,0.4-0.6,0.4-1.2l0-168.1c0-1.4-1.1-3.3-2.3-4l-87.8-50.7C205,74.1,204.7,74,204.5,74z"/>
		</g>
		<path class="st0" d="M300.6,119.7l-87.8-50.7c-1.4-0.8-2.5-0.1-2.5,1.5v5.6l83,47.9c1.4,0.8,2.5,2.8,2.5,4.4l0,162.5l4.7,2.7
			c1.4,0.8,2.5,0.1,2.5-1.5l0-168.1C303.1,122.5,302,120.5,300.6,119.7z"/>
		<g>
			<polygon class="st0" points="277.8,233.3 211.7,195.2 211.7,191.9 277.8,230.1 			"/>
			<polygon class="st0" points="277.8,223.1 211.7,185 211.7,181.8 277.8,219.9 			"/>
			<polygon class="st0" points="277.8,213 211.7,174.9 211.7,171.6 277.8,209.7 			"/>
			<polygon class="st0" points="277.8,202.1 211.7,163.9 211.7,160.7 277.8,198.8 			"/>
		</g>
		<g>
			<polygon class="st0" points="277.8,243.2 211.7,205 211.7,201.8 277.8,239.9 			"/>
		</g>
		<g>
			<polygon class="st0" points="277.8,253 211.7,214.9 211.7,211.6 277.8,249.8 			"/>
		</g>
		<g>
			<path class="st2" d="M291.7,301c-0.4,0-0.8-0.1-1.3-0.4l-87.8-50.7c-1.5-0.9-2.7-2.9-2.7-4.7l0-168.1c0-1.3,0.7-2.1,1.7-2.1
				c0.4,0,0.8,0.1,1.3,0.4l87.8,50.7c1.5,0.9,2.7,2.9,2.7,4.7l0,168.1C293.4,300.1,292.8,301,291.7,301z M201.7,75.7
				c-0.7,0-1.1,0.5-1.1,1.5l0,168.1c0,1.5,1.1,3.3,2.4,4.1l87.8,50.7c0.3,0.2,0.7,0.3,1,0.3c0.7,0,1.1-0.5,1.1-1.5l0-168.1
				c0-1.5-1.1-3.3-2.4-4.1L202.6,76C202.3,75.8,202,75.7,201.7,75.7z"/>
		</g>
		<path class="st1" d="M401.7,197.9l-87.8-50.7c-0.8-0.4-1.4-0.4-1.9-0.1l-2.6,1.7c-0.5,0.3-0.8,0.8-0.8,1.6l0,139
			c0,1.6,1.1,3.6,2.5,4.4l87.8,50.7c0.7,0.4,1.4,0.4,1.8,0.1c0,0,0,0,0,0l0,0l2.8-1.8c0.4-0.3,0.7-0.8,0.7-1.6l0-139
			C404.2,200.6,403,198.7,401.7,197.9z"/>
		<g>
			<path class="st2" d="M400.2,345.2L400.2,345.2c-0.6,0.1-1.2,0-1.9-0.4l-87.8-50.7c-1.5-0.9-2.7-3-2.7-4.8l0-139c0-1,0.4-1.7,1-2
				l2.6-1.7c0.6-0.4,1.5-0.4,2.4,0.1l87.8,50.7c1.5,0.9,2.7,3,2.7,4.8l0,139c0,0.9-0.3,1.6-0.8,1.9L400.2,345.2z M312.4,147.3
				c-0.2,0-0.4,0.1-0.5,0.2l-2.7,1.7c-0.4,0.2-0.5,0.6-0.5,1.3l0,139c0,1.4,1.1,3.3,2.3,4l87.8,50.7c0.5,0.3,1,0.4,1.4,0.1l0,0
				l2.8-1.8c0.3-0.2,0.4-0.6,0.4-1.2l0-139c0-1.4-1.1-3.3-2.3-4l-87.8-50.7C313,147.4,312.7,147.3,312.4,147.3z"/>
		</g>
		<g>
			<path class="st2" d="M399.6,345.1c-0.4,0-0.8-0.1-1.3-0.4l-87.8-50.7c-1.5-0.9-2.7-3-2.7-4.7l0-139c0-1.3,0.7-2.1,1.7-2.1
				c0.4,0,0.8,0.1,1.3,0.4l87.8,50.7c1.5,0.9,2.7,2.9,2.7,4.7l0,139C401.4,344.3,400.7,345.1,399.6,345.1z M309.6,149
				c-0.7,0-1.1,0.5-1.1,1.5l0,139c0,1.5,1.1,3.3,2.4,4.1l87.8,50.7c0.3,0.2,0.7,0.3,1,0.3c0.7,0,1.1-0.5,1.1-1.5l0-139
				c0-1.5-1.1-3.3-2.4-4.1l-87.8-50.7C310.2,149.1,309.9,149,309.6,149z"/>
		</g>
		<g>
			<polygon class="st0" points="389.4,284.5 323.4,246.4 323.4,243.1 389.4,281.3 			"/>
		</g>
		<g>
			<polygon class="st0" points="389.4,294.4 323.4,256.2 323.4,253 389.4,291.1 			"/>
		</g>
		<g>
			<polygon class="st0" points="389.4,304.2 323.4,266.1 323.4,262.9 389.4,301 			"/>
		</g>
		<polygon class="st0" points="373.6,301.8 334,278.9 334,282.1 373.6,305 		"/>
		<path class="st3" d="M302,72.8c0,15.5-10.9,21.7-24.2,14c-13.4-7.7-24.2-26.5-24.2-42c0-15.5,10.9-21.7,24.2-14
			C291.2,38.5,302,57.3,302,72.8z"/>
		<g>
			<path class="st2" d="M288.6,90.5c-3.5,0-7.2-1.1-11.1-3.4c-13.5-7.8-24.5-26.8-24.5-42.4C253.1,34,258.5,27,267,27
				c3.5,0,7.2,1.1,11.1,3.4c13.5,7.8,24.5,26.8,24.5,42.4C302.5,83.6,297,90.5,288.6,90.5z M267,27.9c-8,0-13,6.5-13,16.9
				c0,15.3,10.8,34,24,41.6c3.7,2.2,7.3,3.3,10.6,3.3c8,0,13-6.5,13-16.9c0-15.3-10.8-34-24-41.6C273.8,29,270.3,27.9,267,27.9z"/>
		</g>
		<g class="st28">
			<polygon class="st13" points="343.1,350.5 340,348.7 343.2,344.4 340,336.4 343.1,338.2 346.2,346.2 			"/>
			<polygon class="st7" points="355.2,357.5 352.2,355.8 355.4,351.5 352.2,343.5 355.2,345.2 358.4,353.2 			"/>
			<polygon class="st14" points="367.4,364.5 364.4,362.8 367.6,358.5 364.4,350.5 367.4,352.3 370.6,360.3 			"/>
			<polygon class="st15" points="379.6,371.6 376.6,369.8 379.8,365.6 376.6,357.6 379.6,359.3 382.8,367.3 			"/>
			<polygon class="st16" points="391.8,378.6 388.8,376.9 392,372.6 388.8,364.6 391.8,366.3 395,374.3 			"/>
			<polygon class="st5" points="404,385.7 401,383.9 404.2,379.6 401,371.6 404,373.4 407.2,381.4 			"/>
		</g>
		<g>
			<polygon class="st5" points="179.1,251.4 173.4,253 173.4,256.9 179.1,255.3 184.8,263.4 184.8,259.5 			"/>
			<polygon class="st16" points="179.1,267.9 173.4,269.5 173.4,273.4 179.1,271.8 184.8,279.9 184.8,276 			"/>
			<polygon class="st15" points="179.1,284.4 173.4,286 173.4,289.9 179.1,288.3 184.8,296.4 184.8,292.5 			"/>
			<polygon class="st14" points="179.1,300.9 173.4,302.5 173.4,306.4 179.1,304.8 184.8,312.9 184.8,309 			"/>
			<polygon class="st7" points="179.1,317.4 173.4,319 173.4,322.9 179.1,321.3 184.8,329.4 184.8,325.5 			"/>
			<polygon class="st13" points="179.1,332.6 173.4,334.1 173.4,338 179.1,336.5 184.8,344.6 184.8,340.7 			"/>
		</g>
		<path class="st0" d="M99,220.7c0,8.5-6,12-13.4,7.7c-7.4-4.3-13.4-14.6-13.4-23.2c0-8.5,6-12,13.4-7.7C93,201.8,99,212.2,99,220.7
			z"/>
		<path class="st0" d="M249.4,359.4c0,8-5.6,11.3-12.6,7.3c-7-4-12.6-13.8-12.6-21.8c0-8,5.6-11.3,12.6-7.3
			C243.7,341.6,249.4,351.3,249.4,359.4z"/>
		<path class="st0" d="M382.8,98.7c0,8-5.6,11.3-12.6,7.3c-7-4-12.6-13.8-12.6-21.8c0-8,5.6-11.3,12.6-7.3
			C377.1,80.9,382.8,90.7,382.8,98.7z"/>
		<path class="st0" d="M269.6,387.5c0,4.4-3.1,6.2-6.9,4c-3.8-2.2-6.9-7.6-6.9-12c0-4.4,3.1-6.2,6.9-4
			C266.5,377.7,269.6,383.1,269.6,387.5z"/>
		<path class="st0" d="M389.7,62.8c0,4.4-3.1,6.2-6.9,4c-3.8-2.2-6.9-7.6-6.9-12c0-4.4,3.1-6.2,6.9-4
			C386.6,53,389.7,58.4,389.7,62.8z"/>
		<g>
			<polygon class="st0" points="277.8,262.9 211.7,224.7 211.7,221.5 277.8,259.6 			"/>
		</g>
		<polygon class="st0" points="265.6,262.4 226,239.6 226,242.8 265.6,265.7 		"/>
		<path class="st1" d="M276.8,47.5c-6.7-3.9-12.2-2.3-12.2,3.5c0,3.4,1.8,7.4,4.6,11c-0.4,5.3-1,6.2-1,6.2s2.4,0.9,6.9-0.6
			c0.5,0.4,1.1,0.7,1.7,1.1c6.7,3.9,12.2,2.3,12.2-3.5C289,59.3,283.6,51.4,276.8,47.5z"/>
		<g>
			<path class="st8" d="M372.7,238.5L372.7,238.5c-2.7,2.3-7.1,1-10.3-2.6c-1.9-2.1-2.3-4.6-2.3-4.6c-3.6,0.4-6,3.5-6,8.7l24.6,14.2
				C378.7,249,376.3,243,372.7,238.5z"/>
			<path class="st8" d="M374.8,224.3c0,5.7-4,11.8-9,9c-5-2.9-9-13.6-9-19.3c0-5.7,4-8.1,9-5.2C370.8,211.6,374.8,218.6,374.8,224.3
				z"/>
		</g>
		<path class="st5" d="M132.8,19.9l3.9-2.4c1.2-0.7,2.8-0.7,4.6,0.4l23,13.3c3.5,2,6.4,7,6.4,11.1l0,26.5c0,2.1-0.8,3.5-2,4.2
			l-4.2,2.5v0c0,0,0,0,0,0c-1.2,0.7-2.8,0.7-4.6-0.4l-23-13.3c-3.5-2-6.4-7-6.4-11.1V24.3C130.4,22,131.3,20.5,132.8,19.9z"/>
		<path class="st29" d="M166.2,71.5l0-26.5c0-4.1-2.9-9.1-6.4-11.1l-23-13.3c-1.6-0.9-3-1.1-4.1-0.6l0,0l3.9-2.4
			c1.2-0.7,2.8-0.7,4.6,0.4l23,13.3c3.5,2,6.4,7,6.4,11.1l0,26.5c0,2.1-0.8,3.5-2,4.2l-4.2,2.5v0C165.6,74.9,166.2,73.5,166.2,71.5z
			"/>
		<g>
			<path class="st2" d="M159.6,75.5l-23-13.3c-3.6-2.1-6.6-7.2-6.6-11.4V24.3c0-3,1.5-5,3.9-5c1,0,2,0.3,3,0.9l23,13.3
				c3.6,2.1,6.6,7.2,6.6,11.4l0,26.5c0,3-1.5,5-3.9,5C161.7,76.4,160.7,76.1,159.6,75.5z M130.8,24.3v26.5c0,4,2.8,8.8,6.2,10.8
				l23,13.3c0.9,0.5,1.9,0.8,2.7,0.8c2,0,3.2-1.6,3.2-4.2l0-26.5c0-4-2.8-8.8-6.2-10.8l-23-13.3c-0.9-0.5-1.9-0.8-2.7-0.8
				C132,20.1,130.8,21.7,130.8,24.3z"/>
		</g>
		<g>
			<path class="st2" d="M159.6,75.6l-23-13.3c-3.7-2.1-6.7-7.3-6.7-11.6V24.3c0-2.4,1-4.2,2.6-4.8l3.9-2.4c1.4-0.9,3.2-0.7,5.2,0.4
				l23,13.3c3.7,2.1,6.7,7.3,6.7,11.6l0,26.5c0,2.2-0.8,3.9-2.2,4.6l-5,3v-0.1c-0.4,0.1-0.8,0.2-1.3,0.2l0,0
				C161.7,76.6,160.7,76.3,159.6,75.6z M163.9,75.3l0.3-0.1c0,0,0,0,0,0l0,0l4.3-2.6c1.1-0.6,1.7-1.9,1.7-3.8l0-26.5
				c0-3.9-2.8-8.7-6.2-10.7l-23-13.3c-1.6-0.9-3.1-1.1-4.1-0.4l-4,2.4c-1.3,0.5-2,1.9-2,3.9v26.5c0,3.9,2.8,8.7,6.2,10.7l23,13.3
				c0.9,0.5,1.8,0.8,2.6,0.8l0,0C163.1,75.6,163.5,75.5,163.9,75.3L163.9,75.3z"/>
		</g>
		<g>
			<polygon class="st0" points="220.7,122.2 231.4,137.7 243.1,126.9 258.4,148.4 258.4,165.2 211.9,138.3 211.9,125.4 			"/>
			<path class="st0" d="M224.5,118.5c0,3.4,2.4,7.5,5.3,9.2c2.9,1.7,5.3,0.3,5.3-3.1c0-3.4-2.4-7.5-5.3-9.2
				C226.9,113.7,224.5,115.1,224.5,118.5z"/>
			<g>
				<path class="st2" d="M211.8,138.4L211.8,138.4l-0.1-38.3l46.8,27l0.1,0l0,38.2L211.8,138.4z M212,100.6l0,37.6l46.3,26.7l0-37.6
					L212,100.6z"/>
			</g>
		</g>
		<g>
			<path class="st8" d="M333.5,126.6L333.5,126.6l5.1-3.1c1.5-1,3.7-0.9,6.1,0.5l30.1,17.4c4.6,2.7,8.4,9.2,8.4,14.6l0,34.8
				c0,2.7-1,4.6-2.6,5.5l-5.6,3.3v0c-1.5,1-3.7,0.9-6-0.5l-30.1-17.4c-4.6-2.7-8.4-9.2-8.4-14.6v-34.8
				C330.5,129.3,331.7,127.3,333.5,126.6z"/>
			<path class="st30" d="M377.4,194.2l0-34.8c0-5.3-3.8-11.9-8.4-14.6l-30.1-17.4c-2-1.2-3.9-1.4-5.4-0.8v0l5.1-3.1
				c1.5-1,3.7-0.9,6.1,0.5l30.1,17.4c4.6,2.7,8.4,9.2,8.4,14.6l0,34.8c0,2.7-1,4.6-2.6,5.5l-5.6,3.3v0
				C376.5,198.6,377.4,196.8,377.4,194.2z"/>
			<g>
				<path class="st2" d="M368.7,199.4l-30.1-17.4c-4.8-2.8-8.7-9.5-8.7-15v-34.8c0-3.1,1.2-5.4,3.3-6.1l5.1-3.1
					c1.7-1.1,4.1-0.9,6.6,0.5l30.1,17.4c4.8,2.8,8.7,9.5,8.7,15l0,34.8c0,2.8-1,5-2.8,5.9l-6.3,3.8v-0.1c-0.6,0.2-1.2,0.3-1.8,0.3
					l0,0C371.5,200.6,370.1,200.2,368.7,199.4z M375.5,198.6l4.8-2.9c1.5-0.8,2.3-2.6,2.3-5.1l0-34.8c0-5.2-3.7-11.5-8.2-14.1
					l-30.1-17.4c-2.1-1.2-4.1-1.4-5.6-0.5l-5.2,3.2c-1.7,0.7-2.7,2.6-2.7,5.2v34.8c0,5.2,3.7,11.5,8.2,14.1l30.1,17.4
					c2.1,1.2,4.1,1.4,5.5,0.5L375.5,198.6L375.5,198.6z"/>
			</g>
			<g>
				<path class="st2" d="M368.8,199.3L338.7,182c-4.7-2.7-8.6-9.4-8.6-14.9v-34.8c0-3.9,2-6.4,5.1-6.4c1.2,0,2.6,0.4,3.9,1.2
					l30.1,17.4c4.7,2.7,8.6,9.4,8.6,14.9l0,34.8c0,3.9-2,6.4-5.1,6.4C371.5,200.5,370.2,200.1,368.8,199.3z M330.8,132.3v34.8
					c0,5.2,3.7,11.6,8.2,14.2l30.1,17.4c1.2,0.7,2.5,1.1,3.6,1.1c2.7,0,4.3-2.2,4.3-5.6l0-34.8c0-5.2-3.7-11.6-8.2-14.2l-30.1-17.4
					c-1.2-0.7-2.5-1.1-3.6-1.1C332.5,126.7,330.8,128.8,330.8,132.3z"/>
			</g>
			<path class="st2" d="M438.9,252.2l-0.5-0.3c-1.3-0.7-2.6-1.1-3.8-1.1c-3.2,0-5.2,2.6-5.2,6.7c0,5.8,4.1,12.9,9.1,15.8
				c1.4,0.8,2.8,1.3,4.1,1.3c3.2,0,5.2-2.6,5.2-6.7C447.8,262.2,443.8,255.2,438.9,252.2z M442.6,274.1c-1.2,0-2.5-0.4-3.9-1.2
				c-4.9-2.8-8.8-9.7-8.8-15.3c0-3.8,1.8-6.2,4.7-6.2c1.2,0,2.5,0.4,3.9,1.2c4.9,2.8,8.9,9.7,8.9,15.3
				C447.3,271.7,445.5,274.1,442.6,274.1z"/>
			<path class="st2" d="M438.6,258.3c-2.1-1.2-3.8-0.2-3.8,2.2c0,2.4,1.7,5.4,3.8,6.6c2.1,1.2,3.8,0.2,3.8-2.2
				C442.4,262.5,440.7,259.6,438.6,258.3z"/>
			<g>
				<polygon class="st2" points="438.9,252.4 438.9,208.3 438.7,208.3 383.3,176.3 383.1,176.7 438.4,208.6 438.4,252.4 				"/>
			</g>
		</g>
		<g>
			<path class="st1" d="M245.8,141.3L245.8,141.3l4.8-2.9c1.3-0.8,3.1-0.7,5.1,0.5l70.4,40.6c4,2.3,7.2,7.9,7.2,12.5v34.4
				c0,2.4-0.9,4-2.3,4.8l-4.8,2.9v0c0,0,0,0,0,0c-1.3,0.8-3.1,0.7-5.2-0.5l-7.7-4.4v12.8l-5,2.8v0.2l-15.7-27.7l-42.1-24.3
				c-4-2.3-7.2-7.9-7.2-12.5V146C243.5,143.7,244.4,142,245.8,141.3z"/>
			<path class="st0" d="M328.4,229.4V195c0-4.6-3.3-10.2-7.2-12.5l-70.4-40.6c-1.9-1.1-3.7-1.2-5-0.6l0,0l4.8-2.9
				c1.3-0.8,3.1-0.7,5.1,0.5l70.4,40.6c4,2.3,7.2,7.9,7.2,12.5v34.4c0,2.4-0.9,4-2.3,4.8l-4.8,2.9v0
				C327.6,233.3,328.4,231.7,328.4,229.4z"/>
			<polygon class="st0" points="308.5,226.3 313.5,229.2 313.5,241.9 308.5,244.7 			"/>
			<g>
				<path class="st2" d="M292.5,217.5l-42-24.2c-4.1-2.4-7.4-8.1-7.4-12.8V146c0-3.4,1.7-5.5,4.4-5.5c1.1,0,2.2,0.3,3.4,1l70.4,40.6
					c4.1,2.4,7.4,8.1,7.4,12.9v34.4c0,3.4-1.7,5.5-4.4,5.5c-1.1,0-2.2-0.3-3.4-1l-12.1-7v19.4L292.5,217.5z M321.3,233.2
					c1.1,0.6,2.1,0.9,3,0.9c2.2,0,3.6-1.8,3.6-4.8V195c0-4.5-3.2-10-7-12.2l-70.4-40.6c-1.1-0.6-2.1-0.9-3-0.9
					c-2.2,0-3.6,1.8-3.6,4.8v34.4c0,4.5,3.2,10,7,12.2l42.1,24.3l0.1,0.1l15,26.5v-17.9L321.3,233.2z"/>
			</g>
			<g>
				<path class="st2" d="M292.4,217.6l-42-24.2c-4.1-2.4-7.5-8.2-7.5-13V146c0-2,0.6-3.6,1.7-4.6l-0.1,0l0.6-0.4
					c0.1-0.1,0.2-0.1,0.3-0.2l4.9-2.9c1.5-0.9,3.5-0.7,5.6,0.5l70.4,40.6c4.1,2.4,7.5,8.2,7.5,13v34.4c0,2.5-0.9,4.4-2.5,5.2
					l-5.9,3.5l0.1-0.2c-1.4,0.4-3,0.1-4.6-0.9l-6.9-4v12.2l-5,2.8v1.8L292.4,217.6z M313,228.3l8.4,4.9c1.8,1,3.5,1.2,4.7,0.5l0,0
					l4.8-2.9c1.3-0.7,2-2.2,2-4.3v-34.4c0-4.4-3.1-9.9-7-12.1l-70.4-40.6c-1.7-1-3.4-1.2-4.6-0.5l-3.9,2.3l0.1,0l-1,0.5
					c-1.3,0.7-2,2.2-2,4.3v34.4c0,4.4,3.1,9.9,7,12.1l42.2,24.4l15.4,27.2l4.4-2.4V228.3z"/>
			</g>
		</g>
		<g>
			<path class="st1" d="M79.2,59.3c0-1.8,0.7-3,1.9-3.4c0,0,0,0,0,0h0l3.2-1.9c0.9-0.5,2.1-0.4,3.5,0.4L137,82.7
				c2.8,1.6,5.1,5.5,5.1,8.8v24c0,1.6-0.6,2.8-1.5,3.3l-3.4,2c-0.9,0.6-2.2,0.5-3.6-0.3l-29.4-17l-11,6.7v-13l-8.8-5.1
				c-2.8-1.6-5.1-5.5-5.1-8.8L79.2,59.3z"/>
			<path class="st0" d="M137.6,113v-24c0-3.2-2.3-7.2-5.1-8.8L83.3,51.8c-1.2-0.7-2.3-0.8-3.2-0.5h0l3.2-1.9
				c0.9-0.5,2.1-0.4,3.5,0.4l49.2,28.4c2.8,1.6,5.1,5.5,5.1,8.8v24c0,1.6-0.6,2.8-1.5,3.3l-3.4,2.1
				C137.1,115.7,137.6,114.6,137.6,113z"/>
			<g>
				<path class="st2" d="M132.4,116.2l-29.2-16.9l-11.4,6.9V92.8l-8.7-5c-2.9-1.7-5.2-5.7-5.2-9.1l0-24c0-2.4,1.3-4,3.2-4
					c0.8,0,1.6,0.2,2.4,0.7l49.2,28.4c2.9,1.7,5.2,5.7,5.2,9.1v24c0,2.4-1.3,4-3.2,4C134,117,133.2,116.7,132.4,116.2z M78.6,54.7
					l0,24c0,3.1,2.2,6.9,4.9,8.4l9,5.2v12.6l10.6-6.5l29.6,17.1c0.7,0.4,1.4,0.6,2.1,0.6c1.5,0,2.4-1.2,2.4-3.2v-24
					c0-3.1-2.2-6.9-4.9-8.4L83.1,52.1c-0.7-0.4-1.4-0.6-2.1-0.6C79.6,51.4,78.6,52.7,78.6,54.7z"/>
			</g>
			<g>
				<path class="st2" d="M132.3,116.3l-29.2-16.8l-11.5,7V92.9l-8.6-5c-2.9-1.7-5.3-5.8-5.3-9.2l0-24c0-1.2,0.3-2.2,0.9-2.9h-0.3
					l0.6-0.4c0.3-0.2,0.6-0.4,0.9-0.6l3.2-1.9c1.1-0.6,2.5-0.5,4,0.4l49.2,28.4c2.9,1.7,5.3,5.8,5.3,9.2v24c0,1.8-0.6,3.1-1.7,3.7
					l-3.4,2c-0.5,0.3-1,0.4-1.6,0.4C134,117.1,133.2,116.8,132.3,116.3z M83.6,49.7l-1.7,1H83l-2.7,1c-1,0.4-1.5,1.4-1.5,3l0,24
					c0,3,2.2,6.8,4.8,8.3l9.1,5.2v12.4l10.5-6.4l29.7,17.1c1.2,0.7,2.3,0.8,3.1,0.3l3.4-2.1c0.8-0.5,1.3-1.5,1.3-2.8v-24
					c0-3-2.2-6.8-4.8-8.3L86.6,50.1c-0.7-0.4-1.4-0.6-2-0.6C84.2,49.5,83.8,49.6,83.6,49.7z"/>
			</g>
			<polygon class="st8" points="125.6,85.5 88.2,63.9 88.2,66.9 125.6,88.6 			"/>
			<polygon class="st8" points="125.6,92.8 88.2,71.2 88.2,74.3 125.6,95.9 			"/>
			<polygon class="st8" points="111.5,91.6 88.2,78.2 88.2,81.2 111.5,94.7 			"/>
		</g>
		<g>
			<polygon class="st5" points="312,192 256.7,160.4 256.7,164.3 312,195.9 			"/>
			<polygon class="st5" points="312,201.2 256.7,169.7 256.7,173.6 312,205.1 			"/>
			<polygon class="st5" points="294.1,199.8 256.7,178.5 256.7,182.4 294.1,203.6 			"/>
		</g>
		<g>
			<g>
				<g>
					<g>
						<path class="st1" d="M62.8,327.6l-2.7,3.4c0,0,2,13.5,2.7,14.1c0.7,0.6,4.7-4.6,6.1-7.4C70.3,334.9,67.6,326.7,62.8,327.6z"/>
						<path class="st2" d="M63,345.3L63,345.3c-0.1,0-0.2,0-0.3-0.1c-0.7-0.6-2.4-12-2.7-14.3l0-0.1l2.8-3.5l0.1,0
							c1.9-0.4,3.7,0.7,5.1,2.9c1.5,2.5,2.1,5.9,1.3,7.6C67.9,340.1,64.2,345.3,63,345.3z M60.4,331c0.8,5.1,2.1,13.2,2.6,13.9
							c0.7,0,4.3-4.4,5.7-7.3c0.8-1.5,0.2-4.8-1.2-7.1c-1.2-2-2.8-2.9-4.5-2.7L60.4,331z"/>
					</g>
					<g>
						<path class="st1" d="M57.1,332.1c2,1.1,2.8,4.4,1.5,8.2c-1.4,3.8-3.8,9-4.1,14.6c-0.2,5.6-1,19.7-6.1,18.8
							c-5-0.8-8.8-9.7-7.9-15.7c0.9-5.9,5.1-11.7,6.3-15.1C48,339.7,51.8,329.2,57.1,332.1z"/>
						<path class="st2" d="M48.8,374.1c-0.1,0-0.3,0-0.5,0c-5.2-0.8-9-9.8-8.1-15.9c0.6-3.9,2.6-7.8,4.3-10.9c0.9-1.6,1.6-3.1,2-4.2
							c2.7-7.7,5.6-11.6,8.7-11.6c0.7,0,1.3,0.2,2,0.5c2.3,1.3,2.9,4.8,1.6,8.5c-0.3,0.7-0.5,1.4-0.8,2.2c-1.3,3.5-3,7.8-3.2,12.3
							C54.2,367.7,52.2,374.1,48.8,374.1z M55.3,331.9c-2,0-5,2-8.2,11.3c-0.4,1.2-1.2,2.6-2,4.3c-1.6,3.1-3.6,6.9-4.2,10.8
							c-0.9,5.8,2.8,14.6,7.7,15.4c0.1,0,0.3,0,0.4,0c2.1,0,4.8-3.2,5.4-18.7c0.2-4.6,1.9-9,3.2-12.5c0.3-0.8,0.6-1.5,0.8-2.2
							c1.3-3.5,0.7-6.8-1.3-8C56.4,332,55.8,331.9,55.3,331.9z"/>
					</g>
					<g>
						<path class="st0" d="M65.6,330.7c-0.8-1.7-2.6-1.5-6.1-1c-2.9,0.4-5.3,1.9-6.3,2.6c1.2-0.7,2.5-0.9,3.9-0.1
							c2,1.1,2.8,4.4,1.5,8.2c-1.4,3.8-3.8,9-4.1,14.6c-0.2,5.2-0.9,17.6-5,18.8c3.3,0.8,8.4-11.9,9.5-15.1c1.2-3.2,3.6-8.1,4.9-10
							c1.3-1.9,1.7-5.7,2.3-8.5C66.6,337.5,66.4,332.4,65.6,330.7z"/>
						<path class="st2" d="M49.8,374C49.8,374,49.8,374,49.8,374c-0.1,0-0.2,0-0.4,0l-0.9-0.2l0.8-0.2c1.9-0.6,4.3-4.2,4.8-18.6
							c0.2-4.6,1.9-9,3.2-12.5c0.3-0.8,0.6-1.5,0.8-2.2c1.3-3.5,0.7-6.8-1.3-8c-1.2-0.7-2.5-0.6-3.7,0.1l-0.3-0.4
							c1.2-0.8,3.6-2.2,6.4-2.6c1.4-0.2,2.6-0.4,3.5-0.4c1.5,0,2.3,0.4,2.8,1.5c0.9,1.9,1,7,0.5,9.7c-0.1,0.5-0.2,1-0.3,1.5
							c-0.4,2.6-0.9,5.4-2,7.1c-1.3,1.9-3.7,6.7-4.8,9.9C59,359.4,53.7,374,49.8,374z M55.3,331.4c0.7,0,1.3,0.2,2,0.5
							c2.3,1.3,2.9,4.8,1.6,8.5c-0.3,0.7-0.5,1.4-0.8,2.2c-1.3,3.5-3,7.8-3.2,12.3c-0.4,9.9-1.7,16-3.9,18.2
							c2.9-1.9,6.6-10.9,7.9-14.6c1.2-3.3,3.6-8.1,4.9-10c1-1.5,1.5-4.4,2-6.9c0.1-0.5,0.2-1,0.3-1.5c0.5-2.8,0.3-7.8-0.5-9.4
							c-0.4-0.9-1.1-1.2-2.4-1.2c-0.9,0-2.1,0.2-3.5,0.4c-1.7,0.3-3.2,0.9-4.4,1.5C55.2,331.4,55.2,331.4,55.3,331.4z"/>
					</g>
					<g>
						<path class="st1" d="M59.9,331.1c-0.6-0.6-1.4-0.9-2.3-0.9c-2,0.6-3.5,1.6-4.3,2.1c1.2-0.7,2.5-0.9,3.9-0.1
							c2,1.1,2.8,4.4,1.5,8.2c-1.4,3.8-3.8,9-4.1,14.6c-0.2,5.2-0.9,17.6-5,18.8c1,0.2,2.1-0.7,3.2-2.2c2.5-5.8,3.3-14.2,3.3-16.3
							c0.1-3.2,2.2-8.5,3.8-12.7C61.5,338.4,62.3,333.5,59.9,331.1z"/>
						<path class="st2" d="M49.8,374L49.8,374c-0.1,0-0.2,0-0.3,0l-0.9-0.2l0.8-0.2c1.9-0.6,4.3-4.2,4.8-18.6
							c0.2-4.6,1.9-9,3.2-12.5c0.3-0.8,0.6-1.5,0.8-2.2c1.3-3.5,0.7-6.8-1.3-8c-1.2-0.7-2.5-0.6-3.7,0.1l-0.3-0.4
							c1-0.7,2.5-1.6,4.4-2.1l0,0l0,0c1.1,0.1,1.9,0.4,2.5,1c3,3,1,9.2,0.1,11.7l0,0.1c-1.6,4.2-3.6,9.4-3.7,12.6
							c-0.1,2.4-0.9,10.6-3.3,16.3C51.7,373.3,50.7,374,49.8,374z M55.3,331.4c0.7,0,1.3,0.2,2,0.5c2.3,1.3,2.9,4.8,1.6,8.5
							c-0.3,0.7-0.5,1.4-0.8,2.2c-1.3,3.5-3,7.8-3.2,12.3c-0.4,9.9-1.7,15.9-3.9,18.1c0.5-0.4,1.1-0.9,1.7-1.8
							c2.4-5.7,3.2-13.7,3.3-16.1c0.1-3.3,2.1-8.5,3.8-12.7l0-0.1c1-2.4,2.9-8.4,0.1-11.2c-0.5-0.5-1.2-0.8-2.1-0.9
							c-0.9,0.3-1.7,0.6-2.4,1C55.2,331.4,55.2,331.4,55.3,331.4z"/>
					</g>
				</g>
				<path class="st1" d="M115.2,208.7c0,0-4.1,2.5-7.8,9.6c-3.7,7.1-4.7,12.7-5.8,20.1c-1.1,7.5-4.9,32-5.9,36.9
					c-0.9,4.9-1.9,9.6-5.6,11.7c-3.7,2-12.3,8.1-15.5,14.3c-3.2,6.2-12.6,27-12.6,27s3.9-0.3,4.5,3.3c0.6,3.6,0.6,11.2,0.6,11.2
					l13-18.6c0,0,27.8-31.6,29.4-33.5c1.6-1.9,15.7-39.2,17.3-45.1c1.7-5.9,4.5-28.5,4.5-28.5L115.2,208.7z"/>
				<path class="st0" d="M126.9,245.6c0.9-3.1,0.2-9.9,1.8-16.7l-8.7-3.1c0,0-2.3,6.2-2.2,13.9c0,1.7-6,1-6,1s3.5,5.1,2.7,9.8
					c-0.8,4.7-5.6,24.2-7.5,28.9c-1.9,4.7-2.9,6.1-3.6,6.3c-0.7,0.2-10.8,9.5-11,9.7c-0.2,0.2-20.6,29.4-25.7,37.5
					c0.4,3.9,0.4,9.8,0.4,9.8l13-18.6c0,0,27.8-31.6,29.4-33.5C111.1,288.7,125.2,251.5,126.9,245.6z"/>
				<path class="st2" d="M66.9,343.6v-0.7c0-0.1,0-7.7-0.6-11.2c-0.5-2.9-3.3-3.1-4.1-3.1c-0.1,0-0.2,0-0.2,0l-0.4,0l0.2-0.3
					c0.1-0.2,9.4-20.9,12.6-27c3.2-6.2,11.9-12.4,15.6-14.4c3.6-2,4.5-6.8,5.4-11.5c0.9-4.9,4.8-29.8,5.9-36.9
					c1.1-7.5,2.1-13,5.8-20.2c3.7-7.1,7.7-9.6,7.9-9.7l0.1-0.1l0.1,0.1l16.3,8.5l0,0.2c0,0.2-2.8,22.7-4.5,28.5
					c-1.5,5.1-15.7,43.1-17.4,45.1c-1.6,1.9-29.2,33.2-29.4,33.5L66.9,343.6z M62.4,328.1c1.9,0.1,4,1,4.4,3.5
					c0.5,2.9,0.6,8.5,0.6,10.5l12.6-18c0.3-0.3,27.9-31.6,29.4-33.6c1.5-1.8,15.5-38.8,17.3-45c1.6-5.5,4.2-26.3,4.4-28.3l-15.9-8.3
					c-0.7,0.5-4.3,3.1-7.6,9.5c-3.7,7.1-4.7,12.5-5.8,20c-1,7.1-4.9,32-5.9,36.9c-0.9,4.8-1.8,9.7-5.7,11.8
					c-3.7,2-12.2,8.1-15.4,14.2C71.9,307.1,63.6,325.4,62.4,328.1z"/>
				<g>
					<g>
						<path class="st1" d="M105.9,289.3h-1.1l-2.2,0.5l-3.2,14.4c0,0,5.9-2.7,7.1-2.9C107.7,301,109.8,290.4,105.9,289.3z"/>
						<path class="st2" d="M99.1,304.5l3.3-15l2.4-0.5l1.1,0l0,0c1.7,0.5,2.6,2.8,2.4,6.4c-0.1,2.4-0.9,5.8-1.8,6
							c-1.2,0.2-6.9,2.9-7,2.9L99.1,304.5z M102.8,290l-3,13.8c1.4-0.6,5.7-2.6,6.7-2.7c0.4-0.1,1.4-2.8,1.5-6.1
							c0.1-1.8-0.2-4.8-2.1-5.4h-1L102.8,290z"/>
					</g>
					<g>
						<path class="st1" d="M96,285.8c1.6,0.6,3.5,2.4,0.5,9.7c-3.1,7.3-8.5,18.8-10.3,22.1c-1.8,3.3-8.1,9.1-11.9,6.8
							c-3.8-2.3-1.5-9.2,0.6-12.3c2.1-3.1,7.1-9.2,9.2-12.2c2.1-3,5.4-9.9,6.4-11.4C91.7,286.7,93,284.6,96,285.8z"/>
						<path class="st2" d="M76.2,325.2c-0.8,0-1.5-0.2-2.1-0.5c-1-0.6-1.7-1.6-2-2.9c-0.7-3.3,1.1-7.7,2.5-9.7
							c1.1-1.6,3-4.1,4.8-6.5c1.7-2.2,3.4-4.3,4.4-5.8c1.2-1.8,2.9-5,4.3-7.6c0.9-1.7,1.7-3.2,2.1-3.8l0.1-0.2c0.9-1.4,2-3,3.9-3
							c0.5,0,1.1,0.1,1.8,0.4c0.9,0.4,1.5,1,1.9,1.8c0.7,1.7,0.3,4.5-1.3,8.2c-3.2,7.5-8.6,18.9-10.3,22.1
							C85,320.3,80.2,325.2,76.2,325.2z M94.3,285.7c-1.7,0-2.6,1.4-3.6,2.7l-0.1,0.2c-0.4,0.6-1.2,2.1-2.1,3.8
							c-1.4,2.6-3,5.8-4.3,7.6c-1,1.4-2.6,3.6-4.4,5.8c-1.8,2.4-3.7,4.8-4.8,6.4c-1.3,1.9-3.1,6.2-2.4,9.4c0.3,1.2,0.9,2,1.8,2.6
							c0.5,0.3,1.2,0.5,1.8,0.5c3.5,0,8.2-4.4,9.7-7.2c1.7-3.2,7.2-14.6,10.3-22.1c1.5-3.6,2-6.3,1.3-7.8c-0.3-0.7-0.8-1.2-1.6-1.5
							C95.4,285.8,94.8,285.7,94.3,285.7z"/>
					</g>
					<g>
						<path class="st0" d="M105.5,291.3c-0.5-1.1-3.2-3.5-5.6-4.9c-1.9-1.1-4.4-1.1-5.5-1c0.5,0,1.1,0.1,1.7,0.4
							c1.6,0.6,3.5,2.4,0.5,9.7c-3.1,7.3-8.5,18.8-10.3,22.1c-1.7,3.2-7.7,8.8-11.5,7c0,0,0,0,0,0c1.2,1,6.9,0.7,9.1-1.2
							c2.2-1.9,8.1-7.7,9.2-9.7c1.1-2,5.6-6.8,7.3-7.9c1.6-1,1.2-1.2,1.5-3.1c0.2-1.9,1-3.8,2.5-5.6
							C105.6,295.4,106,292.4,105.5,291.3z"/>
						<path class="st2" d="M77.4,325.4C77.4,325.4,77.4,325.4,77.4,325.4c-0.8,0-2.3-0.1-2.9-0.6l-0.1-0.1v-0.5l0.3,0.1
							c0.5,0.2,1,0.3,1.5,0.3c0,0,0,0,0,0c3.5,0,8.2-4.3,9.7-7.2c1.7-3.2,7.2-14.6,10.3-22.1c1.5-3.6,2-6.3,1.3-7.8
							c-0.3-0.7-0.8-1.2-1.6-1.5c-0.6-0.2-1.1-0.3-1.6-0.3l0-0.5c1.2-0.1,3.7-0.1,5.7,1c2.4,1.3,5.2,3.8,5.7,5
							c0.5,1.2,0.1,4.2-1.4,6.1c-1.4,1.7-2.2,3.6-2.4,5.5c0,0.4-0.1,0.7-0.1,1c-0.1,1.1-0.1,1.4-1.5,2.3c-1.6,1.1-6.1,5.9-7.2,7.8
							c-1.2,2.1-7.2,8-9.3,9.7C82.4,324.9,79.6,325.4,77.4,325.4z M96.4,285.7c0.8,0.4,1.3,0.9,1.6,1.7c0.7,1.7,0.3,4.5-1.3,8.2
							c-3.2,7.5-8.6,18.9-10.3,22.1c-1.2,2.3-5,6.3-8.6,7.3c2-0.1,4.5-0.6,5.8-1.7c2.3-1.9,8.1-7.7,9.2-9.6c1.1-2,5.6-6.9,7.3-8
							c1.2-0.8,1.2-1,1.3-1.9c0-0.3,0-0.6,0.1-1c0.2-2,1.1-4,2.5-5.7c1.4-1.7,1.7-4.6,1.3-5.6c-0.4-1-3-3.4-5.5-4.8
							C98.7,286,97.5,285.8,96.4,285.7z"/>
					</g>
					<g>
						<path class="st1" d="M94.3,285.4c0.5,0,1.1,0.1,1.7,0.4c1.6,0.6,3.5,2.4,0.5,9.7c-3.1,7.3-8.5,18.8-10.3,22.1
							c-1.7,3.2-7.7,8.8-11.5,7c0,0,0,0,0,0c1.2,1,6.9,0.7,9.1-1.2c0.5-0.4,1.1-0.9,1.7-1.6c4.5-5.8,7.7-14.5,9.3-17.9
							c2-4.3,4.2-11.3,5.3-14.4c0.5-1.4-0.1-2.6-0.9-3.5C97.4,285.4,95.3,285.4,94.3,285.4z"/>
						<path class="st2" d="M77.4,325.4C77.4,325.4,77.4,325.4,77.4,325.4c-0.8,0-2.3-0.1-2.9-0.6l-0.1-0.1v-0.5l0.3,0.1
							c0.5,0.2,1,0.3,1.5,0.3c0,0,0,0,0,0c3.5,0,8.2-4.3,9.7-7.2c1.7-3.2,7.2-14.6,10.3-22.1c1.5-3.6,2-6.3,1.3-7.8
							c-0.3-0.7-0.8-1.2-1.6-1.5c-0.6-0.2-1.1-0.3-1.6-0.3l0-0.5c0.2,0,0.5,0,0.9,0c1.1,0,2.6,0.1,4,0.7l0.1,0.1
							c1,1.2,1.4,2.4,0.9,3.7l-0.3,0.9c-1.1,3.4-3.1,9.6-5,13.5c-0.3,0.7-0.7,1.7-1.2,2.8c-1.8,4.2-4.5,10.5-8.1,15.1
							c-0.8,0.7-1.4,1.2-1.8,1.6C82.4,324.9,79.6,325.4,77.4,325.4z M96.4,285.7c0.8,0.4,1.3,0.9,1.6,1.7c0.7,1.7,0.3,4.5-1.3,8.2
							c-3.1,7.5-8.6,18.9-10.3,22.1c-1.2,2.3-5,6.3-8.6,7.3c2-0.1,4.5-0.6,5.8-1.7c0.4-0.3,1-0.9,1.7-1.6c3.5-4.5,6.2-10.8,8-15
							c0.5-1.1,0.9-2.1,1.2-2.8c1.8-3.9,3.9-10.1,5-13.5l0.3-0.9c0.4-1.1,0.1-2.2-0.8-3.2C98.1,285.9,97.2,285.8,96.4,285.7z"/>
					</g>
				</g>
				<g>
					<path class="st1" d="M126.2,214c0,0-5.5,5.7-7,15.4c-1.5,9.7,0.6,15.3,7.5,22.5c0,0,3,16.3,4.8,25.9c0,0-7,1.5-9.2,2.6
						c-2.2,1.1-13.1,9.2-17.9,9c0,0,2.8,0,2.6,3.8c-0.2,3.8-3.6,10.3-3.6,10.3s19.4-4.4,24.6-4.9c5.2-0.4,19-0.6,21.5-9.6
						c2.5-9,4.6-25.4,5.4-34.1c0.7-8.7-0.7-16.3-0.7-19c0-2.7,2.4-11.2,2.4-11.2L126.2,214z"/>
					<path class="st0" d="M145.9,294.1c-15.7,0-32.1,3.4-40.8,5.5c-0.9,2.1-1.7,3.7-1.7,3.7s19.4-4.4,24.6-4.9
						C131.9,298.2,140.7,298,145.9,294.1z"/>
					<path class="st0" d="M139.5,268.7c0.5-5.9-3.6-12-8.2-15.5c-2.3-1.7-5.1-3.4-7.4-4.6c0.8,1,1.7,2,2.8,3.1c0,0,3,16.3,4.8,25.9
						c5.9,1.5,13,9.7,13,9.7C142.7,284.9,139,274.6,139.5,268.7z"/>
					<path class="st0" d="M154.1,235.8c0-2.7,2.4-11.2,2.4-11.2L126.2,214c0,0-1.7,1.7-3.4,4.9c7.7,3.1,23.2,7.6,24.7,10.1
						c1.1,2,5.4,11.1,7.6,19.8C155,242.7,154.1,237.9,154.1,235.8z"/>
				</g>
				<path class="st0" d="M112.7,211.1c1.6,2.2,4.5,5.6,9.1,7.5c2.3,1,5.6,2.2,9.1,3.4c0.4-2.8,0.6-4.6,0.6-4.6l-16.2-8.5
					C115.3,208.9,114.3,209.5,112.7,211.1z"/>
			</g>
			<path class="st2" d="M156.8,224.4l-22.9-8l-0.3,0.4l22.6,7.9c-0.4,1.4-2.3,8.6-2.3,11.1c0,0.8,0.1,2,0.3,3.5
				c0.4,3.7,1,9.3,0.5,15.4c-0.7,8.3-2.8,24.9-5.4,34.1c-2.3,8.1-14.2,8.9-20,9.3c-0.5,0-0.9,0.1-1.3,0.1
				c-4.7,0.4-21.2,4.1-24.2,4.7c0.8-1.5,3.2-6.7,3.4-10c0.1-2.2-0.7-3.2-1.5-3.7c3.8-0.7,9.9-4.6,13.7-7c1.4-0.9,2.5-1.6,3.1-1.9
				c2.2-1.1,9.1-2.5,9.1-2.6l0.2,0l0-0.2c-1.7-9.5-4.8-25.7-4.8-25.9l0-0.1l0-0.1c-7-7.2-8.8-12.8-7.4-22.1l-0.5-0.1
				c-1.4,9.4,0.5,15.1,7.5,22.4c0.2,1.1,3.1,16.4,4.7,25.6c-1.2,0.3-7,1.6-9,2.5c-0.6,0.3-1.7,1-3.1,1.9c-4.1,2.6-10.9,7-14.4,7
				l-0.2,0l0,0l-0.1,0l0,0.5l0.1,0c0.4,0,2.5,0.3,2.3,3.6c-0.2,3.7-3.5,10.2-3.6,10.2l-0.2,0.4l0.5-0.1c0.2,0,19.5-4.4,24.6-4.8
				c0.4,0,0.8-0.1,1.3-0.1c5.9-0.4,18-1.2,20.4-9.7c2.6-9.2,4.7-25.8,5.4-34.1c0.5-6.2-0.1-11.8-0.4-15.5c-0.2-1.5-0.3-2.7-0.3-3.5
				c0-2.6,2.3-11.1,2.4-11.2L156.8,224.4z"/>
			<path class="st1" d="M89.3,220.9c0-1.2,0-2.6,0-3.3c0-0.7-1.3-3.2-0.6-4.7c0.8-1.5,4.2-7.7,4.2-7.7l-7.2-2
				c-0.8,2.8-3.5,9.2-3.8,10.3c-0.3,1.1-3.7,7.4-4.1,8.8c-0.4,1.4-0.9,7.2-0.7,8.1c0.2,1,2.7,6.6,3.1,6.9c0.5,0.3,1.1,0,1.1,0
				s0.8,0.5,0.9,0c0.1-0.5,0.1-1.5,0.1-1.5l0.3-1.8c0,0,1.1,1.2,1.5,1c0.4-0.2,0.3-1.2,0-1.8c-0.2-0.5-1.4-3.1-1.8-4.4
				c-0.4-1.3-0.3-3.7,0-4.4c0.3-0.6,1.4-3,2.1-3.1c0.7-0.1,2.2,0,2.3,0.8c0.2,0.8,0.4,5,2,5.1C90.5,227.3,89.2,222.1,89.3,220.9z"/>
			<path class="st0" d="M84.2,234.9c0.4-0.2,0.3-1.2,0-1.8c-0.2-0.5-1.4-3.1-1.8-4.4c-0.4-1.3-0.3-3.7,0-4.4c0.3-0.6,1.4-3,2.1-3.1
				c0.7-0.1,2.2,0,2.3,0.8c0.2,0.8,0.4,5,2,5.1c1.7,0,0.4-5.2,0.4-6.3c0-1.2,0-2.6,0-3.3c0-0.7-1.3-3.2-0.6-4.7
				c0.8-1.5,4.2-7.7,4.2-7.7l-2.6-0.7l-4.9,7.9c0,0-0.8,1.2-0.7,3.5c0.1,2.3,0,3.7-0.6,4.5c-0.6,0.8-2.9,4.4-3.2,4.9
				c-0.2,0.6-0.4,1.5-0.4,2.2c0,0.7,0.2,2.6,0.6,3.4c0.4,0.8,1.3,1.7,1.4,3C82.7,233.9,83.8,235.1,84.2,234.9z"/>
			<path class="st0" d="M80.3,237.2c0.5,0.3,1.1,0,1.1,0s0.8,0.5,0.9,0c0-0.2,0.1-0.4,0.1-0.7c-0.5-0.6-1.5-2-2.3-3.3
				c-1-1.7-1.8-2.9-2.1-4.2c-0.2-1.2-0.4-3.4-0.5-4.9c-0.3,2.3-0.5,5.5-0.4,6.3C77.3,231.4,79.8,237,80.3,237.2z"/>
			<path class="st2" d="M82.1,237.7c-0.2,0-0.5-0.1-0.6-0.2c-0.1,0-0.4,0.1-0.6,0.1c-0.2,0-0.4-0.1-0.6-0.2c-0.6-0.3-3.1-6.1-3.3-7
				c-0.2-1.1,0.3-6.8,0.7-8.3c0.2-0.8,1.2-2.7,2.2-4.7c0.9-1.8,1.8-3.6,1.9-4.1c0.1-0.5,0.7-1.9,1.4-3.7c0.9-2.2,2-5,2.4-6.6
				l0.1-0.2l7.7,2.1l-0.1,0.3c0,0.1-3.4,6.3-4.2,7.7c-0.5,1,0,2.5,0.3,3.5c0.2,0.5,0.3,0.8,0.3,1.1c0,0.7,0,2.2,0,3.3
				c0,0.3,0.1,0.9,0.2,1.5c0.2,1.8,0.5,4-0.1,4.7c-0.2,0.2-0.4,0.3-0.6,0.3c0,0,0,0,0,0c-1.6,0-2-3-2.2-4.7c0-0.3-0.1-0.5-0.1-0.6
				c-0.1-0.6-1.4-0.7-2.1-0.6c-0.1,0-0.7,0.3-2,3c-0.2,0.5-0.3,2.9,0.1,4.2c0.3,1.1,1.2,3,1.6,3.9l0.2,0.4c0.2,0.5,0.4,1.8-0.2,2.1
				c-0.1,0-0.1,0-0.2,0c-0.4,0-0.9-0.4-1.2-0.7l-0.2,1.4c0,0,0,1.1-0.1,1.5C82.5,237.5,82.3,237.7,82.1,237.7z M81.5,237L81.5,237
				c0.2,0.1,0.5,0.2,0.6,0.2c0,0,0,0,0,0c0.1-0.4,0.1-1.5,0.1-1.5l0.4-2.3l0.3,0.3c0.4,0.4,1,0.9,1.2,0.9c0.2-0.1,0.2-0.9-0.1-1.4
				l-0.2-0.4c-0.4-0.9-1.3-2.9-1.6-4c-0.4-1.3-0.3-3.8,0-4.5c1.3-2.8,1.9-3.2,2.3-3.2c0.1,0,0.3,0,0.5,0c0.4,0,1.9,0.1,2.1,1
				c0,0.1,0.1,0.4,0.1,0.7c0.2,1.3,0.5,4.2,1.7,4.3c0.1,0,0.2,0,0.3-0.1c0.5-0.6,0.2-2.9,0-4.4c-0.1-0.7-0.2-1.3-0.2-1.6
				c0-1.2,0-2.6,0-3.3c0-0.2-0.1-0.5-0.3-1c-0.3-1.1-0.9-2.7-0.3-3.8c0.7-1.3,3.4-6.3,4.1-7.5l-6.7-1.9c-0.5,1.6-1.5,4.3-2.4,6.4
				c-0.7,1.7-1.2,3.2-1.3,3.6c-0.1,0.6-1,2.3-2,4.2c-1,1.9-1.9,3.9-2.2,4.6c-0.4,1.4-0.9,7.1-0.7,8c0.2,1,2.6,6.4,3,6.7
				c0.1,0.1,0.2,0.1,0.4,0.1c0.3,0,0.5-0.1,0.5-0.1L81.5,237z"/>
			<path class="st1" d="M228,107.1c0.3,0.3,0.9,1.4-0.3,2.8c-1.2,1.4-3.4,4.9-3.4,4.9l0.3,0.3c0,0,2.6-2.1,3.4-1.7
				c0.8,0.4,2.4,1.3,2.3,1.8c-0.1,0.5-0.4,0.5-0.6,0.5c-0.2,0-1.4,0-1.4,0s-0.7,0.9-0.6,1.1c0.2,0.2,2.1-0.1,2.6,0.5
				c0.5,0.6,1,1.9,1,1.9s1.4,0.5,1.3,1.3c-0.1,0.8-0.9,3.3-1.1,3.5c-0.2,0.2-1.3,0-1.1-1.4c0,0-0.8,0.8-1.5,1.5
				c-0.7,0.7-3.7,5.3-4,5.9c-0.2,0.7-2.6,11.4-3.5,14.5l-9.3-4.6c0,0,4.7-9.5,5.3-11.2c0.6-1.6-0.1-1.9-0.6-3
				c-0.5-1.1-0.7-4.1,0.4-5.5c1.1-1.4,1.8-4.2,2.6-5c0.7-0.8,5-6.4,5.9-7.1C226.7,107.6,227.7,106.8,228,107.1z"/>
			<path class="st0" d="M231.5,124.2c0.1-0.1,0.4-0.9,0.7-1.7c-0.6-0.4-1.6,0.1-1.7,0.3C230.3,124.1,231.3,124.4,231.5,124.2z"/>
			<path class="st0" d="M231.5,119.4c-0.1-0.1-0.2-0.1-0.2-0.1s-0.2-0.6-0.5-1.2c-0.2-0.1-0.3-0.2-0.4-0.2c-0.4-0.1-1.3-0.5-1.3,0
				c0,0.5,1.7,1.4,2.3,1.4C231.4,119.4,231.4,119.4,231.5,119.4z"/>
			<path class="st2" d="M221.7,145l-9.8-4.9l0.1-0.2c0-0.1,4.7-9.5,5.3-11.1c0.4-1.1,0.2-1.5-0.2-2.1c-0.1-0.2-0.2-0.4-0.4-0.7
				c-0.5-1.2-0.7-4.2,0.4-5.7c0.5-0.7,1-1.8,1.4-2.8c0.4-1,0.8-1.8,1.2-2.2c0.3-0.3,1-1.2,1.8-2.2c1.6-2,3.5-4.4,4.1-4.9l0.2-0.2
				c1-0.7,1.6-1.2,2-1.2c0.2,0,0.3,0.1,0.3,0.1c0.4,0.4,1,1.6-0.3,3.1c-1,1.2-2.8,4-3.3,4.7l0.1,0.1c0.6-0.4,2.2-1.7,3.1-1.7
				c0.1,0,0.2,0,0.3,0.1c0.3,0.1,2.6,1.2,2.4,2.1c-0.2,0.7-0.7,0.7-0.9,0.7h-1.3c-0.2,0.3-0.4,0.6-0.5,0.7c0.1,0,0.3,0,0.5,0
				c0.7,0,1.7,0,2.1,0.5c0.5,0.5,0.9,1.6,1,1.9c0.3,0.1,1.5,0.7,1.4,1.5c-0.1,0.7-0.8,3.4-1.2,3.7c-0.3,0.2-0.8,0.1-1.1-0.3
				c-0.1-0.2-0.3-0.4-0.3-0.7l-1.1,1.1c-0.7,0.7-3.7,5.3-3.9,5.8c-0.1,0.3-0.7,2.9-1.3,5.7c-0.8,3.3-1.7,7.1-2.1,8.8L221.7,145z
				 M212.5,140l8.9,4.4c0.5-1.8,1.3-5.4,2-8.6c0.8-3.4,1.3-5.4,1.4-5.7c0.3-0.7,3.3-5.3,4-6l1.9-1.9l-0.1,0.7c-0.1,0.4,0,0.8,0.2,1
				c0.2,0.2,0.5,0.2,0.5,0.2c0.2-0.2,0.9-2.5,1-3.4c0-0.5-0.8-1-1.2-1.1l-0.1,0l0-0.1c0,0-0.5-1.3-1-1.8c-0.3-0.3-1.2-0.3-1.8-0.3
				c-0.5,0-0.8,0-0.9-0.1c-0.1-0.1-0.3-0.3,0.5-1.4l0.1-0.1h1.6c0.2,0,0.3,0,0.4-0.4c0.1-0.2-0.9-1-2.1-1.6c0,0-0.1,0-0.1,0
				c-0.7,0-2.4,1.2-3,1.7l-0.2,0.1l-0.6-0.6l0.1-0.2c0.1-0.1,2.3-3.6,3.4-4.9c1.3-1.5,0.3-2.4,0.3-2.4c-0.3,0-1.1,0.6-1.7,1.1
				l-0.2,0.2c-0.6,0.4-2.6,2.9-4,4.8c-0.9,1.1-1.6,2-1.8,2.2c-0.3,0.4-0.7,1.2-1.1,2.1c-0.4,1-0.9,2.1-1.5,2.9
				c-1,1.3-0.8,4.2-0.3,5.3c0.1,0.3,0.2,0.5,0.3,0.7c0.4,0.6,0.7,1.2,0.2,2.5C217.2,130.5,213.3,138.5,212.5,140z"/>
			<path class="st5" d="M217,129.4c0,0-4,8.3-4.8,10.1c-0.7,1.7-6,13-7.7,13.7c-1.7,0.7-12.4,0-12.4,0c-6.1-1.2-13-2.4-15.5-2.4
				c0,0-7.2-2.3-8.5-3.6c-1.3-1.3-18.4-7.4-18.4-7.4h-14.9c-1.3,0.2-6.2,3.2-10.6,8.2c-4.5,5-17.1,18.6-19.3,21.1
				c-2.2,2.5-5.3,5.4-7.1,7c-1.9,1.7-6.4,9.1-7.2,11.4c-0.8,2.3-8.3,24.3-8.3,24.3s3.7,2.2,6.5,1.5c0,0,4-7.5,5.9-9.6
				c1.9-2.1,7.2-10.7,8.5-13.2c1.3-2.6,3.3-6.9,3.8-7.5c0.5-0.6,10-10,11.7-11.3c1.1-0.9,7.8-6.2,12.2-9.8
				c0.3,7.9,0.7,17.6-0.8,23.2c-2,7.5-5.6,12.8-8.4,15c-2.8,2.3-8.8,9.1-8.8,9.1c0.9,1.1,3.4,5.9,15.6,10.4
				c12.2,4.5,27.7,10.5,29,7.5c1.2-3,1.2-13.9,2.6-17.1c1.4-3.2,12.1-18.2,12.7-22c0,0,7.1-2.7,6.2-9.5c-0.3-2.7-0.8-5.8-1.2-8.6
				c5.1-2.1,12.9-3.6,15.6-3.9c3.5-0.4,13.6-0.5,15.3-0.8c1.7-0.3,5-1.4,6-3.1c0.9-1.7,5.6-11.3,6.3-13.9c0.7-2.5,4.1-16.5,4.1-16.5
				C222,129.6,217,129.4,217,129.4z"/>
			<path class="st29" d="M132.6,153.2c-1.5-0.5-2.6-1.3-3,1c-0.4,2.3-3.6,7.7-9,11.7c-5.5,4.1-14.3,12.2-16.2,14
				c-1.9,1.8-3.2,4.1-4.3,7.4c-1.1,3.1-11,20-15.5,25.6c1.2,0.4,2.8,0.8,4.2,0.5c0,0,4-7.5,5.9-9.6c1.9-2.1,7.2-10.7,8.5-13.2
				c1.3-2.6,3.3-6.9,3.8-7.5c0.5-0.6,10-10,11.7-11.3c1.7-1.3,16.3-13,16.3-13l0.4-1.8C134.3,155,133.3,153.4,132.6,153.2z"/>
			<path class="st29" d="M179,178.6c-0.4-3-0.9-6.5-1.3-9.6c-1.3,1.4-2.9,2.8-4.5,3.5c-3.8,1.6-6.1,3.1-6.1,5.8
				c0,2.6,0.6,12.2-6.3,20.9c-5.2,6.5-9.5,19.4-12.8,27.4c5.1,1.5,8.9,2.1,9.5,0.7c1.2-3,1.2-13.9,2.6-17.1
				c1.4-3.2,12.1-18.2,12.7-22C172.8,188.2,179.9,185.5,179,178.6z"/>
			<path class="st2" d="M155.4,228.2L155.4,228.2c-4.7,0-15.9-4.2-25.7-7.9l-1.2-0.5c-11.2-4.2-14.3-8.5-15.4-10.1
				c-0.1-0.1-0.2-0.3-0.2-0.3l-0.1-0.1l0.1-0.1c0.1-0.1,6-6.9,8.8-9.1c2.7-2.2,6.3-7.2,8.3-14.9c1.5-5.5,1.1-14.9,0.8-22.7
				c-7.1,5.6-11.1,8.8-11.9,9.5c-1.6,1.2-11.1,10.6-11.6,11.3c-0.3,0.4-1.1,2-1.9,3.8c-0.6,1.3-1.3,2.7-1.9,3.7
				c-1.3,2.4-6.6,11-8.5,13.3c-1.9,2.1-5.8,9.5-5.8,9.6l0,0.1l-0.1,0c-0.4,0.1-0.8,0.1-1.2,0.1c-2.6,0-5.4-1.6-5.5-1.7l-0.2-0.1
				l0.1-0.2c0.1-0.2,7.5-22.1,8.3-24.3c0.8-2.4,5.3-9.8,7.2-11.5c3.2-2.8,5.5-5.1,7.1-7c1.1-1.2,4.6-5,8.3-9.1
				c4.1-4.4,8.7-9.5,11.1-12.1c4.4-5,9.4-8.1,10.8-8.3l15,0l0,0c0.7,0.3,17.2,6.2,18.5,7.5c1.2,1.2,7.8,3.3,8.4,3.5
				c2.4,0,8.9,1.2,15.5,2.5l0,0c0,0,4.8,0.3,8.4,0.3c2.6,0,3.6-0.2,3.9-0.3c1.5-0.6,6.5-11.1,7.6-13.6c0.7-1.7,4.7-10,4.8-10.1
				l0.1-0.1l0.1,0c0.2,0,5.1,0.2,8.2,2.4l0.1,0.1l0,0.1c0,0.1-3.4,14-4.1,16.5c-0.7,2.5-5.3,12.1-6.3,13.9c-1,1.9-4.6,3-6.1,3.2
				c-0.8,0.1-3.1,0.2-5.9,0.3c-3.5,0.1-7.5,0.2-9.4,0.5c-2.8,0.3-10.4,1.8-15.4,3.9c0.5,3.4,0.9,6.2,1.2,8.4
				c0.8,6.4-5.3,9.3-6.2,9.7c-0.5,2.5-4.8,9.3-8.3,14.7c-2.1,3.2-3.9,6-4.4,7.2c-0.7,1.6-1.1,5.3-1.4,8.9c-0.3,3.4-0.6,6.7-1.2,8.1
				C157.5,227.9,156.7,228.2,155.4,228.2z M113.3,209.3c0,0.1,0.1,0.1,0.1,0.2c1.1,1.6,4.1,5.8,15.2,10l1.2,0.5
				c9.3,3.5,21,7.8,25.6,7.8l0,0c1.1,0,1.7-0.2,1.9-0.7c0.6-1.4,0.9-4.7,1.2-8c0.3-3.6,0.7-7.4,1.4-9.1c0.5-1.2,2.3-4,4.4-7.2
				c3.5-5.5,7.9-12.3,8.3-14.7l0-0.1l0.1,0c0.1,0,6.9-2.7,6.1-9.3c-0.3-2.3-0.7-5.2-1.2-8.6l0-0.2l0.2-0.1c5-2.1,12.9-3.6,15.7-4
				c2-0.3,6-0.4,9.5-0.5c2.7-0.1,5.1-0.2,5.8-0.3c1.8-0.3,5-1.4,5.8-3c1-1.8,5.6-11.3,6.2-13.8c0.6-2.4,3.7-14.8,4-16.4
				c-2.7-1.9-6.8-2.2-7.6-2.2c-0.5,1.1-4,8.3-4.7,9.9c-0.1,0.1-5.9,13-7.8,13.8c-0.5,0.2-1.9,0.3-4,0.3c-3.6,0-8.4-0.3-8.5-0.3
				c-6.7-1.3-13.1-2.4-15.5-2.4l-0.1,0c-0.3-0.1-7.3-2.3-8.6-3.6c-1-1-13.5-5.6-18.3-7.4h-14.9c-1,0.2-5.8,2.9-10.5,8.2
				c-2.3,2.6-7,7.6-11.1,12.1c-3.7,4-7.2,7.8-8.3,9c-1.7,1.9-4,4.2-7.2,7c-1.8,1.6-6.3,9-7.1,11.3c-0.7,2.2-7.5,22-8.2,24.2
				c0.6,0.3,2.9,1.5,5.1,1.5c0.3,0,0.7,0,1-0.1c0.5-0.9,4.1-7.5,5.8-9.6c1.8-2.1,7.1-10.6,8.5-13.2c0.6-1.1,1.2-2.4,1.8-3.7
				c0.9-1.9,1.7-3.5,2-3.8c0.5-0.6,9.9-10,11.7-11.3c0.8-0.7,5-3.9,12.2-9.8l0.4-0.3l0,0.5c0.3,7.8,0.7,17.6-0.8,23.2
				c-2.1,7.8-5.7,12.9-8.5,15.2C119.3,202.4,114.1,208.3,113.3,209.3z"/>
			<path class="st1" d="M171.6,139c0.6-0.6,4.8-0.1,6.1-1.2c1.3-1.1,4.1-5.8,4.8-8.2c0.7-2.4,0-5.4,0.7-6.3c0.7-0.8,1.3-5.1,0.3-9.8
				c-1-4.6-5.7-10-16-9.7c-10.3,0.3-13.7,7.9-14.4,12.6c-0.7,4.7,0.6,8.2,1.3,10.7c0.7,2.6,0.6,5.5,0.1,7.5
				c-0.5,1.9-3.6,6.6-5.1,7.3c-1.5,0.7-6.3,2.3,4.4,6.2c10.7,3.9,15,1.3,15,1.3S168.8,141.9,171.6,139z"/>
			<path class="st0" d="M172.7,127.6c-1.1-2.7-3-4.9-3-4.9l-3.4,2.4c0,0-5.2,16.7-9.6,24.1c8.5,2.5,12,0.3,12,0.3s0.1-7.6,3-10.5
				c0.3-0.3,1.9-0.3,3.4-0.5c-0.6-1.3-1.5-3.4-1.6-5.5C172.2,132.7,172.2,129.8,172.7,127.6z"/>
			<path class="st2" d="M164.1,150.6C164.1,150.6,164.1,150.6,164.1,150.6c-3,0-6.5-0.7-10.5-2.2c-4.6-1.7-6.9-3.1-6.9-4.4
				c0-1.1,1.3-1.6,2.2-2l0.3-0.1c1.5-0.7,4.5-5.2,5-7.1c0.4-1.8,0.6-4.7-0.1-7.4c-0.1-0.3-0.2-0.6-0.2-0.8c-0.7-2.4-1.6-5.8-1-10
				c0.8-6,5.1-12.5,14.6-12.8c10.3-0.3,15.1,5,16.3,9.9c1,4.5,0.5,9-0.3,10c-0.3,0.3-0.3,1.3-0.3,2.3c0,1.2,0,2.6-0.4,3.9
				c-0.8,2.5-3.5,7.2-4.9,8.3c-0.8,0.7-2.5,0.8-4,0.9c-0.9,0.1-1.8,0.1-2,0.3c-2.7,2.7-2.9,10.2-2.9,10.3l0,0.1l-0.1,0.1
				C168.7,149.7,167.3,150.6,164.1,150.6z M168.2,104.2c-0.3,0-0.5,0-0.8,0c-11.9,0.4-13.9,10.4-14.1,12.4c-0.6,4.1,0.3,7.3,1,9.8
				c0.1,0.3,0.2,0.6,0.2,0.9c0.8,2.9,0.6,5.9,0.1,7.6c-0.5,2-3.7,6.7-5.2,7.4c-0.1,0-0.2,0.1-0.3,0.1c-0.7,0.3-2,0.9-2,1.6
				c0,0.7,1.2,2,6.6,4c3.9,1.4,7.4,2.2,10.3,2.2c2.6,0,3.9-0.6,4.3-0.8c0-1.1,0.3-7.8,3-10.5c0.3-0.3,1-0.4,2.3-0.4
				c1.4-0.1,3.1-0.2,3.8-0.8c1.3-1.1,4-5.7,4.7-8.1c0.4-1.2,0.3-2.5,0.3-3.7c0-1.2,0-2.2,0.4-2.6c0.7-0.8,1.2-5,0.2-9.6
				C182.2,109.1,177.7,104.2,168.2,104.2z"/>
			<path class="st0" d="M185.2,115.5c-0.8-4.5-5-11.7-14.5-12.9c-9.5-1.2-16.2,4.5-18.7,10.2c-2.5,5.8-1.9,16.4-4.7,19.3
				c-2.8,2.9-11.5,7.1-14.2,13.3c0,0,4.4-3,6.5-3.7c0,0-6.2,5.2-4.9,10.3c0,0,0.2-4.1,2.2-5.6c0,0-4,7.8,3.7,13.1
				c7.7,5.3,14.1,8,19.3,5.5c-0.9,0.9-2.8,1.9-2.8,1.9c6-0.5,10-9.5,10-9.5c-0.2,2.7-3.6,7.9-3.6,7.9c10.1-8.9,5.3-27.5,6.6-31.6
				c1.3-4,2.8-6.7,2.8-6.7h0c0.1-0.4,0.2-0.7,0.4-1c1-1.9,2.6-0.1,2.6,0.9c0.2,0,0.4,0,0.6,0c2.4-0.2,3.1-1.6,3.6-3.1
				C180,124.1,186,120,185.2,115.5z"/>
			<path class="st0" d="M172.8,127.3c0,0,0.5-1.8,1.5-1.8c0.5,0,1.2,1.8,2,1.7c2.4-0.2,3.1-1.6,3.6-3.1c0,0,3.6-2.4,4.9-5.7
				c-2.4,3.6-7,4.9-7,4.9c5-2,5.2-5.7,5.2-5.7c-1.6,4.4-9.2,5.1-13,8.2c-3.8,3.2-2.6,12.8-2.4,14.6c0.2,1.8-0.3,6.7-0.3,6.7
				c-2.4-4.2-1.7-9.1-1.7-9.1c-3,6.4,2.2,10.8,0.9,16.5c-1.3,5.7-6.5,8.9-6.5,8.9c1.6-1.5,2.7-4.2,2.7-4.2c-4.6,5-7.8,3.9-7.8,3.9
				c7.9-6.4,7.2-13.9,7.2-13.9c-1.3,8.7-10.5,14.3-11.2,14.2c-0.7-0.2-2.4-3-2.4-3l0.5,2.3c-1.9-1.2-3.7-4.3-4.7-8.1
				c-1-3.8,1.2-8.7,1.2-8.7c-4,4.8-1.4,13.8-1.4,13.8c-2.7-2.6-2.6-7.4-2.6-7.4c-1,2.4,0.3,6.4,0.3,6.4c-5.7-5.1-0.2-15.4,2.5-17.3
				c2.7-1.8,4.9-5.8,4.9-5.8c-0.8,0.8-2.7,1.4-2.7,1.4c4.3-2.7,5.9-11.2,5.9-11.2c1.3,4.7-2.4,12.8-2.4,12.8c2-1.6,4.1-6.8,4.1-6.8
				c0.3,4.7-5.1,14-5.1,14c4.8-4.1,7.3-15.5,7.8-22c0.4-6.5,2-13.9,10.1-17.4c4.5-2,9.6-1,13.2,0.3c-2.3-2.1-5.4-3.8-9.6-4.3
				c-9.5-1.2-16.2,4.5-18.7,10.2c-2.5,5.8-1.9,16.4-4.7,19.3c-2.8,2.9-11.5,7.1-14.2,13.3c0,0,4.4-3,6.5-3.7c0,0-6.2,5.2-4.9,10.3
				c0,0,0.2-4.1,2.2-5.6c0,0-4,7.8,3.7,13.1c7.7,5.3,14.1,8,19.3,5.5c-0.9,0.9-2.8,1.9-2.8,1.9c6-0.5,10-9.5,10-9.5
				c-0.2,2.7-3.6,7.9-3.6,7.9c10.1-8.9,5.3-27.5,6.6-31.6C171.4,129.9,172.8,127.3,172.8,127.3z"/>
			<path class="st0" d="M175.1,106.7c0,0-1.4-0.2-3.5,0.3c-1,0.3-2.2,0.7-3.3,1.4c-1.1,0.7-2.3,1.6-3.3,2.6c-2,2-3.5,4.5-4.5,6.4
				c-1,1.9-1.5,3.2-1.5,3.2c0,0,0.4-1.4,1.3-3.4c0.9-2,2.3-4.5,4.4-6.6c1-1,2.2-1.9,3.3-2.6c1.2-0.7,2.4-1.1,3.5-1.3
				C173.7,106.3,175.1,106.7,175.1,106.7z"/>
			<path class="st0" d="M151.5,152c0,0,1.5-2,3.3-5.2c0.9-1.6,1.9-3.6,2.7-5.8c0.4-1.1,0.8-2.2,1-3.4c0.2-1.2,0.4-2.5,0.5-3.7
				c0.7-5,1.5-9.9,2.5-13.5c0.5-1.8,1.1-3.2,1.7-4.2c0.5-0.9,1-1.4,1-1.4c0,0-0.5,0.4-1,1.4c-0.5,1-1.1,2.4-1.5,4.2
				c-1,3.6-1.6,8.6-2.3,13.5c-0.2,1.2-0.3,2.5-0.6,3.7c-0.2,1.2-0.6,2.4-1,3.5c-0.8,2.2-1.9,4.1-2.8,5.8
				C153.1,150.1,151.5,152,151.5,152z"/>
			<g>
				<path class="st2" d="M156,167.4l1-0.5c0,0,0.8-0.4,1.7-1c-0.9,0.3-1.9,0.4-2.9,0.4c-4,0-8.7-2-15.2-6.5c-6.1-4.2-5-10-4.2-12.4
					c-1.2,1.7-1.4,4.6-1.4,4.6l-0.1,1.6l-0.4-1.5c-0.9-4,2.4-7.9,4.1-9.6c-2.2,1.1-5.3,3.2-5.3,3.2l-0.7,0.4l0.3-0.7
					c1.9-4.3,6.5-7.6,10.2-10.2c1.7-1.2,3.2-2.3,4.1-3.2c1.5-1.6,2-5.4,2.5-9.5c0.5-3.5,1-7.2,2.1-9.8c2.1-4.9,7.7-10.5,16.3-10.5
					c0.8,0,1.7,0.1,2.6,0.2c10,1.3,14,8.9,14.7,13.1c0.8,4.4-4.6,8.3-5.3,8.8c-0.5,1.6-1.3,3-3.8,3.2l-0.8,0l0-0.2
					c0-0.6-0.6-1.5-1.3-1.5c-0.4,0-0.7,0.4-0.9,0.7c-0.1,0.2-0.3,0.6-0.4,0.9l-0.1,0.2h0c-0.3,0.5-1.6,3-2.7,6.5
					c-0.3,1.1-0.2,3.2-0.1,6c0.4,7.6,0.9,19.1-6.6,25.7l-1.2,1.1l0.9-1.4c0,0,2.1-3.2,3.1-5.8c-1.5,2.7-4.8,7.4-9.2,7.8L156,167.4z
					 M161,164.4l-0.9,0.9c-0.4,0.5-1.1,0.9-1.7,1.3c5.1-1.6,8.4-9.1,8.5-9.1l0.6-1.3l-0.1,1.4c-0.2,1.8-1.7,4.6-2.7,6.4
					c5.9-6.6,5.4-17,5.1-24c-0.1-2.8-0.2-5,0.1-6.1c1.2-3.9,2.7-6.5,2.8-6.7c0.1-0.4,0.3-0.7,0.4-1c0.4-0.8,0.9-1,1.3-1
					c0.8,0,1.6,1,1.7,1.7l0.4,0c2.4-0.1,3-1.6,3.4-2.9l0-0.1l0.1,0c0.1,0,5.9-4,5.1-8.4c-0.7-4.2-4.6-11.5-14.3-12.8
					c-0.9-0.1-1.7-0.2-2.5-0.2c-8.4,0-13.8,5.5-15.9,10.2c-1.1,2.6-1.6,6.2-2.1,9.7c-0.5,4.1-1.1,8-2.7,9.7c-0.9,1-2.4,2-4.1,3.2
					c-3.4,2.4-7.7,5.4-9.7,9.3c1.3-0.9,4.2-2.7,5.9-3.3l1.1-0.4l-0.9,0.8c-0.1,0-4.3,3.7-4.9,7.7c0.3-1.2,0.9-2.6,1.9-3.4l0.8-0.6
					l-0.4,0.8c-0.2,0.3-3.8,7.7,3.7,12.9c6.3,4.4,11.1,6.4,14.9,6.4c1.5,0,2.8-0.3,4.1-0.9L161,164.4z"/>
			</g>
		</g>
		<g>
			<polygon class="st1" points="156.1,49.6 156.1,56.7 152.6,54.6 148,57.2 148,39.6 152.6,47.5 			"/>
			<path class="st1" d="M145.3,42.2c0.3,0,0.6,0.3,0.8,0.7c0.2,0.4,0.1,0.8-0.2,0.8c-1.1,0.1-1.8,1.1-1.8,2.5c0,1.4,0.7,3.2,1.8,4.5
				c0.3,0.3,0.4,0.8,0.2,1c-0.1,0.1-0.3,0.2-0.5,0c-0.1-0.1-0.2-0.1-0.3-0.3c-1.4-1.8-2.3-4.1-2.3-6C143,43.6,143.9,42.4,145.3,42.2
				z"/>
			<path class="st1" d="M143.5,38.7c0.3,0,0.6,0.3,0.8,0.7c0.2,0.4,0.1,0.8-0.2,0.8c-1.8,0.2-3,1.8-3,4.3c0,2.5,1.1,5.4,3,7.7
				c0.3,0.3,0.4,0.8,0.2,1c-0.1,0.1-0.3,0.2-0.5,0c-0.1-0.1-0.2-0.1-0.3-0.3c-2.2-2.7-3.6-6.2-3.6-9.2
				C140,40.9,141.3,38.9,143.5,38.7z"/>
		</g>
		<g>
			<polygon class="st1" points="347.2,158.5 350,164.3 355.2,159.6 363.8,177.5 353.5,171.5 346.5,167.5 340.8,164.2 			"/>
			<path class="st1" d="M347.7,155.8c-1.5-0.9-2.8-3.1-2.8-4.8c0-1.8,1.3-2.5,2.8-1.6c1.5,0.9,2.8,3.1,2.8,4.8
				C350.5,156,349.3,156.7,347.7,155.8z"/>
		</g>
	</g>
</g>
</svg>
