<?xml version="1.0" encoding="utf-8"?>
<!-- Generator: Adobe Illustrator 22.1.0, SVG Export Plug-In . SVG Version: 6.00 Build 0)  -->
<svg version="1.1" id="Edge" xmlns="http://www.w3.org/2000/svg" xmlns:xlink="http://www.w3.org/1999/xlink" x="0px" y="0px"
	 viewBox="0 0 1440 514.9" style="enable-background:new 0 0 1440 514.9;" xml:space="preserve">
<style type="text/css">
	.st0{fill:#EAEFF5;}
	.st1{fill:#FFFFFF;}
</style>
<path id="Polygon" class="st0" d="M1547.9,333.7l-58.1,100.7h-116.2l-58.1-100.7l58.1-100.7h116.2L1547.9,333.7z"/>
<path id="Polygon-2" class="st0" d="M858.2,347.3l-59,102.2h-118l-59-102.2l59-102.3h118L858.2,347.3z"/>
<path id="Polygon-3" class="st0" d="M193.2,377.5l-79.3,137.4H-44.8l-79.3-137.4l79.3-137.4h158.7L193.2,377.5z"/>
<path id="Polygon-4" class="st1" d="M549.2,137.5l-79.3,137.4H311.2l-79.3-137.4L311.2,0h158.7L549.2,137.5z"/>
<path id="Polygon-5" class="st1" d="M1022.3,222.6l-30,52h-60l-30-52l30-51.9h60L1022.3,222.6z"/>
</svg>
