<?xml version="1.0" encoding="utf-8"?>
<!-- Generator: Adobe Illustrator 22.1.0, SVG Export Plug-In . SVG Version: 6.00 Build 0)  -->
<svg version="1.1" id="Edge" xmlns="http://www.w3.org/2000/svg" xmlns:xlink="http://www.w3.org/1999/xlink" x="0px" y="0px"
	 viewBox="0 0 1440 514.9" style="enable-background:new 0 0 1440 514.9;" xml:space="preserve">
<style type="text/css">
	.st0{fill:#EAEFF5;}
	.st1{fill:#FFFFFF;}
</style>
<path id="Polygon" class="st0" d="M1489.8,281.9h-116.2l-58.1-100.7l58.1-100.7h116.2l58.1,100.7L1489.8,281.9z"/>
<path id="Polygon-2" class="st0" d="M799.2,269.9h-118l-59-102.3l59-102.2h118l59,102.2L799.2,269.9z"/>
<path id="Polygon-3" class="st0" d="M113.9,274.8H-44.8l-79.3-137.4L-44.8,0h158.7l79.3,137.4L113.9,274.8z"/>
<path id="Polygon-4" class="st1" d="M469.9,514.9H311.2l-79.3-137.5L311.2,240h158.7l79.3,137.4L469.9,514.9z"/>
<path id="Polygon-5" class="st1" d="M992.3,344.2h-60l-30-51.9l30-52h60l30,52L992.3,344.2z"/>
</svg>
