<?xml version="1.0" encoding="utf-8"?>
<!-- Generator: Adobe Illustrator 22.1.0, SVG Export Plug-In . SVG Version: 6.00 Build 0)  -->
<svg version="1.1" id="Layer_1" xmlns="http://www.w3.org/2000/svg" xmlns:xlink="http://www.w3.org/1999/xlink" x="0px" y="0px"
	 viewBox="0 0 512 511" style="enable-background:new 0 0 512 511;" xml:space="preserve">
<style type="text/css">
	.st0{fill:#FFFFFF;}
</style>
<path class="st0" d="M476,39.9L20.6,218.5c0,0-21.5,7.4-19.8,21s19.3,19.8,19.3,19.8l114.5,38.6l275-174.7c0,0,15.9-9.6,15.3,0
	c0,0,2.8,1.7-5.7,9.6c-8.5,7.9-216.1,194.5-216.1,194.5l-15,127.5c6.3,2.8,12.1-1.6,12.1-1.6l74-67.5l0,0l115.4,88.5
	c31.2,13.6,42.5-14.7,42.5-14.7l81.1-408.9C513.4,23.5,476,39.9,476,39.9z"/>
</svg>
