<?xml version="1.0" encoding="utf-8"?>
<!-- Generator: Adobe Illustrator 22.1.0, SVG Export Plug-In . SVG Version: 6.00 Build 0)  -->
<svg version="1.1" id="Layer_1" xmlns="http://www.w3.org/2000/svg" xmlns:xlink="http://www.w3.org/1999/xlink" x="0px" y="0px"
	 viewBox="0 0 400 420" style="enable-background:new 0 0 400 420;" xml:space="preserve">
<path d="M294.5,248.5c-11.1-9.4-16.2-12.2-31.6-21.4c-6.4-3.8-16.1-7.1-21.2-7.1c-3.5,0-7.7,2.7-10.2,5.2
	c-6.6,6.6-8.7,14.8-20.2,14.8c-11.3,0-30.9-11.4-45-26.3c-14.8-14.1-26.3-33.8-26.3-45c0-11.5,8.1-13.8,14.6-20.4
	c2.6-2.5,5.4-6.7,5.4-10.2c0-5.1-3.3-14.7-7.1-21.1c-9.2-15.4-12-20.5-21.4-31.6c-3.2-3.8-6.8-5.5-10.6-5.5
	c-6.4,0-14.8,3.2-20.5,7.4c-8.5,6.4-17.5,15-19.9,25.8c-0.3,1.5-0.5,3-0.6,4.4c-0.5,11.3,4,22.7,8.7,32.3
	c11.2,22.8,26.1,44.9,42.3,64.6c5.2,6.3,10.8,12.2,16.6,17.8c5.7,5.8,11.5,11.4,17.8,16.6c19.7,16.2,41.8,31,64.6,42.3
	c9.6,4.7,20.9,9.1,32,8.7c1.6,0,3.2-0.2,4.8-0.6c10.8-2.4,19.5-11.3,25.8-19.9c4.2-5.7,7.4-14.1,7.4-20.5
	C300,255.3,298.3,251.7,294.5,248.5 M300,200c-5.5,0-10-4.5-10-10v-10c0-49.6-40.4-90-90-90c-5.5,0-10-4.5-10-10c0-5.5,4.5-10,10-10
	c60.6,0,110,49.4,110,110v10C310,195.5,305.5,200,300,200 M238.6,180c-4.4,0-8.5-3-9.7-7.5c-2.7-10.5-10.9-18.7-21.4-21.4
	c-5.4-1.4-8.6-6.8-7.2-12.2c1.4-5.3,6.8-8.5,12.2-7.2c17.5,4.5,31.2,18.2,35.8,35.7c1.4,5.4-1.8,10.8-7.1,12.2
	C240.3,179.9,239.4,180,238.6,180"/>
<path d="M270,190c-5.5,0-10-4.5-10-10c0-31.9-24.9-58.2-56.8-59.9c-5.5-0.3-9.8-5-9.5-10.5c0.3-5.5,5.1-9.8,10.5-9.5
	c42.5,2.2,75.7,37.3,75.7,79.8C280,185.5,275.5,190,270,190"/>
<path d="M200,0C155,0,84.9,4.1,42.2,43.2C12,73.2,0,115.4,0,170c0,4.5,0,9.6,0,15c0,5.4,0,10.5,0,15c0,54.6,12,96.8,42.2,126.8
	c16.3,14.9,36.5,24.6,57.8,31.1v45.9c0,16,10.5,16.3,12.4,16.3h0.1c4.9,0,9.2-2.4,13.5-6.2c1.6-1.4,20.2-22.1,40.4-44.8
	c12,0.8,23.5,1.1,33.6,1.1c45,0,115.1-4.2,157.8-43.2C388,296.8,400,254.6,400,200c0-4.5,0-9.6,0-15c0-5.4,0-10.5,0-15
	c0-54.6-12-96.8-42.2-126.8C315.1,4.1,245,0,200,0 M370,196.5v3.5c0,49.1-10.5,82.5-32.9,105.1C298.3,340,224.4,340,200,340
	c-7.4,0-19.5,0-33.7-1c-4,4.4-46.3,51.8-46.3,51.8v-58.6c-21-5-41.8-13.3-57.1-27.1C40.5,282.5,30,249,30,200v-3.5
	c0-3.5,0-7.3,0-11.7c0-4,0-7.8,0-11.3V170c0-49.1,10.5-82.5,32.9-105.1C101.7,30,175.6,30,200,30s98.3,0,137.1,34.9
	C359.6,87.5,370,120.9,370,170v3.5c0,3.5,0,7.3,0,11.7C370,189.2,370,193,370,196.5"/>
</svg>
