<?xml version="1.0" encoding="utf-8"?>
<!-- Generator: Adobe Illustrator 22.1.0, SVG Export Plug-In . SVG Version: 6.00 Build 0)  -->
<svg version="1.1" id="Layer_1" xmlns="http://www.w3.org/2000/svg" xmlns:xlink="http://www.w3.org/1999/xlink" x="0px" y="0px"
	 viewBox="0 0 2173.6 1874.3" style="enable-background:new 0 0 2173.6 1874.3;" xml:space="preserve">
<path d="M1510.2,616.3c-201.8,10.5-377.2,71.7-519.7,209.9C846.6,965.8,780.9,1136.9,798.8,1349c-78.9-9.8-150.7-20.5-222.9-26.6
	c-24.9-2.1-54.6,0.9-75.7,12.8c-70.2,39.6-137.4,84.3-217.1,134.1c14.6-66.2,24.1-124.1,40.9-179.8c12.3-41,6.6-63.7-31.1-90.4
	C50.6,1028.1-51.5,772.2,24.9,508.7C95.6,265,269.2,117.1,505.1,40.1c322-105.2,683.8,2.1,879.6,257.7
	C1455.4,390.1,1498.7,493.8,1510.2,616.3 M581.5,534.2c1.9-48.2-39.9-91.6-89.5-93.1c-50.8-1.5-92.6,37.3-94,87.4
	c-1.5,50.7,37.3,91.4,88.4,92.7C537.2,622.5,579.7,583.6,581.5,534.2 M1066,441.1c-49.8,0.9-91.9,43.3-91,91.7
	c0.9,50.2,42.2,89.4,93.4,88.8c51.3-0.6,90.3-40.3,89.8-91.5C1157.8,479.9,1116.7,440.2,1066,441.1"/>
<path d="M1963.5,1874.3c-63.9-28.4-122.5-71.1-184.9-77.7c-62.2-6.5-127.5,29.4-192.5,36c-198.1,20.3-375.6-34.9-521.9-170.3
	c-278.3-257.4-238.5-652.1,83.4-863.1c286.2-187.5,705.9-125,907.6,135.2c176.1,227,155.4,528.3-59.6,719
	c-62.2,55.2-84.6,100.6-44.7,173.4C1958.4,1840.3,1959.2,1857.3,1963.5,1874.3 M1236.2,1170.1c40.7,0,74.2-31.8,75.7-72
	c1.6-42.5-32.6-78.2-75.2-78.4c-42.2-0.2-77.5,36-76,77.9C1162.1,1137.7,1195.8,1170,1236.2,1170.1 M1705.1,1019.9
	c-39.5-0.3-73,32-74.6,71.9c-1.7,42.6,31.4,77.7,73.6,77.8c40.8,0.1,73.1-30.7,74.6-71.4C1780.2,1055.5,1747.1,1020.2,1705.1,1019.9
	"/>
</svg>
