<?xml version="1.0" encoding="utf-8"?>
<!-- Generator: Adobe Illustrator 22.1.0, SVG Export Plug-In . SVG Version: 6.00 Build 0)  -->
<svg version="1.1" id="Layer_1" xmlns="http://www.w3.org/2000/svg" xmlns:xlink="http://www.w3.org/1999/xlink" x="0px" y="0px"
	 viewBox="0 0 401.3 403" style="enable-background:new 0 0 401.3 403;" xml:space="preserve">
<path d="M201.5,10c50.8,0,98.4,19.8,134.3,55.7c35.8,35.9,55.6,83.6,55.6,134.3c0,104.6-85.2,189.8-189.9,189.8h-0.1
	c-31.8,0-63-8-90.7-23.1L10,393l26.9-98.4c-16.6-28.8-25.4-61.4-25.3-94.9C11.6,95.1,96.8,10,201.5,10 M201.5,389.7L201.5,389.7
	 M201.5,389.7L201.5,389.7 M201.5,0L201.5,0C91.3,0,1.6,89.6,1.6,199.8c0,33.7,8.5,66.9,24.6,96.2L0.4,390.4c-0.9,3.5,0,7.1,2.5,9.7
	c1.9,1.9,4.5,3,7.1,3c0.9,0,1.7-0.1,2.5-0.3l96.9-25.4c28.3,14.7,60,22.4,92,22.4c110.2,0,199.9-89.6,199.9-199.8
	c0-53.4-20.8-103.6-58.5-141.3C305.1,20.8,254.9,0,201.5,0"/>
<path d="M313.1,88.3c-29.8-29.8-69.4-46.3-111.6-46.3c-87,0-157.8,70.8-157.9,157.7c0,29.8,8.3,58.8,24.1,84l3.8,6l-15.9,58.2
	l59.7-15.7l5.8,3.4c24.2,14.4,52,22,80.3,22h0.1c87,0,157.8-70.8,157.8-157.8C359.3,157.8,342.9,118.1,313.1,88.3 M294.3,267.6
	c-4,11.1-23.3,21.8-32,22.6c-8.7,0.8-16.9,3.9-56.9-11.9c-48.2-19-78.7-68.4-81-71.6C122,203.5,105,181,105,157.6
	s12.3-34.8,16.6-39.6s9.5-5.9,12.6-5.9c3.2,0,6.3,0,9.1,0.1c3.4,0.1,7.1,0.3,10.7,8.2c4.2,9.4,13.4,32.8,14.6,35.2
	c1.2,2.4,2,5.1,0.4,8.3c-1.6,3.2-2.4,5.1-4.7,7.9c-2.4,2.8-5,6.2-7.1,8.3c-2.4,2.4-4.9,4.9-2.1,9.7c2.8,4.8,12.3,20.3,26.4,32.9
	c18.1,16.2,33.4,21.2,38.2,23.5c4.7,2.4,7.5,2,10.3-1.2c2.8-3.2,11.9-13.8,15-18.6c3.2-4.8,6.3-4,10.7-2.4
	c4.3,1.6,27.7,13.1,32.4,15.4c4.7,2.4,7.9,3.6,9.1,5.5C298.3,247.1,298.3,256.5,294.3,267.6"/>
</svg>
